<svg id="Layer_1" data-name="Layer 1" xmlns="http://www.w3.org/2000/svg" viewBox="0 0 200 250"><defs><style>.cls-1{fill:#4682b4;}.cls-2{fill:#f6b344;}.cls-3{fill:#bc8639;}.cls-4{fill:#ed6245;}.cls-5{fill:#403833;}.cls-6,.cls-7{fill:#fff;}.cls-7{fill-rule:evenodd;}</style></defs><title>bgcreate</title><rect class="cls-1" width="200" height="250"/><path class="cls-2" d="M116.1,172.89c-36.93,0-42.81,59.38-34.73,63.63s22.11-37.42,44.9-23.49C138.57,220.55,126.8,172.89,116.1,172.89Z"/><path class="cls-2" d="M155.25,172.89c36.93,0,42.81,59.38,34.73,63.63S167.86,199.1,145.08,213C132.78,220.55,144.54,172.89,155.25,172.89Z"/><polygon class="cls-3" points="66.05 234.63 30.33 234.63 34.79 210.39 62.22 210.39 66.05 234.63"/><path class="cls-2" d="M85.44,164.89s-21-3.08-35.53-3.08c-15.78,0-28.23,1.3-38,3.64C11.57,164,22,216.58,48.6,216.58S85.44,164.89,85.44,164.89Z"/><path class="cls-2" d="M68.69,35.84C60.47,22.83,52.13,15,48.66,15s-11.81,7.83-20,20.84a113.8,113.8,0,0,0,20,1.77A113.68,113.68,0,0,0,68.69,35.84Z"/><path class="cls-4" d="M50,150.07c14.47,0,26.14,1.1,35.53,3.08A172.45,172.45,0,0,0,88.32,135s0-.08,0-.13c.16-1.5.29-3,.41-4.57l0-.35c.11-1.48.2-3,.28-4.48,0-.14,0-.28,0-.42.08-1.51.13-3,.18-4.58,0-.11,0-.22,0-.33,0-1.64.06-3.28.06-4.94q0-1.23,0-2.46l0-.8c0-.55,0-1.09-.05-1.64,0-.31,0-.63,0-1,0-.49,0-1-.08-1.48,0-.33,0-.66-.07-1l-.12-1.43c0-.33,0-.66-.09-1s-.09-.94-.14-1.41-.07-.66-.1-1l-.18-1.43-.12-.94-.21-1.5-.12-.83-.3-1.79c0-.17,0-.35-.08-.53-.14-.78-.28-1.55-.43-2.31,0-.13-.05-.26-.08-.39-.12-.63-.25-1.26-.38-1.89,0-.24-.11-.49-.16-.73-.11-.51-.23-1-.34-1.53-.07-.27-.13-.53-.19-.8-.12-.48-.23-1-.35-1.44l-.21-.82c-.12-.47-.25-.93-.37-1.4-.07-.27-.15-.54-.22-.81-.13-.47-.27-.94-.4-1.41-.07-.25-.14-.5-.22-.75-.14-.5-.29-1-.44-1.48-.07-.22-.14-.44-.2-.66L83,76.92c0-.14-.09-.28-.14-.42-.47-1.42-1-2.83-1.47-4.22l-.07-.18-.69-1.84-.17-.44c-.2-.52-.41-1-.62-1.56l-.21-.51c-.2-.49-.4-1-.61-1.48l-.21-.5-.63-1.46L78,63.84l-.67-1.5c-.06-.13-.12-.25-.17-.38-.26-.56-.52-1.11-.79-1.67,0,0,0-.1-.07-.16-1.2-2.51-2.44-4.9-3.71-7.19l-.06-.11-.87-1.55-.11-.18c-.28-.5-.56-1-.85-1.47l-.1-.17L69.72,48l-.08-.13-.94-1.51h0a112.74,112.74,0,0,1-20,1.77,112.85,112.85,0,0,1-20-1.77h0l0,.06-.9,1.43-.11.2-.84,1.38-.13.23-.82,1.4-.13.24c-.29.49-.57,1-.85,1.49l-.09.17c-1.25,2.27-2.49,4.66-3.68,7.16,0,.07-.07.15-.11.23L20.18,62c-.07.14-.13.27-.19.41l-.66,1.47c-.07.16-.15.33-.22.5-.21.47-.41.94-.61,1.42l-.24.54-.59,1.44-.22.54-.6,1.52c-.06.16-.12.32-.19.48-.22.59-.45,1.18-.67,1.78l-.09.24c-.5,1.38-1,2.78-1.46,4.2l-.15.47c-.18.55-.36,1.09-.53,1.63l-.21.69c-.14.48-.29,1-.43,1.45-.08.26-.15.52-.23.78l-.39,1.38c-.08.28-.15.55-.22.83-.13.46-.25.92-.37,1.38l-.21.84c-.12.47-.23.94-.35,1.41-.06.28-.13.55-.19.83-.12.5-.23,1-.34,1.51-.05.25-.11.5-.16.74-.13.62-.26,1.24-.38,1.87l-.09.41L9.77,95l-.09.54c-.1.59-.2,1.18-.29,1.77l-.12.84c-.08.5-.15,1-.22,1.51l-.12.93c-.06.47-.11,1-.17,1.43,0,.33-.07.65-.11,1s-.09.94-.14,1.41l-.09,1c0,.48-.07.95-.11,1.43,0,.33-.05.66-.07,1,0,.49-.06,1-.08,1.48,0,.32,0,.64-.05,1l-.06,1.64c0,.27,0,.54,0,.8q0,1.23,0,2.46c0,1.68,0,3.34.06,5,0,.12,0,.25,0,.38,0,1.54.11,3.07.18,4.6l0,.46c.08,1.52.17,3,.29,4.53,0,.12,0,.24,0,.36.13,1.58.27,3.16.43,4.71v0c.17,1.61.36,3.19.56,4.76v.06c.2,1.53.42,3.05.65,4.54,0,.07,0,.15,0,.22.23,1.47.48,2.91.74,4.34a1.29,1.29,0,0,1,0,.19c.28,1.47.57,2.92.88,4.36C21.73,151.37,34.18,150.07,50,150.07Z"/><path class="cls-5" d="M61.65,127.71a13,13,0,1,1-13-13A13,13,0,0,1,61.65,127.71Z"/><path class="cls-6" d="M48.66,142.93a15.23,15.23,0,1,1,15.22-15.22A15.24,15.24,0,0,1,48.66,142.93Zm0-26a10.76,10.76,0,1,0,10.76,10.76A10.77,10.77,0,0,0,48.66,117Z"/><path class="cls-5" d="M66.5,82.2A17.85,17.85,0,1,1,48.66,64.35,17.84,17.84,0,0,1,66.5,82.2Z"/><path class="cls-6" d="M48.66,102.27A20.08,20.08,0,1,1,68.73,82.2,20.1,20.1,0,0,1,48.66,102.27Zm0-35.68A15.61,15.61,0,1,0,64.27,82.2,15.62,15.62,0,0,0,48.66,66.59Z"/><path class="cls-4" d="M37.54,175.28c-.09-2.74,22.59-3.91,22.23,0s-4.87,55.66-11.12,55.66S37.64,178,37.54,175.28Z"/><path class="cls-7" d="M137.62,91.14l-1.64-4A27.28,27.28,0,0,0,127.2,93l3,3a22.65,22.65,0,0,0-4.94,7.36l-4-1.65a27,27,0,0,0-2.07,10.34h4.3a22.58,22.58,0,0,0,1.15,7.2c.17.51.36,1,.56,1.5l-4,1.64a27,27,0,0,0,5.85,8.78l3-3a22.74,22.74,0,0,0,7.37,4.94l-1.65,4a26.91,26.91,0,0,0,10.34,2.07v-4.3a22.51,22.51,0,0,0,8.71-1.71l1.63,4a27,27,0,0,0,8.78-5.85l-3-3a22.77,22.77,0,0,0,4.95-7.37l4,1.65a26.94,26.94,0,0,0,2.06-10.34H169a22.82,22.82,0,0,0-1.16-7.2c-.17-.51-.35-1-.56-1.51l4-1.64a26.92,26.92,0,0,0-5.85-8.77l-3,3A23,23,0,0,0,155,91.16l1.65-4a27,27,0,0,0-10.34-2.06v4.29A22.69,22.69,0,0,0,137.62,91.14Zm8.68,10a11,11,0,1,1-11,11A11,11,0,0,1,146.3,101.15Z"/><path class="cls-7" d="M123.49,38.64l-1.34-3.27a22.3,22.3,0,0,0-7.22,4.82l2.5,2.5a18.54,18.54,0,0,0-4.07,6.05l-3.26-1.36a22.27,22.27,0,0,0-1.7,8.5h3.53a18.68,18.68,0,0,0,.95,5.92c.14.42.29.83.46,1.23l-3.26,1.35a22.07,22.07,0,0,0,4.81,7.21l2.5-2.49a18.78,18.78,0,0,0,6,4.06l-1.35,3.26a22,22,0,0,0,8.49,1.7V74.6a18.68,18.68,0,0,0,7.15-1.41l1.35,3.27a22.39,22.39,0,0,0,7.21-4.81l-2.49-2.5a18.71,18.71,0,0,0,4.06-6.06l3.27,1.36a22.46,22.46,0,0,0,1.7-8.5H149.3a18.68,18.68,0,0,0-1-5.92c-.14-.41-.29-.83-.46-1.23l3.27-1.35a22.34,22.34,0,0,0-4.81-7.21l-2.5,2.49a18.71,18.71,0,0,0-6.06-4.06l1.36-3.26a22.08,22.08,0,0,0-8.5-1.7v3.53A18.73,18.73,0,0,0,123.49,38.64Zm7.14,8.23a9.05,9.05,0,1,1-9.06,9A9.05,9.05,0,0,1,130.63,46.87Z"/><path class="cls-7" d="M171,57.47l-.94-2.28a15.57,15.57,0,0,0-5,3.36l1.75,1.75A12.92,12.92,0,0,0,164,64.52l-2.28-.95a15.43,15.43,0,0,0-1.18,5.94H163a13.13,13.13,0,0,0,.66,4.13c.1.29.21.58.32.86l-2.27.94a15.54,15.54,0,0,0,3.35,5l1.75-1.74A13.05,13.05,0,0,0,171,81.57l-.94,2.28A15.38,15.38,0,0,0,176,85V82.57a13.18,13.18,0,0,0,5-1l.94,2.28a15.63,15.63,0,0,0,5-3.36l-1.74-1.75a13.24,13.24,0,0,0,2.84-4.22l2.27.95a15.47,15.47,0,0,0,1.19-5.94H189a12.85,12.85,0,0,0-.66-4.13c-.1-.29-.2-.58-.32-.86l2.28-.94a15.41,15.41,0,0,0-3.36-5l-1.74,1.74A13.09,13.09,0,0,0,181,57.49l1-2.28A15.61,15.61,0,0,0,176,54v2.47A13.13,13.13,0,0,0,171,57.47Zm5,5.75a6.32,6.32,0,0,1,6,4.32,6.59,6.59,0,0,1,.32,2A6.32,6.32,0,1,1,176,63.22Z"/></svg>