<svg id="Layer_1" data-name="Layer 1" xmlns="http://www.w3.org/2000/svg" viewBox="0 0 171.28 197.66"><defs><style>.cls-1{fill:#9adbf9;}.cls-2{fill:#3e0800;}.cls-3{fill:#252525;}.cls-4{fill:#fecc8d;}.cls-5{fill:#151515;}.cls-6{fill:#faac73;}.cls-7{fill:#fff;}.cls-8{fill:#2c5caa;}.cls-9{fill:#1e489e;}.cls-10{fill:#e6e7e8;}.cls-11{fill:#5d2016;}.cls-12{fill:#00aeef;}.cls-13{fill:#f16275;}.cls-14{fill:#f9a987;}</style></defs><title>bgjoin</title><ellipse class="cls-1" cx="95.68" cy="124.66" rx="31.72" ry="10"/><path class="cls-2" d="M100.43,82.91s-9.17-.24-11.59,6.46-.9,27.32,1.14,29.12,24.6,2.87,28.29.23,3.19-28.15,2.81-30.42S114.32,83,100.43,82.91Z" transform="translate(-12.29 -24.34)"/><path class="cls-3" d="M96.57,144s-1.4-.07-2.77,2.71-2,5.75.51,7.36,6.63.9,8.14-.31.41-7.2,0-8a5.44,5.44,0,0,0-.76-1.2Z" transform="translate(-12.29 -24.34)"/><path class="cls-4" d="M95.13,130.64s1,12.38,1,13.72-1.92,4.81,1.92,5.66,3.53-3.78,3.67-5.4,3.06-14.08,3.06-14.08S96.83,131.16,95.13,130.64Z" transform="translate(-12.29 -24.34)"/><path class="cls-5" d="M92.63,150.21a3.89,3.89,0,0,0-.36,2.78c.42,1.13,1.7,2.26,5,2.64s5.44-.88,5.9-2a16.36,16.36,0,0,0,.1-6.77c-.24-.66-.87-1.38-.72-1.07.36.77.51,5.74-.61,7.21s-4.66,1.42-5.84,1.11C93.09,153.37,92.86,151.9,92.63,150.21Z" transform="translate(-12.29 -24.34)"/><path class="cls-6" d="M96.85,130.83a7.23,7.23,0,0,1-1.72-.19s1,12.38,1,13.72-1.92,4.81,1.92,5.66h0c-2.17-1-1.24-4.18-1-6.28C97.26,141.81,96.9,133.46,96.85,130.83Z" transform="translate(-12.29 -24.34)"/><path class="cls-7" d="M96.15,144.36c0,1.34-1.92,4.81,1.92,5.66s3.53-3.78,3.67-5.4c.06-.63.53-2.89,1.09-5.42a26.54,26.54,0,0,1-7-.09C96,141.62,96.15,143.83,96.15,144.36Z" transform="translate(-12.29 -24.34)"/><path class="cls-3" d="M102,146.14s-.81-1.34-6.12-.94l-.38,1.39s4.92,0,6.5,1.17Z" transform="translate(-12.29 -24.34)"/><path class="cls-4" d="M112.28,128.82s3.16,13.2,3.71,14.75,6.58,2.75,6.58,2.75l2.28-2-.23-.48a5.31,5.31,0,0,1-2.53-1.54c-.86-1.12-1.31-15-1.31-15Z" transform="translate(-12.29 -24.34)"/><path class="cls-6" d="M117.25,138.68c-3.7-5.64.1-9.8.1-9.8l-.66-.87-4.41.81s2,8.53,3.13,12.68C117.43,142,119.4,142,117.25,138.68Z" transform="translate(-12.29 -24.34)"/><path class="cls-7" d="M122.09,142.26c-.34-.44-.61-2.85-.82-5.61a14.24,14.24,0,0,1-6.82,1.1c.69,2.74,1.32,5.2,1.54,5.82.54,1.54,6.58,2.75,6.58,2.75l2.28-2-.23-.48A5.31,5.31,0,0,1,122.09,142.26Z" transform="translate(-12.29 -24.34)"/><path class="cls-3" d="M116,143.57a29,29,0,0,0,4.18,1.11c2.89.59,3.55-.14,4.21-.87s4.43-.32,5.31,1.36-1.43,3-6,3.9-9.24-1.18-9.63-2S114.87,143.87,116,143.57Z" transform="translate(-12.29 -24.34)"/><path class="cls-5" d="M114.15,145.94a21.4,21.4,0,0,0,7,2.6,10.88,10.88,0,0,0,8.69-2.6,1,1,0,0,1-.11,1.5,11.94,11.94,0,0,1-8.6,2.29,20.58,20.58,0,0,1-7.65-2.25C113.11,147.19,113.62,145.9,114.15,145.94Z" transform="translate(-12.29 -24.34)"/><path class="cls-4" d="M125,94s4.4,10.12,5,12.15,3.32,2.54,4.51,3.4-1.06,1.94-2.69,1.52c-.86-.21,1.46,3.43.56,4s-2.29-1.29-2.65-1.76.22,2.3-.53,2.52-1.29-1.37-1.33-2.14.09,2-.87,1.89-.61-2.63-.61-2.63-.22,2.24-1.25,2-.09-2-.24-2.73a4.37,4.37,0,0,1-.3-2.73c.39-1.21.48-1.6.13-2.16s-4.61-8.16-5.68-12.29Z" transform="translate(-12.29 -24.34)"/><path class="cls-6" d="M124.92,112.17c.15.69-.79,2.48.24,2.73h.11a3.45,3.45,0,0,1-.1-1.2c0-1.19.6-2.26.1-3.19s.84-1.61.78-2.63-.16-1.11-1.2-3.15a29.63,29.63,0,0,1-1.77-6.31l-3.61-2.9-.19.18c1.32,4.23,5.14,11,5.47,11.57s.26,1-.13,2.16A4.37,4.37,0,0,0,124.92,112.17Z" transform="translate(-12.29 -24.34)"/><path class="cls-4" d="M91.54,96.58s-3.75,9-3.5,12c0,0-3.18,2.76-3.58,4.69s-1,2.44,0,2.94,2-1.94,3-2.63,1.92-1.39,2.23-.17.74,2.43,1.81,2.26,1.15-2.78.87-4.27,4.36-8.5,5.27-13.49C97.69,97.91,91,96.37,91.54,96.58Z" transform="translate(-12.29 -24.34)"/><path class="cls-6" d="M95.6,97.44l-.94,1.43s-1.51,7.29-3.34,9.91c-1,1.39.5,2.87.36,4.88-.08,1.19-.27,1.69-.58,2a1.1,1.1,0,0,0,.45,0c1.07-.17,1.15-2.78.87-4.27s4.36-8.5,5.27-13.49Z" transform="translate(-12.29 -24.34)"/><path class="cls-8" d="M95.67,111.49s-3.46,17.91-2.92,19.62c.81,2.54,12.63,3.72,14.57,1.26,1-1.3,1.51-6.28,1.51-6.28s.65,5.49,1.72,6.15c2.1,1.31,9-.4,11.79-2.61,1-.8.06-14.8-1.32-17.59S110,115.35,95.67,111.49Z" transform="translate(-12.29 -24.34)"/><path class="cls-9" d="M113.44,130.59c-3-1.75-3.82-9.29-4.1-8.75a29.72,29.72,0,0,0-.51,4.25s.65,5.49,1.72,6.15c1.77,1.11,7,.06,10.23-1.63A8.24,8.24,0,0,1,113.44,130.59Z" transform="translate(-12.29 -24.34)"/><path class="cls-9" d="M104.8,112.8h0a38.61,38.61,0,0,1-9.13-1.31s-3.46,17.91-2.92,19.62c.81,2.54,12.63,3.72,14.57,1.26-1.22,1-4.59,1-7.75-.36s-4-6.08-2.2-10.83S104.42,112.87,104.8,112.8Z" transform="translate(-12.29 -24.34)"/><path class="cls-7" d="M106.33,85.94a24.19,24.19,0,0,0-10.6,2.39C90,91,89.72,98.3,89.65,99s7.56,1.34,8.34.68,0-5.23,2.67-6.36S106.06,86.61,106.33,85.94Z" transform="translate(-12.29 -24.34)"/><path class="cls-7" d="M108,86.33a24.37,24.37,0,0,1,10.89.62c6.16,1.7,7.77,8.83,8,9.52s-7.19,2.56-8.08,2-1-5.16-3.81-5.83S108.37,87,108,86.33Z" transform="translate(-12.29 -24.34)"/><path class="cls-6" d="M102.76,84.61a5.82,5.82,0,0,1,.57,2.67c-.19,1,6.86,2,6.86,2l2.8-1.63s1-2.24.88-2.84S102.76,84.61,102.76,84.61Z" transform="translate(-12.29 -24.34)"/><path class="cls-7" d="M104.61,86.3s.76,2,4.88,2.32S113,86.11,113,86.11a7.51,7.51,0,0,1,6.66,5.3c1.87,5.28,3.24,20.13,2.76,21.73,0,0-11.64,8.57-27.61-1.3,0,0,3-8.38,2.74-12.88S91.35,86.77,104.61,86.3Z" transform="translate(-12.29 -24.34)"/><path class="cls-8" d="M107.56,91.91s-3,14.55-3.48,15.79,4.93,6.37,6.06,6.59,4.83-4.52,5.16-5.14-5.24-17.61-5.24-17.61Z" transform="translate(-12.29 -24.34)"/><path class="cls-9" d="M106,91.77s1.92,1.41,3.27,1.27,2.77-2.16,2.77-2.16l-1.79-2.12s-.19-.37-1.75-.06S105.23,90.48,106,91.77Z" transform="translate(-12.29 -24.34)"/><path class="cls-9" d="M113.76,103.23l-8.15,7.17a25.65,25.65,0,0,0,2,2l6.94-6.56C114.32,105.08,114.05,104.18,113.76,103.23Z" transform="translate(-12.29 -24.34)"/><path class="cls-9" d="M112.12,97.93l-7.22,6.43c-.39,1.71-.7,3-.82,3.34a.73.73,0,0,0,0,.41l8.74-7.87C112.6,99.46,112.35,98.68,112.12,97.93Z" transform="translate(-12.29 -24.34)"/><path class="cls-10" d="M103.89,85.74c-2.07.07-1.75.26-2.25,1.4s2.11,4.47,3.6,5.16,3.15-3.12,3.77-3.49S104.73,85.71,103.89,85.74Z" transform="translate(-12.29 -24.34)"/><path class="cls-10" d="M112.8,86c1.65,0,1.4.14,1.86,1s-1.41,3.61-2.55,4.21-2.68-2.36-3.19-2.63S112.14,86,112.8,86Z" transform="translate(-12.29 -24.34)"/><path class="cls-11" d="M79.41,70.49s-3.65,4.05-.88,7.83,5.36,1.4,5.36,1.4a3,3,0,0,0,1.52,3.17c1.94,1,3.07-2.29,3.07-2.29s3.45,4.16,7.43,1.67-4.83-16.55-4.83-16.55Z" transform="translate(-12.29 -24.34)"/><path class="cls-4" d="M85.44,69s-5.63.67-3.76,5.28,6.62,2.64,6.62,2.64,1.52,5.79,16.91,8.36S132.48,76.77,134.87,65,129,42.71,128.63,42.64s-17.18-1-17.18-1L96.63,44.52l-7.7,6.91Z" transform="translate(-12.29 -24.34)"/><path class="cls-6" d="M94.7,82.33a41.88,41.88,0,0,0,10.51,3,25.69,25.69,0,0,0,26.4-12.17c-4.13,4.29-12.32,11.14-21.55,9.73-13.24-2-16.2-10.11-16.2-10.11s3.92-2.87,2.51-5.27c-1.22-2-1.84-1.89-2-1.79.26-.19,1.73-1.39.91-4.3-.89-3.17.21-.46.21-.46s2-.37,2-3.36c0,0,7.71,2.22,11-5.15,0,0,8,3,11.07-2.26,0,0,4,3,7.21.88,0,0,.73,4,3.93,3.63,0,0,0,4.38,2.06,4.89,0,0-.74,3.87,1.11,5.34.25.21.6.17,1,0,2.32-11.76-5.89-22.16-6.25-22.23s-17.18-1-17.18-1L96.63,44.52l-7.7,6.91L85.44,69l-.21,0c1.54.46,2.71,1,2.9,1.61a11.49,11.49,0,0,0,.17,6.28C88.62,78.07,90.67,80.62,94.7,82.33Z" transform="translate(-12.29 -24.34)"/><path class="cls-7" d="M123.84,60.18c-4.46.28-6,6.8-2.54,9.81s7.92-1.11,7.62-5.31S125.68,60.06,123.84,60.18Z" transform="translate(-12.29 -24.34)"/><path class="cls-7" d="M104.12,59.33c-5.27.26-6.43,4.36-4.2,9S108.5,71,109.86,67A5.7,5.7,0,0,0,104.12,59.33Z" transform="translate(-12.29 -24.34)"/><path class="cls-11" d="M107.12,64.91a2.52,2.52,0,1,1-2.53-2.51A2.52,2.52,0,0,1,107.12,64.91Z" transform="translate(-12.29 -24.34)"/><path class="cls-7" d="M104.86,64.07a1.08,1.08,0,1,1-2.15,0,1.08,1.08,0,0,1,2.15,0Z" transform="translate(-12.29 -24.34)"/><path class="cls-7" d="M106.16,66.36a.48.48,0,1,1-.48-.48A.47.47,0,0,1,106.16,66.36Z" transform="translate(-12.29 -24.34)"/><path class="cls-11" d="M126,65.16a2.09,2.09,0,1,1-2.1-2.08A2.09,2.09,0,0,1,126,65.16Z" transform="translate(-12.29 -24.34)"/><path class="cls-7" d="M124.1,64.46a.89.89,0,1,1-.89-.89A.89.89,0,0,1,124.1,64.46Z" transform="translate(-12.29 -24.34)"/><path class="cls-7" d="M125.18,66.36a.39.39,0,0,1-.39.4.41.41,0,0,1-.41-.4.4.4,0,1,1,.8,0Z" transform="translate(-12.29 -24.34)"/><path class="cls-11" d="M103.33,55.87c-.27-.6-4.18-.56-4.48,2.15-.19,1.72,1.67-.59,2.6-.73S103.66,56.59,103.33,55.87Z" transform="translate(-12.29 -24.34)"/><path class="cls-11" d="M123.42,56.1c.22-.62,4.12-.93,4.66,1.74.35,1.7-1.72-.44-2.65-.49S123.17,56.85,123.42,56.1Z" transform="translate(-12.29 -24.34)"/><path class="cls-6" d="M113.73,67.86c1.38-1.11,4.9,1.92,3.8,3.67s-4.15.66-4.43-.35A4.66,4.66,0,0,1,113.73,67.86Z" transform="translate(-12.29 -24.34)"/><path class="cls-11" d="M95.67,55.46s3,1.57,7.26-.73a12.48,12.48,0,0,0,5.69-6.17,7.35,7.35,0,0,0,5.77,1.86,6.32,6.32,0,0,0,5.2-3.63s2.5,3.23,4.89,3.18a5.44,5.44,0,0,0,3.63-1.3s.29,3.68,2,4.75a2.34,2.34,0,0,0,2.89-.07s-1.54,2.2-.44,4.29,1.94,2.25,1.94,2.25-3,4.67,0,6,4.72-5.73,2.68-7.49c0,0,3.4-5.36-1-7.32,0,0,2.13-4.59-2.53-5.74,0,0,.61-5.13-4.48-5.35,0,0,2.67-3.5-.67-5.64s-7.13,0-7.13,0,2.06-3.61-.6-4.75-4.48,1.9-4.48,1.9,3.36-4.49-2.5-5.23-8.2,2.93-8.2,2.93a7.91,7.91,0,0,0-6.44-4.86c-4.8-.42-5,6.93-5,6.93S92,25.5,89,26.93s-.55,6.14-.55,6.14-8.4-4.48-11.7,1,3.1,8.59,3.1,8.59-8.59.48-7.93,5.49,5.84,3.49,5.84,3.49-7.6,4.43-5.72,7a3.35,3.35,0,0,0,4.22,1.43s-5.8,5.52-2.11,9.1S79.68,71,79.68,71c3-1.42,7-2,8.29.46s4.29,2.1,6.45-.39c1.77-2-.18-4.91-2.27-3.81,0,0,4.15-5.34-1.15-7.73C91,59.57,96.41,61.36,95.67,55.46Z" transform="translate(-12.29 -24.34)"/><path class="cls-6" d="M86.24,72c-1.6-1.5-3.76,0-2.78,2.1s2.31,2.32,3.05,1.71-1.35-.76-1.27-1.87S87.4,73.14,86.24,72Z" transform="translate(-12.29 -24.34)"/><path class="cls-11" d="M115.56,76.79c-1.66,0-2.21-1.47-2.63-1.19s.6,1.86,2.49,1.84,2.69-.85,2.37-1.27S116.76,76.79,115.56,76.79Z" transform="translate(-12.29 -24.34)"/><path class="cls-11" d="M100.05,86.68c1.08.87,2.3,13.65-2.93,18.57-1.15,1.08-2.8-.6-1.53-2.88s.54-11.9.14-14S98.27,85.24,100.05,86.68Z" transform="translate(-12.29 -24.34)"/><path class="cls-11" d="M117.1,86.65c-.56-1.2,4-1.65,4.87.63.6,1.53,3.81,17.42.59,17C120.74,104.08,121.8,96.76,117.1,86.65Z" transform="translate(-12.29 -24.34)"/><ellipse class="cls-1" cx="55.64" cy="177.08" rx="33.57" ry="10.58"/><path class="cls-4" d="M50,149s-3.3,9.94-2.87,13.19c0,0-3.09,3.16-3.39,5.27s-.85,2.7.21,3.18,1.91-2.21,2.92-3,1.88-1.6,2.26-.3.89,2.6,2,2.36,1-3.08.65-4.69,4-9.44,4.6-14.89C56.32,150.13,49.41,148.82,50,149Z" transform="translate(-12.29 -24.34)"/><path class="cls-6" d="M54.16,149.73l-.87,1.6s-1.13,8-2.84,10.92c-.91,1.56.67,3.08.65,5.27,0,1.29-.19,1.85-.49,2.18a1.17,1.17,0,0,0,.46,0c1.08-.25,1-3.08.65-4.69s4-9.44,4.6-14.89Z" transform="translate(-12.29 -24.34)"/><path class="cls-11" d="M39,119.33c-5.26-8-11.91-5.81-16.12,1.59a20.63,20.63,0,0,1-10.55,9.4,9,9,0,0,0,7.06,1.1s0,2.76-4.47,2.63c0,0,3.31,6.82,14.11,2.19S42.36,124.49,39,119.33Z" transform="translate(-12.29 -24.34)"/><path class="cls-12" d="M38.56,113s-4,1.17-2.47,4.81,3.38,4.29,5.2,3.38S38.56,113,38.56,113Z" transform="translate(-12.29 -24.34)"/><path class="cls-11" d="M93.28,116.76c4-6,9-4.37,12.12,1.2a15.55,15.55,0,0,0,7.94,7.07,6.8,6.8,0,0,1-5.31.83s0,2.08,3.36,2c0,0-2.49,5.13-10.62,1.65S90.71,120.65,93.28,116.76Z" transform="translate(-12.29 -24.34)"/><path class="cls-12" d="M93.58,112s3,.88,1.86,3.62-2.55,3.23-3.92,2.55S93.58,112,93.58,112Z" transform="translate(-12.29 -24.34)"/><path class="cls-4" d="M89.64,123c-3.31,7.7-9.45,13.26-24.27,12.57-14.57-.67-18.62-7.63-21-10.23s.74-27.06.74-27.06l6.63-8.06L84,88.17s6.5,11.44,6.76,11.83S92.94,115.37,89.64,123Z" transform="translate(-12.29 -24.34)"/><path class="cls-6" d="M88,126.23a23.54,23.54,0,0,1-19.09,6.94c-12.68-1.17-16.38-5.66-16.77-13.85s1.56-12.09,3.7-14,13.07-5.85,16.58-10.53c0,0,6.63,7.8,11.89,9.56s7,9.36,6.63,12.48c0,.25,0,.34.2.32A63.16,63.16,0,0,0,90.78,100C90.52,99.61,84,88.17,84,88.17L51.78,90.25l-6.63,8.06s-3.08,24.46-.74,27.06,6.39,9.56,21,10.23C78,136.19,84.36,132.21,88,126.23Z" transform="translate(-12.29 -24.34)"/><path class="cls-11" d="M58.5,109s-2.63.52-4-.46a3.16,3.16,0,0,0,3.17,1.59Z" transform="translate(-12.29 -24.34)"/><path class="cls-11" d="M57.19,111.34s-2.66.35-4-.72a3.14,3.14,0,0,0,3.06,1.79Z" transform="translate(-12.29 -24.34)"/><path class="cls-11" d="M57.07,113.2s-2.52.91-4,.15a3.15,3.15,0,0,0,3.38,1.09Z" transform="translate(-12.29 -24.34)"/><path class="cls-11" d="M82.48,108.29s2.68,0,3.86-1.16a3.15,3.15,0,0,1-2.84,2.12Z" transform="translate(-12.29 -24.34)"/><path class="cls-11" d="M84.18,110.38s2.68-.13,3.79-1.41a3.17,3.17,0,0,1-2.7,2.3Z" transform="translate(-12.29 -24.34)"/><path class="cls-11" d="M84.63,112.18s2.64.46,4-.56a3.17,3.17,0,0,1-3.14,1.67Z" transform="translate(-12.29 -24.34)"/><path class="cls-7" d="M80.62,107.91c-4.49.51-5.68,7.17-2.08,10s7.94-1.51,7.43-5.73S82.47,107.71,80.62,107.91Z" transform="translate(-12.29 -24.34)"/><path class="cls-7" d="M60.67,108c-5.31.53-6.28,4.72-3.8,9.25s8.8,2.33,10-1.84A5.77,5.77,0,0,0,60.67,108Z" transform="translate(-12.29 -24.34)"/><path class="cls-11" d="M64,113.52a2.55,2.55,0,1,1-2.68-2.4A2.55,2.55,0,0,1,64,113.52Z" transform="translate(-12.29 -24.34)"/><path class="cls-7" d="M61.65,112.79a1.09,1.09,0,1,1-1.14-1A1.09,1.09,0,0,1,61.65,112.79Z" transform="translate(-12.29 -24.34)"/><path class="cls-7" d="M63.08,115a.49.49,0,1,1-1,.06.5.5,0,0,1,.46-.52A.49.49,0,0,1,63.08,115Z" transform="translate(-12.29 -24.34)"/><path class="cls-11" d="M83,112.84a2.11,2.11,0,1,1-2.22-2A2.11,2.11,0,0,1,83,112.84Z" transform="translate(-12.29 -24.34)"/><path class="cls-7" d="M81.09,112.22a.9.9,0,1,1-.94-.85A.9.9,0,0,1,81.09,112.22Z" transform="translate(-12.29 -24.34)"/><path class="cls-7" d="M82.28,114.09a.4.4,0,1,1-.8,0,.39.39,0,0,1,.38-.42A.4.4,0,0,1,82.28,114.09Z" transform="translate(-12.29 -24.34)"/><path class="cls-11" d="M59.7,104.58c-.3-.59-4.25-.35-4.41,2.4-.11,1.75,1.66-.68,2.58-.87S60.07,105.29,59.7,104.58Z" transform="translate(-12.29 -24.34)"/><path class="cls-11" d="M80,103.82c.18-.64,4.11-1.14,4.78,1.52.44,1.7-1.75-.35-2.7-.36S79.77,104.59,80,103.82Z" transform="translate(-12.29 -24.34)"/><path class="cls-13" d="M69.7,125c.18-.92,2.43,1,4.27.17s.54,2.65-1.52,3S69.39,126.62,69.7,125Z" transform="translate(-12.29 -24.34)"/><path class="cls-6" d="M70.8,116.18c1.34-1.2,5,1.69,4,3.51s-4.15.88-4.48-.13A4.58,4.58,0,0,1,70.8,116.18Z" transform="translate(-12.29 -24.34)"/><path class="cls-14" d="M81.76,120.28c-2.57,1.62.94,7.21,3.44,4.21S85.39,118,81.76,120.28Z" transform="translate(-12.29 -24.34)"/><path class="cls-14" d="M62.3,123.82c.62-3-5.83-4.33-5.41-.46S61.42,128,62.3,123.82Z" transform="translate(-12.29 -24.34)"/><path class="cls-11" d="M72.38,91.84s-5.55,7.72-19,12.07c-7,2.25-7.1,21.7-4.36,25.14,1.58,2-5,4.35-8.11-5.35s-7.13-25.13.39-34,28.5-17.81,45.13-5.94,7.39,35.45,4.15,36.82c-2.5,1,4-10.86-2.37-15.44C80.49,99.56,75.74,95.6,72.38,91.84Z" transform="translate(-12.29 -24.34)"/><path class="cls-4" d="M87.12,137.69a22.59,22.59,0,0,1,3.55-.88c.71-.11,3.69-5.14,5.53-6.55,1.16-.9.5-2,.56-3.86s-.12-3.88,1.34-4.13.84.82,1,2.07a11.74,11.74,0,0,0,.24,1.16s1.26-4.33,2.9-4.22-.58,3.28-.58,3.28,2.18-2.87,3.21-2.07-1.89,3.68-1.89,3.68,2.66-2.62,3.34-1.57-2.33,3.14-2.33,3.14,2.4-1.51,2.78-.6-3.11,5-6,5.15c0,0-2.63,7.13-6.72,9.57s-6.9,2.23-6.9,2.23Z" transform="translate(-12.29 -24.34)"/><path class="cls-6" d="M93.73,139.83c-1.82,1.43-5.84,1.43-5.84,1.43l-.75,2.57v.26s2.81.2,6.9-2.23,6.72-9.57,6.72-9.57c2.93-.19,6.43-4.23,6-5.15-2.65,2.79-6.06,3.85-7,4.63S95.55,138.4,93.73,139.83Z" transform="translate(-12.29 -24.34)"/><path class="cls-6" d="M62.6,134.45a6.7,6.7,0,0,1,.58,2.89c-.19,1.09,7,2.19,7,2.19L73,137.77s1-2.43.9-3.09S62.6,134.45,62.6,134.45Z" transform="translate(-12.29 -24.34)"/><path class="cls-7" d="M73.31,136.07s11.18,1.14,14.54.66c2.33-.33,1.54,6.57,1.08,7.83S81,146,76.8,144.55,73.31,136.07,73.31,136.07Z" transform="translate(-12.29 -24.34)"/><path class="cls-7" d="M64.49,136.28a23.43,23.43,0,0,0-10.67,3.17c-5.7,3.21-5.55,11.12-5.58,11.9s7.77,1.05,8.54.3-.33-5.67,2.35-7S64.25,137,64.49,136.28Z" transform="translate(-12.29 -24.34)"/><path class="cls-4" d="M73.27,180.88s2.29,14.49,2.73,16.21,6.51,3.42,6.51,3.42L85,198.45l-.19-.53a5.38,5.38,0,0,1-2.47-1.84c-.8-1.26-.27-16.33-.27-16.33Z" transform="translate(-12.29 -24.34)"/><path class="cls-6" d="M77.64,191.88c-3.37-6.36.79-10.6.79-10.6l-.61-1-4.55.59s1.48,9.37,2.29,13.93C77.59,195.51,79.59,195.58,77.64,191.88Z" transform="translate(-12.29 -24.34)"/><path class="cls-4" d="M64.82,181.11s-4,12.53-4.17,13.7A3.14,3.14,0,0,0,62,197.68c.83.52-2.09,2.56-2.09,2.56l-6.27-4.8-.38-1.18,1-1a12.6,12.6,0,0,0,1.3-3.46c0-1.07.66-9.83.66-9.83Z" transform="translate(-12.29 -24.34)"/><path class="cls-6" d="M62.29,180.76l-6.08-.84s-.62,8.76-.66,9.83a4,4,0,0,1-.25,1.08l2.39,1.24s.31-2.82.64-6.22,4-5,4-5Z" transform="translate(-12.29 -24.34)"/><path class="cls-8" d="M55.11,163.08s-5.24,11.13-10.18,13.69A11.89,11.89,0,0,0,54.31,180c3.6-.46,6.24,2.76,12.79,2.4s10.06,2.11,13.33-.9,6.95.24,11.08-3.13c0,0-9.23-7.73-10.07-13.81Z" transform="translate(-12.29 -24.34)"/><path class="cls-7" d="M62,197.68a3.14,3.14,0,0,1-1.38-2.87c.06-.42.6-2.29,1.29-4.52a16.2,16.2,0,0,1-6.32-1.79c0,.61-.06,1.06-.07,1.25a12.6,12.6,0,0,1-1.3,3.46l-1,1,.38,1.18,6.27,4.8S62.86,198.2,62,197.68Z" transform="translate(-12.29 -24.34)"/><path class="cls-7" d="M82.31,196.08c-.31-.5-.42-3.12-.44-6.13a13.74,13.74,0,0,1-7,.74c.5,3,1,5.72,1.14,6.4.45,1.71,6.51,3.42,6.51,3.42L85,198.45l-.19-.53A5.38,5.38,0,0,1,82.31,196.08Z" transform="translate(-12.29 -24.34)"/><path class="cls-3" d="M54.25,193.21A4.32,4.32,0,0,0,56.83,197c2.66,1.34,3.53.75,4.4.15s4.46.78,4.81,2.75-2.29,2.74-7.12,2.58-7.53-5.12-7.67-6.07S53.06,193.24,54.25,193.21Z" transform="translate(-12.29 -24.34)"/><path class="cls-5" d="M51.72,195.23a9.78,9.78,0,0,0,5,6.05c4,1.94,8.55,0,9.33-.53a1.15,1.15,0,0,1-.56,1.54,11.84,11.84,0,0,1-9.16.23c-4.18-1.63-5.31-5.43-5.64-5.83S51.22,195.06,51.72,195.23Z" transform="translate(-12.29 -24.34)"/><path class="cls-3" d="M76,197.09a26.7,26.7,0,0,0,4.19,1.48c2.89.83,3.62.09,4.34-.66s4.54,0,5.3,1.82-1.66,3.11-6.42,3.83-9.32-1.9-9.65-2.8S74.85,197.34,76,197.09Z" transform="translate(-12.29 -24.34)"/><path class="cls-5" d="M74,199.54a21.12,21.12,0,0,0,7,3.28c4.33,1.17,8.38-1.58,9-2.24a1.15,1.15,0,0,1-.22,1.62,11.71,11.71,0,0,1-8.92,1.91,19.73,19.73,0,0,1-7.62-3C72.82,200.82,73.43,199.46,74,199.54Z" transform="translate(-12.29 -24.34)"/><path class="cls-9" d="M87.66,179.94c-5.41-2.33-9.23,1.34-10.06.92s-7.38-3.09-10.82-1.26-9.88-1.12-9.7-6.38,8-6.16,8-6.16L63,163.53l-7.93-.45s-5.24,11.13-10.18,13.69A11.89,11.89,0,0,0,54.31,180c3.6-.46,6.24,2.76,12.79,2.4s10.06,2.11,13.33-.9c2.25-2.07,4.69-1.18,7.34-1.52Z" transform="translate(-12.29 -24.34)"/><path class="cls-7" d="M64.49,136.28s.76,2.18,5,2.52,3.61-2.73,3.61-2.73,6,.14,7.89,5.86,2.2,21.73,1.72,23.47c0,0-13.37,8.12-29.67-2.59,0,0,5.51-6.83,5.26-11.72S51,136.79,64.49,136.28Z" transform="translate(-12.29 -24.34)"/><path class="cls-8" d="M67.49,142.36s-3.08,15.8-3.55,17.15,5,6.9,6.19,7.14,4.92-4.9,5.26-5.57S70,142,70,142Z" transform="translate(-12.29 -24.34)"/><path class="cls-9" d="M65.91,142.21s2,1.53,3.33,1.39,2.83-2.34,2.83-2.34L70.25,139s-.2-.4-1.79-.06S65.12,140.82,65.91,142.21Z" transform="translate(-12.29 -24.34)"/><path class="cls-9" d="M73.82,154.65l-8.32,7.79a28.26,28.26,0,0,0,2,2.2l7.08-7.12C74.39,156.66,74.11,155.68,73.82,154.65Z" transform="translate(-12.29 -24.34)"/><path class="cls-9" d="M72.14,148.9l-7.37,7c-.39,1.86-.7,3.26-.83,3.63a.84.84,0,0,0,0,.44l8.92-8.55Z" transform="translate(-12.29 -24.34)"/><path class="cls-10" d="M63.75,135.67c-2.11.08-1.79.28-2.3,1.53s2.16,4.84,3.68,5.6,3.21-3.4,3.85-3.8S64.6,135.64,63.75,135.67Z" transform="translate(-12.29 -24.34)"/><path class="cls-10" d="M72.84,135.94c1.68,0,1.43.15,1.9,1.12s-1.45,3.92-2.61,4.57-2.73-2.56-3.25-2.85S72.16,136,72.84,135.94Z" transform="translate(-12.29 -24.34)"/><ellipse class="cls-1" cx="138.1" cy="187.2" rx="33.18" ry="10.46"/><path class="cls-4" d="M146.15,192.1s-2.27,14.32-2.71,16-6.43,3.37-6.43,3.37l-2.43-2,.19-.53a5.31,5.31,0,0,0,2.44-1.81c.79-1.25.28-16.15.28-16.15Z" transform="translate(-12.29 -24.34)"/><path class="cls-6" d="M141.83,203c3.33-6.28-.78-10.48-.78-10.48l.6-1,4.5.59s-1.47,9.26-2.27,13.77C141.88,206.56,139.9,206.62,141.83,203Z" transform="translate(-12.29 -24.34)"/><path class="cls-7" d="M137.21,207.12c.31-.49.42-3.09.44-6.06a13.62,13.62,0,0,0,6.93.73c-.5,3-1,5.65-1.14,6.33-.44,1.69-6.43,3.37-6.43,3.37l-2.43-2,.19-.53A5.31,5.31,0,0,0,137.21,207.12Z" transform="translate(-12.29 -24.34)"/><path class="cls-3" d="M143.44,208.12a26.39,26.39,0,0,1-4.13,1.46c-2.87.82-3.58.08-4.29-.65s-4.49-.05-5.25,1.79,1.64,3.08,6.35,3.79,9.33-1.42,9.66-2.31S144.58,208.37,143.44,208.12Z" transform="translate(-12.29 -24.34)"/><path class="cls-5" d="M145.85,211.81a41.76,41.76,0,0,1-7.39,1.67c-5,.71-8.2-1.27-8.84-1.92a1.15,1.15,0,0,0,.21,1.61,11.55,11.55,0,0,0,8.82,1.88c4.39-.83,7-1.48,7.42-1.81S146.37,211.73,145.85,211.81Z" transform="translate(-12.29 -24.34)"/><path class="cls-11" d="M122.8,166.28s4.54-5.09,9.42-2.77,28-3.65,30.54-6.74,9.63-.59,13.36.9c0,0,3.22-5.52-.12-14.65a14.38,14.38,0,0,1,2.57,6.56,5.56,5.56,0,0,0,3-.39s-.38-9.76-4.24-13.23-3.08-12.59-3.08-16.32-20.95-8.86-20.95-8.86l-21.58,7.83-10.41,14.91S121.13,164.35,122.8,166.28Z" transform="translate(-12.29 -24.34)"/><path class="cls-4" d="M169.65,136.63s-2.13,11-23.2,11.28c-14.41.17-16.58-4.89-18.89-7.45s-.39-29.68-.39-29.68l6.56-8,31.86-2.06s6.42,11.31,6.68,11.7S173.38,132.14,169.65,136.63Z" transform="translate(-12.29 -24.34)"/><path class="cls-6" d="M169,138.29c-2.91,2.68-10.91,8.93-21.16,7.82-13-1.41-10.28-6.94-12.72-11.31s-4-6.68-3.21-9.12,2.95-7.58,3.08-10.15c0,0,21.16-4.11,32.12-2.06a6.48,6.48,0,0,1,4.75,4.5c.12.5.36.18.65-.6a37.1,37.1,0,0,0-.26-4.92c-.18-.28-3.55-6.19-5.43-9.5l-1.64-.78-27.35.37-.7,0-8.23,6.07-1.75,2.12s-1.92,27.11.39,29.68,4.48,7.62,18.89,7.45C162.37,147.71,167.48,141.37,169,138.29Z" transform="translate(-12.29 -24.34)"/><path class="cls-11" d="M138.74,122.21s-2.57.64-4-.26a3.14,3.14,0,0,0,3.22,1.42Z" transform="translate(-12.29 -24.34)"/><path class="cls-11" d="M137.56,124.6s-2.61.48-4-.51a3.13,3.13,0,0,0,3.11,1.62Z" transform="translate(-12.29 -24.34)"/><path class="cls-11" d="M137.53,126.44s-2.44,1-4,.35a3.11,3.11,0,0,0,3.39.91Z" transform="translate(-12.29 -24.34)"/><path class="cls-11" d="M162.37,120.35s2.65-.08,3.76-1.33a3.13,3.13,0,0,1-2.7,2.24Z" transform="translate(-12.29 -24.34)"/><path class="cls-11" d="M164.16,122.34s2.63-.26,3.67-1.58a3.13,3.13,0,0,1-2.56,2.41Z" transform="translate(-12.29 -24.34)"/><path class="cls-11" d="M164.68,124.1s2.63.32,3.92-.75a3.11,3.11,0,0,1-3,1.8Z" transform="translate(-12.29 -24.34)"/><path class="cls-7" d="M160.52,120.08c-4.41.71-5.26,7.35-1.56,10s7.76-1.88,7-6S162.34,119.78,160.52,120.08Z" transform="translate(-12.29 -24.34)"/><path class="cls-7" d="M140.83,121.18c-5.21.78-6,5-3.29,9.31s8.79,1.87,9.75-2.3A5.69,5.69,0,0,0,140.83,121.18Z" transform="translate(-12.29 -24.34)"/><path class="cls-11" d="M144.36,126.43a2.51,2.51,0,1,1-2.76-2.25A2.51,2.51,0,0,1,144.36,126.43Z" transform="translate(-12.29 -24.34)"/><path class="cls-7" d="M142,125.81a1.07,1.07,0,1,1-1.17-1A1.07,1.07,0,0,1,142,125.81Z" transform="translate(-12.29 -24.34)"/><path class="cls-7" d="M143.56,128a.49.49,0,0,1-.43.53.48.48,0,0,1-.53-.43.48.48,0,0,1,.43-.53A.5.5,0,0,1,143.56,128Z" transform="translate(-12.29 -24.34)"/><circle class="cls-11" cx="161.06" cy="125.03" r="2.09" transform="translate(-43.12 169.65) rotate(-57.59)"/><path class="cls-7" d="M161.2,124.31a.89.89,0,1,1-1.77.18.88.88,0,0,1,.79-1A.89.89,0,0,1,161.2,124.31Z" transform="translate(-12.29 -24.34)"/><path class="cls-7" d="M162.46,126.09a.39.39,0,0,1-.35.44.4.4,0,0,1-.44-.36.39.39,0,0,1,.35-.43A.39.39,0,0,1,162.46,126.09Z" transform="translate(-12.29 -24.34)"/><path class="cls-11" d="M139.71,117.81c-.33-.57-4.22-.14-4.24,2.58,0,1.74,1.6-.75,2.51-1S140.1,118.49,139.71,117.81Z" transform="translate(-12.29 -24.34)"/><path class="cls-11" d="M159.7,116.07c.16-.64,4-1.33,4.81,1.26.51,1.66-1.75-.26-2.69-.22S159.52,116.83,159.7,116.07Z" transform="translate(-12.29 -24.34)"/><path class="cls-13" d="M150.45,135.7c.08-1.14,3.09.8,5.21-.44s1.05,3.14-1.41,3.83S150.31,137.7,150.45,135.7Z" transform="translate(-12.29 -24.34)"/><path class="cls-6" d="M151.23,128.71c1.26-1.24,5.05,1.43,4.13,3.28s-4.05,1.06-4.43.08A4.6,4.6,0,0,1,151.23,128.71Z" transform="translate(-12.29 -24.34)"/><path class="cls-11" d="M145.29,91c-15.29-.73-21.07,10.15-21.07,10.15-3.47,1.28-6.81,6.42-8.74,14.77s1.41,16.71,1.67,20.05-2.7,3.72-4.75,8.22,1.15,5.91-.65,10.15-.89,5.78-.89,5.78a12.4,12.4,0,0,1,3.46-5.78c-4.88,8.61-1.67,13.49-1.67,13.49,2.19.77,6.43.64,6.43.64-2.06-3.85.64-9,.64-9a12.26,12.26,0,0,0,0,6.55s2.44.65,3.08.26,4.12-4.88,2.19-8.09.38-7.71,3.6-11.82,1.67-11.57,1.67-11.57c2.31,2.31,3,9.12,3,9.12,3.09-6.81-.38-10-2.83-15.67s2.57-5.78,2.45-11.44a13.22,13.22,0,0,1,3.08-9,11,11,0,0,0-.51,5.4,27.18,27.18,0,0,1,7.19-.77,36.78,36.78,0,0,0,1.67-7.46,51.49,51.49,0,0,1,1,7.33l6.55-.65a32.09,32.09,0,0,0-.26-5.52s1.8,3.08,1.67,5.4c0,0,8.48.12,9.9-.39a19.45,19.45,0,0,0,.38-4.62,12.66,12.66,0,0,1,1.67,4.62,24.6,24.6,0,0,1,3.22.39s-.26-1.29-.52-3.22c0,0,4.24,6.56,3.09,10.93s-1.8,6.42-.9,8.6-.44,8.77-.44,8.77,2.11-2.09,3.52-7.61S180.24,92.66,145.29,91Z" transform="translate(-12.29 -24.34)"/><path class="cls-14" d="M162.25,132.23c-2.45,1.73,1.28,7.07,3.6,4S165.72,129.79,162.25,132.23Z" transform="translate(-12.29 -24.34)"/><path class="cls-14" d="M143.21,136.68c.47-3-6-4-5.36-.19S142.55,140.87,143.21,136.68Z" transform="translate(-12.29 -24.34)"/><path class="cls-4" d="M134,152.23a21.75,21.75,0,0,0-3.59-.46c-.71,0-4.2-4.63-6.17-5.81-1.25-.75-.73-2-1-3.72s-.33-3.82-1.78-3.91-.74.9-.79,2.16a10.67,10.67,0,0,1-.11,1.16s-1.73-4.11-3.33-3.81,1,3.15,1,3.15-2.47-2.57-3.38-1.67,2.27,3.4,2.27,3.4-2.91-2.27-3.46-1.17,2.64,2.83,2.64,2.83-2.52-1.21-2.79-.27,3.62,4.51,6.51,4.37c0,0,3.4,6.7,7.69,8.63s7,1.4,7,1.4Z" transform="translate(-12.29 -24.34)"/><path class="cls-6" d="M130.42,151.77c-.71,0-4.2-4.63-6.17-5.81-1.25-.75-.73-2-1-3.72s-.33-3.82-1.78-3.91h0a18.23,18.23,0,0,1,1.17,5.47c-.1,2.22-.27,2.78,1.49,3.5s3.62,4.25,4.67,5.17a4.33,4.33,0,0,1,1.05,3.92c-.34.64-4.93-1.64-7.36-4a14.77,14.77,0,0,0,5.21,4.72c4.29,1.92,7,1.4,7,1.4l-.7-6.28A21.75,21.75,0,0,0,130.42,151.77Z" transform="translate(-12.29 -24.34)"/><path class="cls-7" d="M151.76,159.62s2.86-4.81-2.27-8.75-17.28-.13-18,.15-.76,7.72.14,8.28c1.57,1,8.24-2.15,10.52-.24S151,159.7,151.76,159.62Z" transform="translate(-12.29 -24.34)"/><path class="cls-4" d="M151.82,191.94s2.26,14.32,2.7,16,6.43,3.38,6.43,3.38l2.44-2-.19-.52a5.28,5.28,0,0,1-2.44-1.82c-.79-1.25-.28-16.14-.28-16.14Z" transform="translate(-12.29 -24.34)"/><path class="cls-6" d="M156.14,202.81c-3.33-6.28.78-10.48.78-10.48l-.6-1-4.5.58s1.46,9.26,2.26,13.77C156.09,206.4,158.07,206.47,156.14,202.81Z" transform="translate(-12.29 -24.34)"/><path class="cls-7" d="M160.76,207c-.31-.49-.42-3.08-.44-6.05a13.61,13.61,0,0,1-6.93.72c.49,3,1,5.65,1.13,6.33.44,1.69,6.43,3.38,6.43,3.38l2.44-2-.19-.52A5.28,5.28,0,0,1,160.76,207Z" transform="translate(-12.29 -24.34)"/><path class="cls-3" d="M154.52,208a26.33,26.33,0,0,0,4.14,1.46c2.86.83,3.57.09,4.29-.65s4.48,0,5.24,1.8-1.64,3.08-6.34,3.79-9.22-1.88-9.55-2.77S153.38,208.21,154.52,208Z" transform="translate(-12.29 -24.34)"/><path class="cls-5" d="M152.5,210.38a21,21,0,0,0,6.92,3.24c4.28,1.16,8.28-1.56,8.93-2.21a1.14,1.14,0,0,1-.22,1.6,11.48,11.48,0,0,1-8.81,1.88,19.56,19.56,0,0,1-7.54-2.91C151.38,211.65,152,210.3,152.5,210.38Z" transform="translate(-12.29 -24.34)"/><path class="cls-8" d="M138.07,171.5s-10,15.75-9.51,17.88,3.57,7.24,7.84,6.81,5.71,1.07,8.8,2.13,9-.21,11.88-2.34,7.61-.64,9.75-1.49-2.62-18.73-6.89-22.78S141.63,167.88,138.07,171.5Z" transform="translate(-12.29 -24.34)"/><path class="cls-9" d="M151.3,196.27c-5.78,1-7.32-2.7-11.69-2.7s-6-2.7-4.11-7.84,9-8,9-8l.61-8.82c-3.08.38-5.74,1.24-7,2.55,0,0-10,15.75-9.51,17.88s3.57,7.24,7.84,6.81,5.71,1.07,8.8,2.13,9-.21,11.88-2.34a5.54,5.54,0,0,1,1.89-.88C156.88,195.29,154.36,195.73,151.3,196.27Z" transform="translate(-12.29 -24.34)"/><path class="cls-4" d="M168.22,157.2s4.44,10.86,5.07,13,3.35,2.72,4.55,3.65-1.07,2.07-2.71,1.63c-.86-.24,1.47,3.67.56,4.25s-2.3-1.38-2.67-1.89.23,2.47-.54,2.71-1.29-1.48-1.33-2.3.09,2.18-.88,2-.62-2.81-.62-2.81-.22,2.4-1.26,2.14-.09-2.18-.23-2.93a4.91,4.91,0,0,1-.31-2.93c.4-1.29.48-1.71.13-2.31s-4.65-8.75-5.72-13.18Z" transform="translate(-12.29 -24.34)"/><path class="cls-6" d="M168.16,176.71c.14.75-.81,2.67.23,2.93h.11a4.21,4.21,0,0,1-.1-1.28c0-1.28.61-2.42.11-3.43s.84-1.72.78-2.81-.16-1.2-1.21-3.38A33.26,33.26,0,0,1,166.3,162l-3.64-3.1-.19.19c1.33,4.54,5.18,11.85,5.51,12.41s.27,1-.13,2.31A4.91,4.91,0,0,0,168.16,176.71Z" transform="translate(-12.29 -24.34)"/><path class="cls-7" d="M151.07,149a23.2,23.2,0,0,1,11,.67c6.21,1.82,7.84,9.46,8,10.2s-7.25,2.75-8.15,2.2-1-5.53-3.84-6.25S151.46,149.67,151.07,149Z" transform="translate(-12.29 -24.34)"/><path class="cls-6" d="M143.89,147a6.61,6.61,0,0,1,.57,2.86c-.19,1.07,6.92,2.16,6.92,2.16l2.82-1.74a10.81,10.81,0,0,0,.89-3.05C155,146.62,143.89,147,143.89,147Z" transform="translate(-12.29 -24.34)"/><path class="cls-7" d="M145.75,148.84s.76,2.15,4.92,2.49,3.56-2.7,3.56-2.7,5.92.14,7.81,5.79,2.17,21.48,1.69,23.2c0,0-13.21,8-29.32-2.56,0,0,5.45-6.75,5.2-11.58S132.39,149.34,145.75,148.84Z" transform="translate(-12.29 -24.34)"/><path class="cls-8" d="M148.72,154.85s-3,15.61-3.51,17,5,6.82,6.12,7.06,4.86-4.85,5.2-5.51-5.29-18.89-5.29-18.89Z" transform="translate(-12.29 -24.34)"/><path class="cls-9" d="M147.16,154.7s1.93,1.51,3.29,1.37,2.8-2.31,2.8-2.31l-1.8-2.28s-.2-.4-1.77-.07S146.38,153.32,147.16,154.7Z" transform="translate(-12.29 -24.34)"/><path class="cls-9" d="M155,167l-8.22,7.69a27.6,27.6,0,0,0,2,2.18l7-7C155.54,169,155.27,168,155,167Z" transform="translate(-12.29 -24.34)"/><path class="cls-9" d="M153.32,161.31l-7.28,6.9c-.39,1.84-.7,3.23-.83,3.59a.81.81,0,0,0,0,.43l8.82-8.44Z" transform="translate(-12.29 -24.34)"/><path class="cls-10" d="M145,148.24c-2.09.08-1.77.28-2.27,1.51s2.13,4.78,3.64,5.53,3.17-3.36,3.8-3.75S145.87,148.21,145,148.24Z" transform="translate(-12.29 -24.34)"/><path class="cls-10" d="M154,148.5c1.66,0,1.41.15,1.88,1.11s-1.43,3.87-2.58,4.52-2.7-2.54-3.22-2.82S153.34,148.51,154,148.5Z" transform="translate(-12.29 -24.34)"/></svg>