<svg id="Layer_1" data-name="Layer 1" xmlns="http://www.w3.org/2000/svg" xmlns:xlink="http://www.w3.org/1999/xlink" viewBox="0 0 200 250"><defs><style>.cls-1{fill:none;}.cls-2{fill:#5fbd97;}.cls-3{fill:#fff;}.cls-4{fill:#f6b344;}.cls-5{fill:#ed6245;}.cls-6{fill:#bc8639;}.cls-7{fill:#403833;}.cls-8{fill:#213228;}.cls-9{clip-path:url(#clip-path);}</style><clipPath id="clip-path"><path class="cls-1" d="M131.81,99.34c0,42.09-15.21,76.2-34,76.2s-34-34.11-34-76.2,27.39-76.2,34-76.2S131.81,57.26,131.81,99.34Z"/></clipPath></defs><title>join</title><rect class="cls-2" width="200" height="250"/><path class="cls-3" d="M57.91,43.83A10.24,10.24,0,0,0,50.27,27a10,10,0,0,0-7.58,3.51A10,10,0,0,0,23,31.65a10,10,0,0,0-6.51-2.43,10.13,10.13,0,0,0-10,10.21,10.25,10.25,0,0,0,5.36,9,10.38,10.38,0,0,0-1.28,5,10.12,10.12,0,0,0,10,10.21,9.88,9.88,0,0,0,6.58-2.5,10,10,0,0,0,19.12-.86A9.91,9.91,0,0,0,53.05,63a10.13,10.13,0,0,0,10-10.21A10.26,10.26,0,0,0,57.91,43.83Z"/><path class="cls-3" d="M189.11,91a7.75,7.75,0,0,0,1.8-5,7.63,7.63,0,0,0-7.56-7.69,7.5,7.5,0,0,0-5.7,2.65,7.53,7.53,0,0,0-14.8.85A7.47,7.47,0,0,0,158,80a7.62,7.62,0,0,0-7.55,7.69,7.7,7.7,0,0,0,4,6.8,7.79,7.79,0,0,0-1,3.76A7.63,7.63,0,0,0,161,106a7.41,7.41,0,0,0,4.95-1.89,7.52,7.52,0,0,0,14.39-.64,7.45,7.45,0,0,0,5.08,2A7.62,7.62,0,0,0,193,97.75,7.7,7.7,0,0,0,189.11,91Z"/><path class="cls-3" d="M67.47,190.52a7.77,7.77,0,0,0,1.8-5,7.62,7.62,0,0,0-7.56-7.69,7.49,7.49,0,0,0-5.7,2.64,7.53,7.53,0,0,0-14.8.86,7.47,7.47,0,0,0-4.9-1.83A7.71,7.71,0,0,0,32.79,194a7.73,7.73,0,0,0-1,3.76,7.63,7.63,0,0,0,7.56,7.69,7.45,7.45,0,0,0,4.95-1.88,7.52,7.52,0,0,0,14.39-.65,7.41,7.41,0,0,0,5.08,2,7.62,7.62,0,0,0,7.56-7.68A7.7,7.7,0,0,0,67.47,190.52Z"/><path class="cls-4" d="M114.27,190.64c0,7.76-6.81,39-15.22,39s-15.22-31.25-15.22-39,6.81-14,15.22-14S114.27,182.88,114.27,190.64Z"/><path class="cls-5" d="M110.22,186.9c0,5.69-5,28.62-11.17,28.62S87.88,192.59,87.88,186.9s5-10.31,11.17-10.31S110.22,181.21,110.22,186.9Z"/><path class="cls-3" d="M106.85,183.64c0,4-3.49,20-7.8,20s-7.8-16-7.8-20,3.49-7.2,7.8-7.2S106.85,179.67,106.85,183.64Z"/><path class="cls-4" d="M67.22,120c-31.71,0-36.76,51.88-29.82,55.59S56.39,142.85,76,155C86.52,161.59,76.42,120,67.22,120Z"/><path class="cls-4" d="M129.07,120c31.72,0,36.77,51.88,29.83,55.59s-19-32.69-38.56-20.52C109.78,161.59,119.88,120,129.07,120Z"/><path class="cls-5" d="M131.81,99.34c0,42.09-15.21,76.2-34,76.2s-34-34.11-34-76.2,27.39-76.2,34-76.2S131.81,57.26,131.81,99.34Z"/><polygon class="cls-6" points="114.28 188.92 83.6 188.92 87.43 167.74 110.99 167.74 114.28 188.92"/><path class="cls-7" d="M112.36,71.48A15.32,15.32,0,1,1,97,55.89,15.46,15.46,0,0,1,112.36,71.48Z"/><path class="cls-3" d="M97,89a17.54,17.54,0,1,1,17.24-17.54A17.42,17.42,0,0,1,97,89Zm0-31.18a13.64,13.64,0,1,0,13.41,13.64A13.54,13.54,0,0,0,97,57.84Z"/><path class="cls-8" d="M109,110.69A11.16,11.16,0,1,1,97.84,99.34,11.26,11.26,0,0,1,109,110.69Z"/><path class="cls-7" d="M97.84,124a13.3,13.3,0,1,1,13.07-13.3A13.2,13.2,0,0,1,97.84,124Zm0-22.7a9.4,9.4,0,1,0,9.24,9.4A9.34,9.34,0,0,0,97.84,101.29Z"/><g class="cls-9"><path class="cls-4" d="M159.74,167.73c0,21.39-27.22,38.73-60.8,38.73s-60.81-17.34-60.81-38.73S46.62,129,98.94,129,159.74,146.34,159.74,167.73Z"/><path class="cls-4" d="M158.65,31.18c0,6.17-27.23,11.17-60.81,11.17S37,37.35,37,31.18,45.52,20,97.84,20,158.65,25,158.65,31.18Z"/></g><path class="cls-5" d="M90.92,144c-.06-1.9,15.41-2.71,15.16,0s-3.32,38.62-7.58,38.62S91,145.92,90.92,144Z"/></svg>