<svg xmlns="http://www.w3.org/2000/svg" viewBox="0 0 1920 1080.05"><defs><style>.cls-1{isolation:isolate;}.cls-2{fill:#071621;}.cls-3{fill:#fff;}.cls-3,.cls-4,.cls-8{fill-rule:evenodd;}.cls-4,.cls-5{fill:#d9d9d9;}.cls-6{opacity:0.3;}.cls-7{fill:#ededed;}.cls-8{opacity:0.2;mix-blend-mode:multiply;}</style></defs><title>bgplaydictionary</title><g class="cls-1"><g id="Layer_1" data-name="Layer 1"><rect class="cls-2" y="0.07" width="1920" height="1079.98"/><path class="cls-3" d="M481.41,461s0-.09,0-.14l-.17,0Z" transform="translate(0 0.05)"/><path class="cls-4" d="M551.13,354.43c0,2-2,3.62-4.53,3.62s-4.52-1.62-4.52-3.62,2-3.61,4.52-3.61S551.13,352.44,551.13,354.43Z" transform="translate(0 0.05)"/><path class="cls-4" d="M647.14,344.71c0,2-2,3.56-4.46,3.56s-4.46-1.59-4.46-3.56,2-3.56,4.46-3.56S647.14,342.75,647.14,344.71Z" transform="translate(0 0.05)"/><path class="cls-4" d="M729.42,397.83c0,2.23-2.27,4-5.06,4s-5.06-1.81-5.06-4,2.26-4.05,5.06-4.05S729.42,395.59,729.42,397.83Z" transform="translate(0 0.05)"/><path class="cls-4" d="M556,512.69c0,2.08-2.11,3.76-4.71,3.76s-4.71-1.68-4.71-3.76,2.11-3.77,4.71-3.77S556,510.61,556,512.69Z" transform="translate(0 0.05)"/><path class="cls-4" d="M226.23,545c0,1.4-1.42,2.54-3.18,2.54s-3.17-1.14-3.17-2.54,1.42-2.54,3.17-2.54S226.23,543.57,226.23,545Z" transform="translate(0 0.05)"/><path class="cls-4" d="M396.36,582.19c0,2.42-2.45,4.39-5.48,4.39s-5.49-2-5.49-4.39,2.46-4.38,5.49-4.38S396.36,579.77,396.36,582.19Z" transform="translate(0 0.05)"/><path class="cls-4" d="M419.92,605.37c0,1.53-1.55,2.77-3.46,2.77S413,606.9,413,605.37s1.55-2.76,3.46-2.76S419.92,603.85,419.92,605.37Z" transform="translate(0 0.05)"/><ellipse class="cls-5" cx="194.02" cy="641.69" rx="4.58" ry="3.66"/><path class="cls-4" d="M665.6,692.87c0,1.42-1.44,2.57-3.22,2.57s-3.22-1.15-3.22-2.57,1.44-2.58,3.22-2.58S665.6,691.44,665.6,692.87Z" transform="translate(0 0.05)"/><path class="cls-4" d="M854.39,622c0,2.51-2.55,4.55-5.69,4.55s-5.69-2-5.69-4.55,2.54-4.55,5.69-4.55S854.39,619.49,854.39,622Z" transform="translate(0 0.05)"/><path class="cls-4" d="M887.36,341.85c0,1.39-1.41,2.52-3.15,2.52s-3.14-1.13-3.14-2.52,1.4-2.52,3.14-2.52S887.36,340.46,887.36,341.85Z" transform="translate(0 0.05)"/><path class="cls-4" d="M983.59,296.56c0,1.39-1.41,2.51-3.14,2.51s-3.15-1.12-3.15-2.51,1.41-2.51,3.15-2.51S983.59,295.17,983.59,296.56Z" transform="translate(0 0.05)"/><path class="cls-4" d="M905.22,317.76a2.2,2.2,0,1,1-2.15-1.72A2,2,0,0,1,905.22,317.76Z" transform="translate(0 0.05)"/><path class="cls-4" d="M1077.59,459.32c0,1.61-1.63,2.91-3.64,2.91s-3.64-1.3-3.64-2.91,1.63-2.91,3.64-2.91S1077.59,457.71,1077.59,459.32Z" transform="translate(0 0.05)"/><path class="cls-4" d="M491.52,841.74c0,1.37-1.39,2.48-3.1,2.48s-3.11-1.11-3.11-2.48,1.39-2.48,3.11-2.48S491.52,840.37,491.52,841.74Z" transform="translate(0 0.05)"/><path class="cls-4" d="M838,739.09a2.89,2.89,0,1,1-2.82-2.25A2.58,2.58,0,0,1,838,739.09Z" transform="translate(0 0.05)"/><path class="cls-4" d="M871.68,474.69c0,2-2.06,3.69-4.61,3.69s-4.62-1.65-4.62-3.69,2.07-3.69,4.62-3.69S871.68,472.65,871.68,474.69Z" transform="translate(0 0.05)"/><g class="cls-6"><path class="cls-7" d="M293.86,121.11c8.18,0,8.6-7.06.42-7.06s-8.6,7.06-.42,7.06Z" transform="translate(0 0.05)"/><path class="cls-7" d="M516.86,70.64c10.07,0,10.53-8.7.46-8.7s-10.52,8.7-.46,8.7Z" transform="translate(0 0.05)"/><path class="cls-7" d="M548.62,158.87c8.13,0,8.08-7,0-7s-8.07,7,0,7Z" transform="translate(0 0.05)"/><path class="cls-7" d="M680,154.74c4.83,0,3.79-4.13-1-4.13s-3.79,4.13,1,4.13Z" transform="translate(0 0.05)"/><path class="cls-7" d="M767.31,151.2c9.14,0,8-7.85-1.06-7.85s-8,7.85,1.06,7.85Z" transform="translate(0 0.05)"/><path class="cls-7" d="M905.57,148.38c8.86,0,7.54-7.61-1.22-7.61s-7.55,7.61,1.22,7.61Z" transform="translate(0 0.05)"/><path class="cls-7" d="M921.4,106.52c5.63,0,6.75-4.88,1.05-4.88s-6.75,4.88-1.05,4.88Z" transform="translate(0 0.05)"/><path class="cls-7" d="M1169.59,74.43c9.51,0,8.62-8.18-.81-8.18s-8.62,8.18.81,8.18Z" transform="translate(0 0.05)"/><path class="cls-7" d="M1218,148.88c10,0,9.4-8.61-.56-8.61s-9.4,8.61.56,8.61Z" transform="translate(0 0.05)"/><path class="cls-7" d="M1367.33,124.82c10.46,0,11.86-9.08,1.28-9.08s-11.86,9.08-1.28,9.08Z" transform="translate(0 0.05)"/><path class="cls-7" d="M1462,213.69c10,0,11-8.66,1-8.66s-11,8.66-1,8.66Z" transform="translate(0 0.05)"/><path class="cls-7" d="M1593.93,149.22c10.81,0,9.68-9.29-1-9.29s-9.68,9.29,1,9.29Z" transform="translate(0 0.05)"/><path class="cls-7" d="M1755.75,122.9c6.08,0,6.24-5.24.16-5.24s-6.24,5.24-.16,5.24Z" transform="translate(0 0.05)"/><path class="cls-7" d="M1705.36,244.12c5.51,0,4.57-4.73-.87-4.73s-4.57,4.73.87,4.73Z" transform="translate(0 0.05)"/><path class="cls-7" d="M1797.5,288.49c5.12,0,4.14-4.39-.92-4.39s-4.14,4.39.92,4.39Z" transform="translate(0 0.05)"/><path class="cls-7" d="M267.14,233c10.93,0,11.49-9.44.53-9.44s-11.49,9.44-.53,9.44Z" transform="translate(0 0.05)"/><path class="cls-7" d="M158.53,163.26c8.92,0,8.46-7.68-.43-7.68s-8.46,7.68.43,7.68Z" transform="translate(0 0.05)"/><path class="cls-7" d="M151.2,300.79c5.44,0,5.11-4.69-.31-4.69s-5.11,4.69.31,4.69Z" transform="translate(0 0.05)"/><path class="cls-7" d="M264,312.32c10.19,0,12.36-8.86,2-8.86-10.18,0-12.36,8.86-2,8.86Z" transform="translate(0 0.05)"/><path class="cls-7" d="M129.52,371c5.5,0,4.88-4.72-.59-4.72s-4.87,4.72.59,4.72Z" transform="translate(0 0.05)"/><path class="cls-7" d="M105,454.33c7.8,0,7.71-6.73-.07-6.73s-7.7,6.73.07,6.73Z" transform="translate(0 0.05)"/><path class="cls-7" d="M143.3,534.11c5,0,6-4.33.95-4.33s-6,4.33-.95,4.33Z" transform="translate(0 0.05)"/><path class="cls-7" d="M208.33,568.73c10.14,0,12-8.78,1.79-8.78s-12,8.78-1.79,8.78Z" transform="translate(0 0.05)"/><path class="cls-7" d="M138.45,665.77c6.69,0,7.7-5.8,1-5.8s-7.7,5.8-1,5.8Z" transform="translate(0 0.05)"/><path class="cls-7" d="M131.73,779.68c4.83,0,4.66-4.16-.15-4.16s-4.66,4.16.15,4.16Z" transform="translate(0 0.05)"/><path class="cls-7" d="M176.07,815.52c9.73,0,8-8.35-1.57-8.35s-8,8.35,1.57,8.35Z" transform="translate(0 0.05)"/><path class="cls-7" d="M100.71,870.23c8.27,0,7-7.1-1.14-7.1s-7,7.1,1.14,7.1Z" transform="translate(0 0.05)"/><path class="cls-7" d="M250.26,902.56c5,0,5.32-4.27.35-4.27s-5.32,4.27-.35,4.27Z" transform="translate(0 0.05)"/><path class="cls-7" d="M179.89,962.13c5.35,0,5.87-4.63.49-4.63s-5.87,4.63-.49,4.63Z" transform="translate(0 0.05)"/><path class="cls-7" d="M87.51,1012.28c5.81,0,6.91-5,1-5s-6.91,5-1,5Z" transform="translate(0 0.05)"/><path class="cls-7" d="M264.72,1041.26c10.45,0,11-9,.53-9s-11,9-.53,9Z" transform="translate(0 0.05)"/><path class="cls-7" d="M386.65,920c4.78,0,3.8-4.1-.92-4.1s-3.8,4.1.92,4.1Z" transform="translate(0 0.05)"/><path class="cls-7" d="M488.5,969c5.74,0,4.66-4.91-1-4.91s-4.65,4.91,1,4.91Z" transform="translate(0 0.05)"/><path class="cls-7" d="M652.58,929.26c10.52,0,11-9.08.53-9.08s-11.05,9.08-.53,9.08Z" transform="translate(0 0.05)"/><path class="cls-7" d="M768.41,971c10.2,0,11.87-8.84,1.59-8.84S758.13,971,768.41,971Z" transform="translate(0 0.05)"/><path class="cls-7" d="M923.56,946.2c9.09,0,10.73-7.87,1.57-7.87s-10.72,7.87-1.57,7.87Z" transform="translate(0 0.05)"/><path class="cls-7" d="M1062.22,992.54c10.14,0,10.79-8.76.61-8.76s-10.79,8.76-.61,8.76Z" transform="translate(0 0.05)"/><path class="cls-7" d="M1142.93,923.89c7.47,0,6.6-6.43-.82-6.43s-6.6,6.43.82,6.43Z" transform="translate(0 0.05)"/><path class="cls-7" d="M1315.06,966.16c5.35,0,4.44-4.59-.84-4.59s-4.45,4.59.84,4.59Z" transform="translate(0 0.05)"/><path class="cls-7" d="M1447.43,1002c7,0,8.09-6,1.07-6s-8.09,6-1.07,6Z" transform="translate(0 0.05)"/><path class="cls-7" d="M1492.12,1046.25c6.39,0,5.3-5.5-1-5.5s-5.3,5.5,1,5.5Z" transform="translate(0 0.05)"/><path class="cls-7" d="M1648.91,1028.89c6.8,0,7.34-5.88.52-5.88s-7.34,5.88-.52,5.88Z" transform="translate(0 0.05)"/><path class="cls-7" d="M1793.75,957.72c10.74,0,12.58-9.31,1.74-9.31s-12.59,9.31-1.74,9.31Z" transform="translate(0 0.05)"/><path class="cls-7" d="M1657,879.9c5.65,0,4.52-4.84-1-4.84s-4.52,4.84,1,4.84Z" transform="translate(0 0.05)"/><path class="cls-7" d="M1784.88,833.23c6.93,0,7-6,.08-6s-7,6-.08,6Z" transform="translate(0 0.05)"/><path class="cls-7" d="M1765.9,763.25c10.56,0,9.74-9.09-.74-9.09s-9.75,9.09.74,9.09Z" transform="translate(0 0.05)"/><path class="cls-7" d="M1847.87,749.54c6.92,0,7.06-6,.16-6s-7.06,6-.16,6Z" transform="translate(0 0.05)"/><path class="cls-7" d="M1862.35,614.53c10,0,10.25-8.6.29-8.6s-10.25,8.6-.29,8.6Z" transform="translate(0 0.05)"/><path class="cls-7" d="M1770.83,573c7.66,0,6.67-6.58-.91-6.58s-6.67,6.58.91,6.58Z" transform="translate(0 0.05)"/><path class="cls-7" d="M1870.25,525.36c9.79,0,8.77-8.42-1-8.42s-8.77,8.42,1,8.42Z" transform="translate(0 0.05)"/><path class="cls-7" d="M1817,470c6.59,0,5.46-5.66-1-5.66s-5.45,5.66,1,5.66Z" transform="translate(0 0.05)"/><path class="cls-7" d="M59.48,584.61c6.36,0,5.17-5.45-1.11-5.45s-5.16,5.45,1.11,5.45Z" transform="translate(0 0.05)"/><path class="cls-7" d="M155.21,621.42c7.13,0,8.55-6.18,1.36-6.18s-8.55,6.18-1.36,6.18Z" transform="translate(0 0.05)"/><path class="cls-7" d="M40.26,730.52c9.81,0,8.25-8.42-1.45-8.42s-8.25,8.42,1.45,8.42Z" transform="translate(0 0.05)"/><path class="cls-7" d="M342.89,990.19c7.87,0,7.15-6.76-.68-6.76s-7.14,6.76.68,6.76Z" transform="translate(0 0.05)"/><path class="cls-7" d="M410,948.46c5,0,5.93-4.29.94-4.29s-5.93,4.29-.94,4.29Z" transform="translate(0 0.05)"/><path class="cls-7" d="M405.56,924c7.76,0,7.77-6.69,0-6.69s-7.77,6.69,0,6.69Z" transform="translate(0 0.05)"/><path class="cls-7" d="M437.26,918.4c10.39,0,10-8.95-.33-8.95s-10,8.95.33,8.95Z" transform="translate(0 0.05)"/><path class="cls-7" d="M950.45,941.26c7,0,8.22-6.08,1.13-6.08s-8.22,6.08-1.13,6.08Z" transform="translate(0 0.05)"/><path class="cls-7" d="M968.53,951.65c9.25,0,8.1-8-1.09-8s-8.1,8,1.09,8Z" transform="translate(0 0.05)"/><path class="cls-7" d="M1613.43,139.8c10.87,0,9.55-9.35-1.25-9.35s-9.55,9.35,1.25,9.35Z" transform="translate(0 0.05)"/><path class="cls-7" d="M1729.15,156.49c2.6,0,2.63-2.24,0-2.24s-2.64,2.24,0,2.24Z" transform="translate(0 0.05)"/><path class="cls-7" d="M1796.89,133.1c1.55,0,1.89-1.35.31-1.35s-1.89,1.35-.31,1.35Z" transform="translate(0 0.05)"/><path class="cls-7" d="M1804.44,171.28c2.47,0,2.19-2.12-.25-2.12s-2.19,2.12.25,2.12Z" transform="translate(0 0.05)"/><path class="cls-7" d="M1840.8,184.26c1.27,0,1-1.09-.25-1.09s-1,1.09.25,1.09Z" transform="translate(0 0.05)"/><path class="cls-7" d="M1622.74,121.32c2.44,0,1.93-2.09-.47-2.09s-1.94,2.09.47,2.09Z" transform="translate(0 0.05)"/><path class="cls-7" d="M1392.12,106.18c1.75,0,1.92-1.5.17-1.5s-1.91,1.5-.17,1.5Z" transform="translate(0 0.05)"/><path class="cls-7" d="M1416.7,95.73c2.56,0,2-2.19-.5-2.19s-2,2.19.5,2.19Z" transform="translate(0 0.05)"/><path class="cls-7" d="M1406.81,81.7c1.33,0,1.2-1.13-.11-1.13s-1.2,1.13.11,1.13Z" transform="translate(0 0.05)"/><path class="cls-7" d="M1433.43,79.19c1.74,0,1.73-1.51,0-1.51s-1.74,1.51,0,1.51Z" transform="translate(0 0.05)"/><path class="cls-7" d="M1462.31,72.71c2.36,0,2.79-2,.4-2s-2.79,2-.4,2Z" transform="translate(0 0.05)"/><path class="cls-7" d="M572.66,151c2.38,0,2.77-2.06.37-2.06s-2.76,2.06-.37,2.06Z" transform="translate(0 0.05)"/><path class="cls-7" d="M580.22,146.65c1.71,0,1.48-1.46-.2-1.46s-1.48,1.46.2,1.46Z" transform="translate(0 0.05)"/><path class="cls-7" d="M585,130.83c2.57,0,2.49-2.21-.08-2.21s-2.49,2.21.08,2.21Z" transform="translate(0 0.05)"/><path class="cls-7" d="M553.43,125.09c1.76,0,1.81-1.52.05-1.52s-1.81,1.52-.05,1.52Z" transform="translate(0 0.05)"/><path class="cls-7" d="M502.48,118.16c1.35,0,1.49-1.17.14-1.17s-1.5,1.17-.14,1.17Z" transform="translate(0 0.05)"/><path class="cls-7" d="M514.57,102.13c1.73,0,1.95-1.5.2-1.5s-1.95,1.5-.2,1.5Z" transform="translate(0 0.05)"/><path class="cls-7" d="M279.72,218.57c2.59,0,2.17-2.22-.39-2.22s-2.17,2.22.39,2.22Z" transform="translate(0 0.05)"/><path class="cls-7" d="M318.36,215.83c2.48,0,2.37-2.14-.1-2.14s-2.37,2.14.1,2.14Z" transform="translate(0 0.05)"/><path class="cls-7" d="M342.59,211.71c2.32,0,2.24-2-.07-2s-2.24,2,.07,2Z" transform="translate(0 0.05)"/><path class="cls-7" d="M190,800.83c3.8,0,3.48-3.27-.29-3.27s-3.49,3.27.29,3.27Z" transform="translate(0 0.05)"/><path class="cls-7" d="M190,785.49c2.66,0,2.29-2.28-.34-2.28s-2.29,2.28.34,2.28Z" transform="translate(0 0.05)"/><path class="cls-7" d="M190,774.33c5,0,4.69-4.26-.24-4.26s-4.68,4.26.24,4.26Z" transform="translate(0 0.05)"/><path class="cls-7" d="M207,762.92c3.53,0,3.19-3-.3-3s-3.19,3,.3,3Z" transform="translate(0 0.05)"/><path class="cls-7" d="M236.22,779c3.28,0,2.58-2.82-.65-2.82S233,779,236.22,779Z" transform="translate(0 0.05)"/><path class="cls-7" d="M168.08,955.87c3.38,0,3.24-2.91-.13-2.91s-3.24,2.91.13,2.91Z" transform="translate(0 0.05)"/><path class="cls-7" d="M146.45,949.35c3.92,0,3.4-3.37-.5-3.37s-3.4,3.37.5,3.37Z" transform="translate(0 0.05)"/><path class="cls-7" d="M119.57,940.56c5.43,0,5.33-4.68-.08-4.68s-5.33,4.68.08,4.68Z" transform="translate(0 0.05)"/><path class="cls-7" d="M1074.26,980.75c4.71,0,5.53-4.08.78-4.08s-5.54,4.08-.78,4.08Z" transform="translate(0 0.05)"/><path class="cls-7" d="M1106,970c4.8,0,5.07-4.15.26-4.15s-5.07,4.15-.26,4.15Z" transform="translate(0 0.05)"/><path class="cls-7" d="M1125.7,960.53c4.78,0,4.46-4.12-.29-4.12s-4.47,4.12.29,4.12Z" transform="translate(0 0.05)"/><path class="cls-7" d="M1103.59,937.7c5,0,5.34-4.36.29-4.36s-5.34,4.36-.29,4.36Z" transform="translate(0 0.05)"/><path class="cls-7" d="M1123.14,922c3.07,0,3-2.64,0-2.64s-3,2.64,0,2.64Z" transform="translate(0 0.05)"/><path class="cls-7" d="M1225.18,928.88c3.39,0,2.89-2.92-.47-2.92s-2.89,2.92.47,2.92Z" transform="translate(0 0.05)"/><path class="cls-7" d="M1270.76,938.37c3.44,0,4-3,.49-3s-4,3-.49,3Z" transform="translate(0 0.05)"/><path class="cls-7" d="M1295.08,944.65c2.38,0,2.73-2.07.33-2.07s-2.73,2.07-.33,2.07Z" transform="translate(0 0.05)"/><path class="cls-7" d="M723.47,19.21c3.52,0,2.82-3-.65-3s-2.82,3,.65,3Z" transform="translate(0 0.05)"/><path class="cls-7" d="M767.16,12.74c4.18,0,3.35-3.58-.76-3.58s-3.35,3.58.76,3.58Z" transform="translate(0 0.05)"/><path class="cls-7" d="M820.06,8.93c4.7,0,4.81-4.06.11-4.06s-4.82,4.06-.11,4.06Z" transform="translate(0 0.05)"/><path class="cls-7" d="M863.51,8.44c3.54,0,4-3.08.47-3.08s-4.05,3.08-.47,3.08Z" transform="translate(0 0.05)"/><path class="cls-7" d="M900.53,20c5.37,0,4.48-4.61-.84-4.61s-4.48,4.61.84,4.61Z" transform="translate(0 0.05)"/><path class="cls-7" d="M926.92,30.51c4.68,0,4.36-4-.29-4s-4.36,4,.29,4Z" transform="translate(0 0.05)"/><path class="cls-7" d="M958,25.54c2.53,0,3.05-2.19.49-2.19s-3,2.19-.49,2.19Z" transform="translate(0 0.05)"/><path class="cls-7" d="M980.1,17c4.59,0,4.59-4,0-4s-4.58,4,0,4Z" transform="translate(0 0.05)"/><path class="cls-7" d="M1001.55,8.94c4.72,0,5.51-4.08.75-4.08s-5.52,4.08-.75,4.08Z" transform="translate(0 0.05)"/><path class="cls-7" d="M1038.13,3.06c3.61,0,3.92-3.11.31-3.11s-3.92,3.11-.31,3.11Z" transform="translate(0 0.05)"/><path class="cls-7" d="M1138,53.72c5.29,0,4.67-4.55-.59-4.55s-4.67,4.55.59,4.55Z" transform="translate(0 0.05)"/><path class="cls-7" d="M1264,38.26c3.88,0,3.32-3.33-.52-3.33s-3.32,3.33.52,3.33Z" transform="translate(0 0.05)"/><path class="cls-7" d="M1515.44,33.42c5.13,0,6-4.45.8-4.45s-6,4.45-.8,4.45Z" transform="translate(0 0.05)"/><path class="cls-7" d="M1569.41,249.54c2.43,0,1.91-2.08-.48-2.08s-1.91,2.08.48,2.08Z" transform="translate(0 0.05)"/><path class="cls-7" d="M1588.69,258.85c5.23,0,5-4.5-.25-4.5s-5,4.5.25,4.5Z" transform="translate(0 0.05)"/><path class="cls-7" d="M1605.75,264.65c3,0,2.56-2.6-.43-2.6s-2.56,2.6.43,2.6Z" transform="translate(0 0.05)"/><path class="cls-7" d="M1637.13,255.5c3.71,0,3.53-3.19-.17-3.19s-3.52,3.19.17,3.19Z" transform="translate(0 0.05)"/><path class="cls-7" d="M1712.38,429.78c4.1,0,3.71-3.52-.37-3.52s-3.7,3.52.37,3.52Z" transform="translate(0 0.05)"/><path class="cls-7" d="M1745.67,424.9c5.24,0,6.24-4.56.93-4.56s-6.24,4.56-.93,4.56Z" transform="translate(0 0.05)"/><path class="cls-7" d="M1787,419.14c4.43,0,5.13-3.84.65-3.84s-5.13,3.84-.65,3.84Z" transform="translate(0 0.05)"/><path class="cls-7" d="M1782.61,404.26c4.38,0,4.12-3.77-.22-3.77s-4.13,3.77.22,3.77Z" transform="translate(0 0.05)"/><path class="cls-7" d="M150.93,149.07c4.17,0,4.4-3.6.23-3.6s-4.4,3.6-.23,3.6Z" transform="translate(0 0.05)"/><path class="cls-7" d="M134.34,139.91c4.86,0,4.28-4.17-.53-4.17s-4.28,4.17.53,4.17Z" transform="translate(0 0.05)"/><path class="cls-7" d="M112,134.24c4.18,0,4.82-3.62.6-3.62s-4.82,3.62-.6,3.62Z" transform="translate(0 0.05)"/><path class="cls-7" d="M76,142.51c4.63,0,4.38-4-.21-4s-4.38,4,.21,4Z" transform="translate(0 0.05)"/><path class="cls-7" d="M621.5,924.88c3.5,0,3.14-3-.34-3s-3.14,3,.34,3Z" transform="translate(0 0.05)"/><path class="cls-7" d="M1339.07,958.18c2.49,0,2.07-2.13-.38-2.13s-2.07,2.13.38,2.13Z" transform="translate(0 0.05)"/><path class="cls-7" d="M1377.74,946.12c2.68,0,2.5-2.3-.15-2.3s-2.5,2.3.15,2.3Z" transform="translate(0 0.05)"/><path class="cls-7" d="M497.83,1060.34c4.63,0,4.35-4-.26-4s-4.35,4,.26,4Z" transform="translate(0 0.05)"/><path class="cls-7" d="M534.25,1051.61c3.16,0,2.76-2.72-.38-2.72s-2.76,2.72.38,2.72Z" transform="translate(0 0.05)"/><path class="cls-7" d="M546,1063.34c5.31,0,5.68-4.59.34-4.59s-5.67,4.59-.34,4.59Z" transform="translate(0 0.05)"/><path class="cls-7" d="M575.57,1057.41c4.11,0,3.46-3.53-.59-3.53s-3.47,3.53.59,3.53Z" transform="translate(0 0.05)"/><path class="cls-7" d="M597.13,1064.78c2.41,0,2.32-2.07-.08-2.07s-2.32,2.07.08,2.07Z" transform="translate(0 0.05)"/><path class="cls-7" d="M585.05,1026.69c4.84,0,4.66-4.17-.16-4.17s-4.66,4.17.16,4.17Z" transform="translate(0 0.05)"/><path class="cls-7" d="M614.05,992.19c3.09,0,3.1-2.66,0-2.66s-3.1,2.66,0,2.66Z" transform="translate(0 0.05)"/><path class="cls-7" d="M1613,839.38c2.42,0,2.1-2.08-.29-2.08s-2.1,2.08.29,2.08Z" transform="translate(0 0.05)"/><path class="cls-7" d="M1690.44,835.34c2.44,0,2.3-2.1-.12-2.1s-2.31,2.1.12,2.1Z" transform="translate(0 0.05)"/><path class="cls-7" d="M1753.44,886.36c1.82,0,1.74-1.56-.07-1.56s-1.74,1.56.07,1.56Z" transform="translate(0 0.05)"/><path class="cls-7" d="M1843,884.77c1.24,0,1.51-1.08.25-1.08s-1.52,1.08-.25,1.08Z" transform="translate(0 0.05)"/><path class="cls-7" d="M1573.8,923c2.33,0,2.79-2,.44-2s-2.79,2-.44,2Z" transform="translate(0 0.05)"/><path class="cls-7" d="M1566.83,975.17c1.18,0,1-1-.16-1s-1,1,.16,1Z" transform="translate(0 0.05)"/><path class="cls-7" d="M1680.51,956.7c2.14,0,2.52-1.86.35-1.86s-2.53,1.86-.35,1.86Z" transform="translate(0 0.05)"/><path class="cls-7" d="M1675.73,992.92c1.63,0,1.86-1.42.21-1.42s-1.86,1.42-.21,1.42Z" transform="translate(0 0.05)"/><path class="cls-7" d="M1724.25,989.15c2.29,0,2.43-2,.14-2s-2.43,2-.14,2Z" transform="translate(0 0.05)"/><path class="cls-7" d="M1753.46,1018.43c1.34,0,1.23-1.15-.1-1.15s-1.24,1.15.1,1.15Z" transform="translate(0 0.05)"/><path class="cls-7" d="M1840.71,1017.07c1.31,0,1.23-1.13-.07-1.13s-1.23,1.13.07,1.13Z" transform="translate(0 0.05)"/><path class="cls-7" d="M1896.44,1012.1c2.3,0,2.28-2,0-2s-2.28,2,0,2Z" transform="translate(0 0.05)"/><path class="cls-7" d="M298.9,158.93c2,0,2-1.71,0-1.71s-2,1.71,0,1.71Z" transform="translate(0 0.05)"/><path class="cls-7" d="M223.64,107.37c1.36,0,1.64-1.18.26-1.18s-1.64,1.18-.26,1.18Z" transform="translate(0 0.05)"/><path class="cls-7" d="M315.69,83.64c2.66,0,3.09-2.31.4-2.31s-3.09,2.31-.4,2.31Z" transform="translate(0 0.05)"/><path class="cls-7" d="M333.05,59.3c2.59,0,2.18-2.22-.38-2.22s-2.19,2.22.38,2.22Z" transform="translate(0 0.05)"/><path class="cls-7" d="M396,89.88c1.49,0,1.27-1.29-.21-1.29s-1.27,1.29.21,1.29Z" transform="translate(0 0.05)"/><path class="cls-7" d="M434.53,34.78c2.05,0,2.36-1.77.29-1.77s-2.36,1.77-.29,1.77Z" transform="translate(0 0.05)"/><path class="cls-7" d="M555.71,37.62c2.37,0,2.73-2,.34-2s-2.74,2-.34,2Z" transform="translate(0 0.05)"/><path class="cls-7" d="M582.37,68.41c1.79,0,2.16-1.55.35-1.55s-2.16,1.55-.35,1.55Z" transform="translate(0 0.05)"/><path class="cls-7" d="M623.84,86.05c2,0,1.83-1.73-.17-1.73s-1.83,1.73.17,1.73Z" transform="translate(0 0.05)"/><path class="cls-7" d="M686.65,89.84c1.4,0,1.68-1.21.27-1.21s-1.69,1.21-.27,1.21Z" transform="translate(0 0.05)"/><path class="cls-7" d="M710.84,96.94c2.22,0,2.61-1.92.37-1.92s-2.61,1.92-.37,1.92Z" transform="translate(0 0.05)"/><path class="cls-7" d="M732.85,123.81c1.94,0,1.92-1.67,0-1.67s-1.92,1.67,0,1.67Z" transform="translate(0 0.05)"/><path class="cls-7" d="M773.84,121.23c2.18,0,2.65-1.9.43-1.9s-2.65,1.9-.43,1.9Z" transform="translate(0 0.05)"/><path class="cls-7" d="M803.21,107.34c1.3,0,1.14-1.12-.14-1.12s-1.14,1.12.14,1.12Z" transform="translate(0 0.05)"/><path class="cls-7" d="M815.1,93c2.51,0,2.86-2.18.32-2.18S812.56,93,815.1,93Z" transform="translate(0 0.05)"/><path class="cls-7" d="M897.84,76.54c1.86,0,1.53-1.6-.31-1.6s-1.53,1.6.31,1.6Z" transform="translate(0 0.05)"/><path class="cls-7" d="M985,88.4c1.21,0,1-1-.16-1s-1,1,.16,1Z" transform="translate(0 0.05)"/><path class="cls-7" d="M1021.4,118.56c2.27,0,2.09-2-.17-2s-2.09,2,.17,2Z" transform="translate(0 0.05)"/><path class="cls-7" d="M999.69,141.45c2.16,0,1.75-1.85-.38-1.85s-1.75,1.85.38,1.85Z" transform="translate(0 0.05)"/><path class="cls-7" d="M1084.2,150.62c1.49,0,1.79-1.29.28-1.29s-1.78,1.29-.28,1.29Z" transform="translate(0 0.05)"/><path class="cls-7" d="M1128.07,169.85c2.28,0,2.07-2-.19-2s-2.07,2,.19,2Z" transform="translate(0 0.05)"/><path class="cls-7" d="M415.2,172.31c1.72,0,1.89-1.49.16-1.49s-1.9,1.49-.16,1.49Z" transform="translate(0 0.05)"/><path class="cls-7" d="M434.66,187.59c1.66,0,1.69-1.44,0-1.44s-1.7,1.44,0,1.44Z" transform="translate(0 0.05)"/><path class="cls-7" d="M535,188.79c2.38,0,2.08-2-.28-2s-2.08,2,.28,2Z" transform="translate(0 0.05)"/><path class="cls-7" d="M507.44,220.15c2.06,0,2-1.78-.08-1.78s-2,1.78.08,1.78Z" transform="translate(0 0.05)"/><path class="cls-7" d="M716,291.08c1.7,0,1.47-1.47-.22-1.47s-1.47,1.47.22,1.47Z" transform="translate(0 0.05)"/><path class="cls-7" d="M746.6,288.78c2.64,0,2.59-2.27-.05-2.27s-2.58,2.27.05,2.27Z" transform="translate(0 0.05)"/><path class="cls-7" d="M738.55,310.42c2.73,0,2.62-2.36-.1-2.36s-2.62,2.36.1,2.36Z" transform="translate(0 0.05)"/><path class="cls-7" d="M783.64,305.46c1.66,0,1.88-1.43.21-1.43s-1.87,1.43-.21,1.43Z" transform="translate(0 0.05)"/><path class="cls-7" d="M783.68,285.89c2.19,0,2.33-1.89.14-1.89s-2.33,1.89-.14,1.89Z" transform="translate(0 0.05)"/><path class="cls-7" d="M785.31,275.07c2.14,0,2.25-1.85.11-1.85s-2.25,1.85-.11,1.85Z" transform="translate(0 0.05)"/><path class="cls-7" d="M798.38,266.86c1.89,0,1.7-1.62-.17-1.62s-1.7,1.62.17,1.62Z" transform="translate(0 0.05)"/><path class="cls-7" d="M814.31,259.75c2.08,0,2.37-1.8.29-1.8s-2.37,1.8-.29,1.8Z" transform="translate(0 0.05)"/><path class="cls-7" d="M911.38,356.08c2.2,0,2.29-1.9.09-1.9s-2.3,1.9-.09,1.9Z" transform="translate(0 0.05)"/><path class="cls-7" d="M943.57,350.66c2.13,0,2.51-1.85.35-1.85s-2.51,1.85-.35,1.85Z" transform="translate(0 0.05)"/><path class="cls-7" d="M950.14,360.76c2.63,0,2.76-2.26.13-2.26s-2.75,2.26-.13,2.26Z" transform="translate(0 0.05)"/><path class="cls-7" d="M969.78,356c2.07,0,1.68-1.78-.36-1.78s-1.68,1.78.36,1.78Z" transform="translate(0 0.05)"/><path class="cls-7" d="M1001.79,356.67c1.46,0,1.76-1.28.27-1.28s-1.76,1.28-.27,1.28Z" transform="translate(0 0.05)"/><path class="cls-7" d="M998.76,367.45c1.44,0,1.29-1.24-.14-1.24s-1.29,1.24.14,1.24Z" transform="translate(0 0.05)"/><path class="cls-7" d="M1026.27,367.34c1.19,0,1-1-.22-1s-.94,1,.22,1Z" transform="translate(0 0.05)"/><path class="cls-7" d="M1069.71,374.6c1.32,0,1.5-1.14.17-1.14s-1.5,1.14-.17,1.14Z" transform="translate(0 0.05)"/><path class="cls-7" d="M549.56,447.57c1.54,0,1.21-1.31-.3-1.31s-1.2,1.31.3,1.31Z" transform="translate(0 0.05)"/><path class="cls-7" d="M563.82,465.88c2.24,0,2.55-1.94.28-1.94s-2.55,1.94-.28,1.94Z" transform="translate(0 0.05)"/><path class="cls-7" d="M602.73,451.41c2.08,0,2.12-1.79,0-1.79s-2.11,1.79,0,1.79Z" transform="translate(0 0.05)"/><path class="cls-7" d="M638.35,444.21c2.09,0,2-1.79-.1-1.79s-2,1.79.1,1.79Z" transform="translate(0 0.05)"/><path class="cls-7" d="M673.64,442.46c2.16,0,2.63-1.88.43-1.88s-2.63,1.88-.43,1.88Z" transform="translate(0 0.05)"/><path class="cls-7" d="M710.83,432.76c2.65,0,3-2.29.39-2.29s-3.06,2.29-.39,2.29Z" transform="translate(0 0.05)"/><path class="cls-7" d="M733.67,436.16c2.18,0,2.15-1.88,0-1.88s-2.15,1.88,0,1.88Z" transform="translate(0 0.05)"/><path class="cls-7" d="M759.74,421.06c2.65,0,2.16-2.28-.47-2.28s-2.15,2.28.47,2.28Z" transform="translate(0 0.05)"/><path class="cls-7" d="M504.32,533.17c1.79,0,1.47-1.54-.31-1.54s-1.47,1.54.31,1.54Z" transform="translate(0 0.05)"/><path class="cls-7" d="M496.19,560.21c1.91,0,1.68-1.64-.21-1.64s-1.68,1.64.21,1.64Z" transform="translate(0 0.05)"/><path class="cls-7" d="M531.6,566.3c1.41,0,1.49-1.22.07-1.22s-1.49,1.22-.07,1.22Z" transform="translate(0 0.05)"/><path class="cls-7" d="M530.05,577.58c2.53,0,2.45-2.18-.06-2.18s-2.45,2.18.06,2.18Z" transform="translate(0 0.05)"/><path class="cls-7" d="M526.7,618.6c1.65,0,1.84-1.43.18-1.43s-1.84,1.43-.18,1.43Z" transform="translate(0 0.05)"/><path class="cls-7" d="M869.48,546c2.21,0,2-1.91-.15-1.91s-2.05,1.91.15,1.91Z" transform="translate(0 0.05)"/><path class="cls-7" d="M909.66,553.85c1.75,0,2.05-1.51.29-1.51s-2.06,1.51-.29,1.51Z" transform="translate(0 0.05)"/><path class="cls-7" d="M930.69,548.42c1.68,0,1.94-1.45.25-1.45s-1.94,1.45-.25,1.45Z" transform="translate(0 0.05)"/><path class="cls-7" d="M947,567.11c1.2,0,1.12-1-.07-1s-1.12,1,.07,1Z" transform="translate(0 0.05)"/><path class="cls-7" d="M1011.65,559.27c1.81,0,1.74-1.55-.06-1.55s-1.74,1.55.06,1.55Z" transform="translate(0 0.05)"/><path class="cls-7" d="M1011.48,578.25c2,0,2.27-1.72.28-1.72s-2.28,1.72-.28,1.72Z" transform="translate(0 0.05)"/><path class="cls-7" d="M1055.33,560.86c1.32,0,1.16-1.14-.15-1.14s-1.16,1.14.15,1.14Z" transform="translate(0 0.05)"/><path class="cls-7" d="M1103.72,551.09c1.6,0,1.63-1.39,0-1.39s-1.63,1.39,0,1.39Z" transform="translate(0 0.05)"/><path class="cls-7" d="M1153.76,557.28c1.36,0,1.51-1.17.15-1.17s-1.51,1.17-.15,1.17Z" transform="translate(0 0.05)"/><path class="cls-7" d="M1195.89,559.9c1.18,0,1.1-1-.07-1s-1.1,1,.07,1Z" transform="translate(0 0.05)"/><path class="cls-7" d="M1242.49,531.61c2.33,0,2.82-2,.47-2s-2.83,2-.47,2Z" transform="translate(0 0.05)"/><path class="cls-7" d="M1267.12,523.67c2.73,0,2.4-2.35-.31-2.35s-2.4,2.35.31,2.35Z" transform="translate(0 0.05)"/><path class="cls-7" d="M1283.19,531.27c1.55,0,1.41-1.34-.13-1.34s-1.42,1.34.13,1.34Z" transform="translate(0 0.05)"/><path class="cls-7" d="M1292.82,541.12c1.44,0,1.45-1.25,0-1.25s-1.45,1.25,0,1.25Z" transform="translate(0 0.05)"/><path class="cls-7" d="M1326.9,536.66c1.55,0,1.24-1.33-.29-1.33s-1.23,1.33.29,1.33Z" transform="translate(0 0.05)"/><path class="cls-7" d="M529.05,654.23c1.85,0,2.19-1.61.33-1.61s-2.2,1.61-.33,1.61Z" transform="translate(0 0.05)"/><path class="cls-7" d="M555.78,651.34c1.43,0,1.63-1.23.19-1.23s-1.63,1.23-.19,1.23Z" transform="translate(0 0.05)"/><path class="cls-7" d="M587.34,642.41c2.64,0,2.74-2.27.1-2.27s-2.73,2.27-.1,2.27Z" transform="translate(0 0.05)"/><path class="cls-7" d="M589.82,682.5c1.71,0,1.69-1.46,0-1.46s-1.69,1.46,0,1.46Z" transform="translate(0 0.05)"/><path class="cls-7" d="M83,580.21c2.36,0,2.71-2,.34-2s-2.72,2-.34,2Z" transform="translate(0 0.05)"/><path class="cls-7" d="M109.77,581.4c2,0,2.13-1.72.13-1.72s-2.13,1.72-.13,1.72Z" transform="translate(0 0.05)"/><path class="cls-7" d="M127,575c2.68,0,2.36-2.31-.31-2.31S124.29,575,127,575Z" transform="translate(0 0.05)"/><path class="cls-7" d="M107.35,559.48c1.24,0,1.36-1.07.12-1.07s-1.36,1.07-.12,1.07Z" transform="translate(0 0.05)"/><path class="cls-7" d="M93,553c1.84,0,1.65-1.59-.18-1.59S91.13,553,93,553Z" transform="translate(0 0.05)"/><path class="cls-7" d="M88.22,537.07c2.5,0,2.06-2.14-.41-2.14s-2.06,2.14.41,2.14Z" transform="translate(0 0.05)"/><path class="cls-7" d="M105,525c2.7,0,2.68-2.32,0-2.32S102.3,525,105,525Z" transform="translate(0 0.05)"/><path class="cls-7" d="M141.43,513.87c1.91,0,1.73-1.64-.16-1.64s-1.73,1.64.16,1.64Z" transform="translate(0 0.05)"/><path class="cls-7" d="M245.72,639.49c2.14,0,1.84-1.83-.27-1.83s-1.83,1.83.27,1.83Z" transform="translate(0 0.05)"/><path class="cls-7" d="M218.88,661c2,0,2-1.69.08-1.69s-2,1.69-.08,1.69Z" transform="translate(0 0.05)"/><path class="cls-7" d="M231,686.88c2.47,0,2.47-2.13,0-2.13s-2.47,2.13,0,2.13Z" transform="translate(0 0.05)"/><path class="cls-7" d="M264.83,691c2.55,0,2.87-2.21.3-2.21s-2.87,2.21-.3,2.21Z" transform="translate(0 0.05)"/><path class="cls-7" d="M262.54,720.25c1.6,0,1.64-1.38,0-1.38s-1.65,1.38,0,1.38Z" transform="translate(0 0.05)"/><path class="cls-7" d="M1646.89,736.93c2.74,0,2.43-2.35-.29-2.35s-2.43,2.35.29,2.35Z" transform="translate(0 0.05)"/><path class="cls-7" d="M1722,731.45c2.54,0,2.27-2.18-.25-2.18s-2.27,2.18.25,2.18Z" transform="translate(0 0.05)"/><path class="cls-7" d="M1726.76,701.78c2.59,0,2.53-2.23,0-2.23s-2.53,2.23,0,2.23Z" transform="translate(0 0.05)"/><path class="cls-7" d="M391.23,195.57c2.47,0,2.06-2.12-.38-2.12s-2.07,2.12.38,2.12Z" transform="translate(0 0.05)"/><path class="cls-7" d="M432.4,191.25c1.83,0,1.49-1.57-.31-1.57s-1.49,1.57.31,1.57Z" transform="translate(0 0.05)"/><path class="cls-7" d="M429.85,202c1.62,0,1.57-1.4-.05-1.4s-1.57,1.4.05,1.4Z" transform="translate(0 0.05)"/><path class="cls-7" d="M463.64,197.76c1.26,0,1.52-1.09.24-1.09s-1.52,1.09-.24,1.09Z" transform="translate(0 0.05)"/><path class="cls-7" d="M449.34,218.05c1.38,0,1.12-1.18-.24-1.18s-1.13,1.18.24,1.18Z" transform="translate(0 0.05)"/><path class="cls-7" d="M492.93,215.42c1.54,0,1.36-1.32-.16-1.32s-1.36,1.32.16,1.32Z" transform="translate(0 0.05)"/><path class="cls-7" d="M1302.49,157.76c2.41,0,2.45-2.07,0-2.07s-2.44,2.07,0,2.07Z" transform="translate(0 0.05)"/><path class="cls-7" d="M1329.22,168.46c2.19,0,2.11-1.89-.07-1.89s-2.12,1.89.07,1.89Z" transform="translate(0 0.05)"/><path class="cls-7" d="M1360.56,156.6c2.84,0,3.12-2.46.28-2.46s-3.13,2.46-.28,2.46Z" transform="translate(0 0.05)"/><path class="cls-7" d="M1394.43,159.21c2.63,0,3.07-2.28.41-2.28s-3.07,2.28-.41,2.28Z" transform="translate(0 0.05)"/><path class="cls-7" d="M1397,174.46c3.57,0,3.71-3.08.15-3.08s-3.71,3.08-.15,3.08Z" transform="translate(0 0.05)"/><path class="cls-7" d="M1426.3,166.55c4,0,3.68-3.46-.3-3.46s-3.69,3.46.3,3.46Z" transform="translate(0 0.05)"/><path class="cls-7" d="M1459.92,167.17c2.32,0,2.67-2,.33-2s-2.67,2-.33,2Z" transform="translate(0 0.05)"/><path class="cls-7" d="M1683.09,20.22c2.73,0,2.76-2.35,0-2.35s-2.76,2.35,0,2.35Z" transform="translate(0 0.05)"/><path class="cls-7" d="M1734.31,16.59c3.71,0,3.08-3.18-.59-3.18s-3.08,3.18.59,3.18Z" transform="translate(0 0.05)"/><path class="cls-7" d="M1743.49,32.41c2.81,0,3.26-2.43.44-2.43s-3.26,2.43-.44,2.43Z" transform="translate(0 0.05)"/><path class="cls-7" d="M1770.2,17.54c2.75,0,3.13-2.38.36-2.38s-3.13,2.38-.36,2.38Z" transform="translate(0 0.05)"/><path class="cls-7" d="M1794.8,3c3.51,0,3.12-3-.36-3s-3.13,3,.36,3Z" transform="translate(0 0.05)"/><path class="cls-7" d="M1850.42,4c2.67,0,2.58-2.3-.09-2.3s-2.58,2.3.09,2.3Z" transform="translate(0 0.05)"/><path class="cls-7" d="M1859.81,14.88c2.84,0,3.38-2.46.52-2.46s-3.38,2.46-.52,2.46Z" transform="translate(0 0.05)"/><path class="cls-7" d="M1906.07,13.36c2.46,0,2.57-2.12.11-2.12s-2.56,2.12-.11,2.12Z" transform="translate(0 0.05)"/><path class="cls-7" d="M1898.68,38.75c1.85,0,2.24-1.61.36-1.61s-2.24,1.61-.36,1.61Z" transform="translate(0 0.05)"/><path class="cls-7" d="M1891.84,65c3.18,0,2.62-2.72-.52-2.72s-2.61,2.72.52,2.72Z" transform="translate(0 0.05)"/><path class="cls-7" d="M1918.29,83.49c2.33,0,2.25-2-.08-2s-2.25,2,.08,2Z" transform="translate(0 0.05)"/><path class="cls-7" d="M1513.07,429.69c3.86,0,4.59-3.35.69-3.35s-4.59,3.35-.69,3.35Z" transform="translate(0 0.05)"/><path class="cls-7" d="M1532.66,432.57c4.29,0,4.61-3.71.3-3.71s-4.61,3.71-.3,3.71Z" transform="translate(0 0.05)"/><path class="cls-7" d="M1549.92,421.36c3.34,0,3-2.88-.28-2.88s-3,2.88.28,2.88Z" transform="translate(0 0.05)"/><path class="cls-7" d="M1569.37,411.51c2.41,0,2-2.07-.4-2.07s-2,2.07.4,2.07Z" transform="translate(0 0.05)"/><path class="cls-7" d="M1581,410.24c2.58,0,3.1-2.23.5-2.23s-3.09,2.23-.5,2.23Z" transform="translate(0 0.05)"/><path class="cls-7" d="M1610.47,409.29c3.53,0,3.34-3-.17-3s-3.34,3,.17,3Z" transform="translate(0 0.05)"/><path class="cls-7" d="M1629.53,424.05c3.31,0,3.82-2.86.49-2.86s-3.81,2.86-.49,2.86Z" transform="translate(0 0.05)"/><path class="cls-7" d="M1807,652.1c3.21,0,2.63-2.75-.55-2.75s-2.62,2.75.55,2.75Z" transform="translate(0 0.05)"/><path class="cls-7" d="M1828.8,654.59c2.72,0,2.21-2.33-.49-2.33s-2.21,2.33.49,2.33Z" transform="translate(0 0.05)"/><path class="cls-7" d="M1848.11,664c2.53,0,2.19-2.18-.32-2.18s-2.19,2.18.32,2.18Z" transform="translate(0 0.05)"/><path class="cls-7" d="M1857.33,672.55c3.64,0,4.31-3.16.63-3.16s-4.3,3.16-.63,3.16Z" transform="translate(0 0.05)"/><path class="cls-7" d="M1838.15,681.43c2.34,0,2.55-2,.2-2s-2.54,2-.2,2Z" transform="translate(0 0.05)"/><path class="cls-7" d="M1804.09,692.59c3.17,0,3.64-2.75.45-2.75s-3.64,2.75-.45,2.75Z" transform="translate(0 0.05)"/><path class="cls-7" d="M1804,709.19c4.08,0,4.74-3.55.61-3.55s-4.74,3.55-.61,3.55Z" transform="translate(0 0.05)"/><path class="cls-7" d="M1831.13,720.43c2,0,1.71-1.74-.3-1.74s-1.71,1.74.3,1.74Z" transform="translate(0 0.05)"/><path class="cls-7" d="M1857.49,722.19c3,0,3.29-2.56.31-2.56s-3.28,2.56-.31,2.56Z" transform="translate(0 0.05)"/><path class="cls-7" d="M1888.86,734.87c4.18,0,4.83-3.63.6-3.63s-4.83,3.63-.6,3.63Z" transform="translate(0 0.05)"/><path class="cls-7" d="M1841,803.52c3.8,0,3.13-3.25-.63-3.25s-3.13,3.25.63,3.25Z" transform="translate(0 0.05)"/><path class="cls-7" d="M1859.91,820.26c1.89,0,2.23-1.64.32-1.64s-2.23,1.64-.32,1.64Z" transform="translate(0 0.05)"/><path class="cls-7" d="M1869.44,834.36c3.26,0,4-2.84.66-2.84s-4,2.84-.66,2.84Z" transform="translate(0 0.05)"/><path class="cls-7" d="M1876.75,864.15c3.5,0,4.12-3,.58-3s-4.13,3-.58,3Z" transform="translate(0 0.05)"/><path class="cls-7" d="M1862.53,882.65c2.61,0,2.53-2.24-.07-2.24s-2.53,2.24.07,2.24Z" transform="translate(0 0.05)"/><path class="cls-7" d="M1887,897.89c3.54,0,3-3-.47-3s-3,3,.47,3Z" transform="translate(0 0.05)"/><path class="cls-7" d="M92.83,1080c3.27,0,3.33-2.82.07-2.82s-3.33,2.82-.07,2.82Z" transform="translate(0 0.05)"/><path class="cls-7" d="M117.28,1070c2,0,1.67-1.75-.34-1.75s-1.68,1.75.34,1.75Z" transform="translate(0 0.05)"/><path class="cls-7" d="M146.4,1063.55c2.7,0,2.25-2.31-.41-2.31s-2.25,2.31.41,2.31Z" transform="translate(0 0.05)"/><path class="cls-7" d="M187.32,1068c3.57,0,3.75-3.09.17-3.09s-3.74,3.09-.17,3.09Z" transform="translate(0 0.05)"/><path class="cls-7" d="M257.61,1074.32c2.6,0,2.8-2.25.19-2.25s-2.8,2.25-.19,2.25Z" transform="translate(0 0.05)"/><path class="cls-7" d="M291.45,1074.22c2.38,0,2.79-2.06.39-2.06s-2.78,2.06-.39,2.06Z" transform="translate(0 0.05)"/><path class="cls-7" d="M320.72,1072.35c4.31,0,4.32-3.71,0-3.71s-4.32,3.71,0,3.71Z" transform="translate(0 0.05)"/><path class="cls-7" d="M393.48,1062.86c4.21,0,4.17-3.63,0-3.63s-4.17,3.63,0,3.63Z" transform="translate(0 0.05)"/><path class="cls-7" d="M442.05,1046.56c4,0,3.76-3.43-.22-3.43s-3.75,3.43.22,3.43Z" transform="translate(0 0.05)"/><path class="cls-7" d="M1353.16,1075c4.22,0,4.79-3.66.53-3.66s-4.79,3.66-.53,3.66Z" transform="translate(0 0.05)"/><path class="cls-7" d="M1396.87,1074.47c3,0,3.33-2.55.37-2.55s-3.33,2.55-.37,2.55Z" transform="translate(0 0.05)"/><path class="cls-7" d="M1438,1078.35c2.55,0,3.09-2.21.51-2.21s-3.08,2.21-.51,2.21Z" transform="translate(0 0.05)"/><path class="cls-7" d="M803.16,1075.73c2.76,0,2.72-2.38,0-2.38s-2.71,2.38,0,2.38Z" transform="translate(0 0.05)"/><path class="cls-7" d="M844.35,1071.52c2.38,0,2.38-2,0-2s-2.37,2,0,2Z" transform="translate(0 0.05)"/><path class="cls-7" d="M871.16,1072.18c3.93,0,3.61-3.37-.29-3.37s-3.6,3.37.29,3.37Z" transform="translate(0 0.05)"/><path class="cls-7" d="M904.9,1073.29c3.34,0,3.45-2.89.11-2.89s-3.45,2.89-.11,2.89Z" transform="translate(0 0.05)"/><path class="cls-7" d="M924.44,1075.73c2.76,0,2.57-2.37-.18-2.37s-2.57,2.37.18,2.37Z" transform="translate(0 0.05)"/><path class="cls-7" d="M977.89,1078.67c3.33,0,2.88-2.86-.42-2.86s-2.88,2.86.42,2.86Z" transform="translate(0 0.05)"/><path class="cls-7" d="M1012,1072.34c4.3,0,3.47-3.69-.77-3.69s-3.47,3.69.77,3.69Z" transform="translate(0 0.05)"/><path class="cls-7" d="M1050.21,1064.79c2.41,0,2.83-2.09.39-2.09s-2.83,2.09-.39,2.09Z" transform="translate(0 0.05)"/><path class="cls-7" d="M1123,1069.46c3.84,0,4.08-3.33.22-3.33s-4.08,3.33-.22,3.33Z" transform="translate(0 0.05)"/><path class="cls-7" d="M1627.21,1057.82c1.9,0,2.2-1.65.28-1.65s-2.19,1.65-.28,1.65Z" transform="translate(0 0.05)"/><path class="cls-7" d="M1663.63,1077.59c3.93,0,4.09-3.39.16-3.39s-4.08,3.39-.16,3.39Z" transform="translate(0 0.05)"/><path class="cls-7" d="M110,16c2.43,0,2.15-2.08-.25-2.08S107.56,16,110,16Z" transform="translate(0 0.05)"/><path class="cls-7" d="M61.21,33.63c2.51,0,2.82-2.17.29-2.17s-2.83,2.17-.29,2.17Z" transform="translate(0 0.05)"/><path class="cls-7" d="M112.46,38.08c3.45,0,3-3-.4-3s-3,3,.4,3Z" transform="translate(0 0.05)"/><path class="cls-7" d="M141.27,37.82c2.83,0,3-2.45.16-2.45s-3,2.45-.16,2.45Z" transform="translate(0 0.05)"/><path class="cls-7" d="M175.47,30.72c2,0,1.64-1.75-.36-1.75s-1.65,1.75.36,1.75Z" transform="translate(0 0.05)"/><path class="cls-7" d="M182.31,12.05c2.54,0,3.07-2.2.5-2.2s-3.07,2.2-.5,2.2Z" transform="translate(0 0.05)"/><path class="cls-7" d="M228.49,7.81c2.11,0,2.38-1.82.26-1.82s-2.38,1.82-.26,1.82Z" transform="translate(0 0.05)"/><path class="cls-7" d="M265.05,4.22c3.17,0,3-2.73-.14-2.73s-3,2.73.14,2.73Z" transform="translate(0 0.05)"/><path class="cls-7" d="M114.6,75.66c2.94,0,3.11-2.54.17-2.54s-3.11,2.54-.17,2.54Z" transform="translate(0 0.05)"/><path class="cls-7" d="M144.13,84.15c3.88,0,3.11-3.33-.72-3.33s-3.11,3.33.72,3.33Z" transform="translate(0 0.05)"/><path class="cls-7" d="M170.36,86.34c2.69,0,2.84-2.31.15-2.31s-2.83,2.31-.15,2.31Z" transform="translate(0 0.05)"/><path class="cls-7" d="M182.2,80c3.64,0,4.4-3.16.72-3.16S178.52,80,182.2,80Z" transform="translate(0 0.05)"/><path class="cls-7" d="M204.28,75.44c2.44,0,2.65-2.11.2-2.11s-2.65,2.11-.2,2.11Z" transform="translate(0 0.05)"/><path class="cls-7" d="M228.63,74.43c3.24,0,3.2-2.79,0-2.79s-3.21,2.79,0,2.79Z" transform="translate(0 0.05)"/><path class="cls-7" d="M269.77,81.31c3.54,0,3.66-3,.12-3s-3.66,3-.12,3Z" transform="translate(0 0.05)"/><path class="cls-7" d="M310.85,97.85c4.32,0,4.7-3.73.38-3.73s-4.7,3.73-.38,3.73Z" transform="translate(0 0.05)"/><path class="cls-7" d="M141.4,226.6c2.41,0,2.3-2.08-.1-2.08s-2.3,2.08.1,2.08Z" transform="translate(0 0.05)"/><path class="cls-7" d="M107.18,237.87c3.49,0,4-3,.46-3s-4,3-.46,3Z" transform="translate(0 0.05)"/><path class="cls-7" d="M75.88,251c2.61,0,2.65-2.25,0-2.25s-2.65,2.25,0,2.25Z" transform="translate(0 0.05)"/><path class="cls-7" d="M59.06,276.9c3.26,0,3-2.8-.26-2.8s-3,2.8.26,2.8Z" transform="translate(0 0.05)"/><path class="cls-7" d="M20.39,305.49c3.82,0,3.29-3.29-.49-3.29s-3.3,3.29.49,3.29Z" transform="translate(0 0.05)"/><path class="cls-7" d="M182.76,218c4.35,0,3.92-3.74-.4-3.74s-3.92,3.74.4,3.74Z" transform="translate(0 0.05)"/><path class="cls-7" d="M95.37,434.55c2.62,0,2.46-2.26-.16-2.26s-2.45,2.26.16,2.26Z" transform="translate(0 0.05)"/><path class="cls-7" d="M73.58,426.43c2.57,0,2.35-2.22-.21-2.22s-2.35,2.22.21,2.22Z" transform="translate(0 0.05)"/><path class="cls-7" d="M54.05,417.16c3,0,3.05-2.58.06-2.58s-3,2.58-.06,2.58Z" transform="translate(0 0.05)"/><path class="cls-7" d="M63.79,406.86c4.13,0,4.11-3.57,0-3.57s-4.1,3.57,0,3.57Z" transform="translate(0 0.05)"/><path class="cls-7" d="M70.89,391.08c2,0,2.31-1.71.32-1.71s-2.32,1.71-.32,1.71Z" transform="translate(0 0.05)"/><path class="cls-7" d="M66.35,375.1c2.5,0,2.18-2.15-.29-2.15s-2.19,2.15.29,2.15Z" transform="translate(0 0.05)"/><path class="cls-7" d="M42.18,355.35c3.66,0,3.18-3.14-.44-3.14s-3.18,3.14.44,3.14Z" transform="translate(0 0.05)"/><path class="cls-7" d="M61.68,727.82c3.53,0,2.82-3-.65-3s-2.83,3,.65,3Z" transform="translate(0 0.05)"/><path class="cls-7" d="M80.72,722.72c4.18,0,4.23-3.61,0-3.61s-4.23,3.61,0,3.61Z" transform="translate(0 0.05)"/><path class="cls-7" d="M105.33,718.36c3.49,0,2.75-3-.68-3s-2.76,3,.68,3Z" transform="translate(0 0.05)"/><path class="cls-7" d="M141.38,717.84c2.27,0,2.22-2-.06-2s-2.22,2,.06,2Z" transform="translate(0 0.05)"/><path class="cls-7" d="M1593.41,928.33c2.1,0,2.11-1.81,0-1.81s-2.11,1.81,0,1.81Z" transform="translate(0 0.05)"/><path class="cls-7" d="M1617.89,927.22c2.67,0,2.17-2.29-.47-2.29s-2.17,2.29.47,2.29Z" transform="translate(0 0.05)"/><path class="cls-7" d="M1670.87,924.35c2.26,0,2.5-2,.23-2s-2.5,2-.23,2Z" transform="translate(0 0.05)"/><path class="cls-7" d="M497.76,904c1.92,0,1.79-1.65-.12-1.65s-1.79,1.65.12,1.65Z" transform="translate(0 0.05)"/><path class="cls-7" d="M524.49,890.59c2.23,0,2-1.92-.25-1.92s-2,1.92.25,1.92Z" transform="translate(0 0.05)"/><path class="cls-7" d="M553.41,909.61c2.52,0,2.62-2.17.09-2.17s-2.62,2.17-.09,2.17Z" transform="translate(0 0.05)"/><path class="cls-7" d="M548.74,928.15c1.71,0,1.42-1.46-.27-1.46s-1.42,1.46.27,1.46Z" transform="translate(0 0.05)"/><path class="cls-7" d="M565.73,946.14c2.73,0,2.4-2.35-.31-2.35s-2.4,2.35.31,2.35Z" transform="translate(0 0.05)"/><path class="cls-7" d="M645.47,956.51c1.71,0,1.92-1.48.2-1.48s-1.91,1.48-.2,1.48Z" transform="translate(0 0.05)"/><path class="cls-7" d="M725.6,949.73c1.66,0,1.58-1.43-.07-1.43s-1.57,1.43.07,1.43Z" transform="translate(0 0.05)"/><path class="cls-7" d="M798.18,933.46c1.48,0,1.71-1.28.23-1.28s-1.72,1.28-.23,1.28Z" transform="translate(0 0.05)"/><path class="cls-7" d="M834.75,951c1.55,0,1.35-1.33-.19-1.33s-1.35,1.33.19,1.33Z" transform="translate(0 0.05)"/><path class="cls-7" d="M863.71,912c1.83,0,1.91-1.59.07-1.59s-1.91,1.59-.07,1.59Z" transform="translate(0 0.05)"/><path class="cls-7" d="M938.78,910.58c1.64,0,1.87-1.41.22-1.41s-1.86,1.41-.22,1.41Z" transform="translate(0 0.05)"/><path class="cls-7" d="M946,892.87c1.25,0,1.51-1.08.25-1.08s-1.51,1.08-.25,1.08Z" transform="translate(0 0.05)"/><path class="cls-7" d="M1026.13,894.2c1.22,0,1.28-1.05.06-1.05s-1.27,1.05-.06,1.05Z" transform="translate(0 0.05)"/><path class="cls-7" d="M1065,901.09c1.53,0,1.5-1.32,0-1.32s-1.5,1.32,0,1.32Z" transform="translate(0 0.05)"/><path class="cls-7" d="M279.61,841.82c1.82,0,1.63-1.56-.17-1.56s-1.63,1.56.17,1.56Z" transform="translate(0 0.05)"/><path class="cls-7" d="M284.3,864.74c1.74,0,1.9-1.51.15-1.51s-1.9,1.51-.15,1.51Z" transform="translate(0 0.05)"/><path class="cls-7" d="M318.33,862.13c2,0,1.93-1.7,0-1.7s-1.92,1.7,0,1.7Z" transform="translate(0 0.05)"/><path class="cls-7" d="M379,871.52c1.83,0,1.58-1.57-.23-1.57s-1.58,1.57.23,1.57Z" transform="translate(0 0.05)"/><path class="cls-7" d="M323.17,883.6c1.68,0,1.66-1.45,0-1.45s-1.66,1.45,0,1.45Z" transform="translate(0 0.05)"/><path class="cls-7" d="M311.05,909.2c1.56,0,1.53-1.34,0-1.34s-1.53,1.34,0,1.34Z" transform="translate(0 0.05)"/><path class="cls-7" d="M257.73,939.15c2.16,0,2.12-1.86,0-1.86s-2.12,1.86,0,1.86Z" transform="translate(0 0.05)"/><path class="cls-7" d="M303.69,953.6c1.22,0,1.39-1.06.16-1.06s-1.39,1.06-.16,1.06Z" transform="translate(0 0.05)"/><path class="cls-7" d="M277,971.35c1.69,0,2-1.47.26-1.47s-2,1.47-.26,1.47Z" transform="translate(0 0.05)"/><path class="cls-7" d="M233.7,986.59c2.63,0,2.12-2.26-.47-2.26s-2.11,2.26.47,2.26Z" transform="translate(0 0.05)"/><path class="cls-7" d="M236.09,1009.47c2.49,0,2-2.13-.4-2.13s-2,2.13.4,2.13Z" transform="translate(0 0.05)"/><path class="cls-7" d="M177.56,1018.88c2.36,0,2.68-2,.3-2s-2.68,2-.3,2Z" transform="translate(0 0.05)"/><path class="cls-7" d="M410.57,994.22c1.56,0,1.25-1.33-.28-1.33s-1.25,1.33.28,1.33Z" transform="translate(0 0.05)"/><path class="cls-7" d="M437.07,1001.24c2.16,0,2.21-1.86.05-1.86s-2.21,1.86-.05,1.86Z" transform="translate(0 0.05)"/><path class="cls-7" d="M517.26,1001.06c1.75,0,1.4-1.51-.33-1.51s-1.41,1.51.33,1.51Z" transform="translate(0 0.05)"/><path class="cls-7" d="M536.51,1000.82c1.19,0,1.13-1,0-1s-1.13,1,0,1Z" transform="translate(0 0.05)"/><path class="cls-7" d="M497.53,149.72c2.55,0,2.89-2.2.33-2.2s-2.88,2.2-.33,2.2Z" transform="translate(0 0.05)"/><path class="cls-7" d="M526.7,137.6c2.6,0,2.79-2.25.18-2.25s-2.79,2.25-.18,2.25Z" transform="translate(0 0.05)"/><path class="cls-7" d="M556,120.88c1.4,0,1.16-1.2-.23-1.2s-1.15,1.2.23,1.2Z" transform="translate(0 0.05)"/><path class="cls-7" d="M592.1,129.34c2.24,0,2.53-1.93.28-1.93s-2.53,1.93-.28,1.93Z" transform="translate(0 0.05)"/><path class="cls-7" d="M667.47,114.05c1.22,0,1-1-.17-1s-1,1,.17,1Z" transform="translate(0 0.05)"/><path class="cls-7" d="M740.12,137.34c2,0,2-1.73,0-1.73s-2,1.73,0,1.73Z" transform="translate(0 0.05)"/><path class="cls-7" d="M815.42,167c1.9,0,1.56-1.63-.31-1.63s-1.57,1.63.31,1.63Z" transform="translate(0 0.05)"/><path class="cls-7" d="M893,169.7c1.93,0,1.54-1.66-.36-1.66s-1.55,1.66.36,1.66Z" transform="translate(0 0.05)"/><path class="cls-7" d="M912.2,183.32c2.2,0,2.26-1.9.06-1.9s-2.26,1.9-.06,1.9Z" transform="translate(0 0.05)"/><path class="cls-7" d="M965.64,160.49c2.5,0,2.32-2.14-.16-2.14s-2.32,2.14.16,2.14Z" transform="translate(0 0.05)"/><path class="cls-7" d="M1023.85,171.2c2.29,0,2-2-.22-2s-2,2,.22,2Z" transform="translate(0 0.05)"/><path class="cls-7" d="M1047.84,164.21c1.71,0,2-1.48.28-1.48s-2,1.48-.28,1.48Z" transform="translate(0 0.05)"/><path class="cls-7" d="M1149.68,169.63c1.77,0,2-1.53.23-1.53s-2,1.53-.23,1.53Z" transform="translate(0 0.05)"/><path class="cls-7" d="M1191,165.81c2.31,0,2.33-2,0-2s-2.33,2,0,2Z" transform="translate(0 0.05)"/><path class="cls-7" d="M1535.3,274.76c1.43,0,1.29-1.23-.13-1.23s-1.29,1.23.13,1.23Z" transform="translate(0 0.05)"/><path class="cls-7" d="M1576.4,275.32c2.71,0,2.8-2.34.09-2.34s-2.8,2.34-.09,2.34Z" transform="translate(0 0.05)"/><path class="cls-7" d="M1593.53,281.49c1.4,0,1.14-1.19-.23-1.19s-1.14,1.19.23,1.19Z" transform="translate(0 0.05)"/><path class="cls-7" d="M1595.7,305.83c1.48,0,1.77-1.28.28-1.28s-1.78,1.28-.28,1.28Z" transform="translate(0 0.05)"/><path class="cls-7" d="M1629.83,307.08c1.24,0,1.13-1.07-.1-1.07s-1.14,1.07.1,1.07Z" transform="translate(0 0.05)"/><path class="cls-7" d="M1658.79,303.11c1.43,0,1.59-1.24.15-1.24s-1.59,1.24-.15,1.24Z" transform="translate(0 0.05)"/><path class="cls-7" d="M1234.72,418.22c2.33,0,2.16-2-.16-2s-2.16,2,.16,2Z" transform="translate(0 0.05)"/><path class="cls-7" d="M1258.86,411.39c2.12,0,2.18-1.84.05-1.84s-2.19,1.84-.05,1.84Z" transform="translate(0 0.05)"/><path class="cls-7" d="M1300.12,401.59c1.31,0,1.25-1.13-.06-1.13s-1.25,1.13.06,1.13Z" transform="translate(0 0.05)"/><path class="cls-7" d="M1326.92,393.86c2.18,0,1.84-1.87-.32-1.87s-1.85,1.87.32,1.87Z" transform="translate(0 0.05)"/><path class="cls-7" d="M1326.81,411.36c2.08,0,2-1.78-.11-1.78s-1.94,1.78.11,1.78Z" transform="translate(0 0.05)"/><path class="cls-7" d="M1346.13,422.07c1.86,0,1.9-1.6,0-1.6s-1.89,1.6,0,1.6Z" transform="translate(0 0.05)"/><path class="cls-7" d="M1375.16,420.83c2.11,0,2.27-1.82.16-1.82s-2.27,1.82-.16,1.82Z" transform="translate(0 0.05)"/><path class="cls-7" d="M1402.08,413.94c1.8,0,1.43-1.54-.35-1.54s-1.43,1.54.35,1.54Z" transform="translate(0 0.05)"/><path class="cls-7" d="M1331.72,452.83c1.2,0,1-1-.23-1s-1,1,.23,1Z" transform="translate(0 0.05)"/><path class="cls-7" d="M1300.34,468.25c2.55,0,2-2.18-.49-2.18s-2,2.18.49,2.18Z" transform="translate(0 0.05)"/><path class="cls-7" d="M1263.64,478.72c1.76,0,2-1.52.18-1.52s-2,1.52-.18,1.52Z" transform="translate(0 0.05)"/><path class="cls-7" d="M1048,709.3c1.25,0,1.11-1.07-.12-1.07s-1.11,1.07.12,1.07Z" transform="translate(0 0.05)"/><path class="cls-7" d="M1043,721.9c2.28,0,2.47-2,.18-2s-2.46,2-.18,2Z" transform="translate(0 0.05)"/><path class="cls-7" d="M1069.88,722.87c1.41,0,1.23-1.21-.16-1.21s-1.24,1.21.16,1.21Z" transform="translate(0 0.05)"/><path class="cls-7" d="M1093.86,725.74c1.8,0,2.19-1.56.36-1.56s-2.2,1.56-.36,1.56Z" transform="translate(0 0.05)"/><path class="cls-7" d="M1018.9,532.57c1.45,0,1.43-1.25,0-1.25s-1.43,1.25,0,1.25Z" transform="translate(0 0.05)"/><path class="cls-7" d="M1077.05,449c1.81,0,1.84-1.55,0-1.55s-1.84,1.55,0,1.55Z" transform="translate(0 0.05)"/><path class="cls-7" d="M953.37,387c1.85,0,2-1.61.14-1.61s-2,1.61-.14,1.61Z" transform="translate(0 0.05)"/><path class="cls-7" d="M1023.92,383.16c2.41,0,2-2.06-.37-2.06s-2,2.06.37,2.06Z" transform="translate(0 0.05)"/><path class="cls-7" d="M1018.88,395c1.78,0,1.81-1.53,0-1.53s-1.82,1.53,0,1.53Z" transform="translate(0 0.05)"/><path class="cls-7" d="M1414.17,674.5c1.94,0,1.63-1.66-.29-1.66s-1.63,1.66.29,1.66Z" transform="translate(0 0.05)"/><path class="cls-7" d="M1423.85,649.08c2.46,0,2.19-2.11-.25-2.11s-2.2,2.11.25,2.11Z" transform="translate(0 0.05)"/><path class="cls-7" d="M1457.51,669.18c2.09,0,2.43-1.82.31-1.82s-2.43,1.82-.31,1.82Z" transform="translate(0 0.05)"/><path class="cls-7" d="M1450.54,688.25c2.51,0,2.19-2.16-.3-2.16s-2.19,2.16.3,2.16Z" transform="translate(0 0.05)"/><path class="cls-7" d="M749.91,720.68c2.58,0,2.38-2.23-.2-2.23s-2.38,2.23.2,2.23Z" transform="translate(0 0.05)"/><path class="cls-7" d="M803,707.1c2.38,0,2.77-2.07.36-2.07s-2.77,2.07-.36,2.07Z" transform="translate(0 0.05)"/><path class="cls-7" d="M626,654.29c2,0,2.31-1.73.3-1.73s-2.32,1.73-.3,1.73Z" transform="translate(0 0.05)"/><path class="cls-7" d="M480.78,488c1.28,0,1.18-1.11-.1-1.11s-1.18,1.11.1,1.11Z" transform="translate(0 0.05)"/><path class="cls-7" d="M466.36,450.47c2,0,1.63-1.71-.35-1.71s-1.63,1.71.35,1.71Z" transform="translate(0 0.05)"/><path class="cls-7" d="M500.35,439.87c2.47,0,2-2.11-.46-2.11s-2,2.11.46,2.11Z" transform="translate(0 0.05)"/><path class="cls-7" d="M446.9,423.57c2.22,0,2-1.9-.22-1.9s-2,1.9.22,1.9Z" transform="translate(0 0.05)"/><path class="cls-7" d="M369.19,704.4c2.4,0,2.46-2.07.06-2.07s-2.46,2.07-.06,2.07Z" transform="translate(0 0.05)"/><path class="cls-7" d="M373.91,727.34c2.39,0,2.72-2.06.32-2.06s-2.73,2.06-.32,2.06Z" transform="translate(0 0.05)"/><path class="cls-7" d="M349.62,736.74c2.26,0,2.7-2,.41-2s-2.7,2-.41,2Z" transform="translate(0 0.05)"/><path class="cls-7" d="M400.67,744.48c1.45,0,1.59-1.25.13-1.25s-1.59,1.25-.13,1.25Z" transform="translate(0 0.05)"/><path class="cls-7" d="M391.22,771.77c2.15,0,1.75-1.84-.37-1.84s-1.74,1.84.37,1.84Z" transform="translate(0 0.05)"/><path class="cls-7" d="M340,766.32c2,0,2.29-1.73.28-1.73s-2.29,1.73-.28,1.73Z" transform="translate(0 0.05)"/><path class="cls-7" d="M274.44,811.06c2.46,0,3-2.13.48-2.13s-3,2.13-.48,2.13Z" transform="translate(0 0.05)"/><path class="cls-7" d="M201.91,842.08c2.41,0,2.5-2.08.09-2.08s-2.5,2.08-.09,2.08Z" transform="translate(0 0.05)"/><path class="cls-7" d="M51.82,824.3c1.88,0,1.52-1.61-.33-1.61s-1.52,1.61.33,1.61Z" transform="translate(0 0.05)"/><path class="cls-7" d="M1282.88,781.44c2.62,0,3.14-2.28.49-2.28s-3.15,2.28-.49,2.28Z" transform="translate(0 0.05)"/><path class="cls-7" d="M1338.86,800c1.81,0,1.85-1.57,0-1.57s-1.85,1.57,0,1.57Z" transform="translate(0 0.05)"/><path class="cls-7" d="M1324.43,821.47c1.58,0,1.37-1.36-.19-1.36s-1.37,1.36.19,1.36Z" transform="translate(0 0.05)"/><path class="cls-7" d="M1392.2,837.51c1.21,0,1.24-1,0-1s-1.24,1,0,1Z" transform="translate(0 0.05)"/><path class="cls-7" d="M1406.94,851.37c2,0,1.66-1.76-.37-1.76s-1.66,1.76.37,1.76Z" transform="translate(0 0.05)"/><path class="cls-7" d="M1219.9,802.82c2.14,0,2.56-1.85.39-1.85s-2.56,1.85-.39,1.85Z" transform="translate(0 0.05)"/><path class="cls-7" d="M1554.76,703.16c2.65,0,2.38-2.29-.26-2.29s-2.39,2.29.26,2.29Z" transform="translate(0 0.05)"/><path class="cls-7" d="M1581.53,688.3c2.65,0,2.14-2.27-.47-2.27s-2.15,2.27.47,2.27Z" transform="translate(0 0.05)"/><path class="cls-7" d="M1591,663.44c1.31,0,1.27-1.13,0-1.13s-1.27,1.13,0,1.13Z" transform="translate(0 0.05)"/><path class="cls-7" d="M1637,680.21c2.64,0,2.77-2.28.12-2.28s-2.77,2.28-.12,2.28Z" transform="translate(0 0.05)"/><path class="cls-7" d="M1605.39,630.2c2.47,0,2.77-2.14.29-2.14s-2.77,2.14-.29,2.14Z" transform="translate(0 0.05)"/><path class="cls-7" d="M1637.06,629.91c1.82,0,1.79-1.56,0-1.56s-1.79,1.56,0,1.56Z" transform="translate(0 0.05)"/><path class="cls-7" d="M1518.12,461c1.43,0,1.72-1.23.29-1.23s-1.72,1.23-.29,1.23Z" transform="translate(0 0.05)"/><path class="cls-7" d="M1489.07,480c1.5,0,1.72-1.3.21-1.3s-1.72,1.3-.21,1.3Z" transform="translate(0 0.05)"/><path class="cls-7" d="M980,331.92c2.49,0,2.82-2.16.31-2.16s-2.82,2.16-.31,2.16Z" transform="translate(0 0.05)"/><path class="cls-7" d="M1040.53,321.13c2.53,0,2.91-2.19.36-2.19s-2.91,2.19-.36,2.19Z" transform="translate(0 0.05)"/><path class="cls-7" d="M1021.32,304.89c2.43,0,2.42-2.1,0-2.1s-2.42,2.1,0,2.1Z" transform="translate(0 0.05)"/></g><path class="cls-8" d="M381.27,727c-1.94-4.11-3.95-8.19-5.72-12.34-1.51-3.52-4.11-6.46-6.7-9.5s-6.26-5.33-8.12-8.79a4.3,4.3,0,0,0-4.57-1.86,17.9,17.9,0,0,1-2.73-.08l-4.14-.06c8.89,7.9,14.77,20.66,15.11,35.14a42.46,42.46,0,0,1,16.52,3.1c.37.16.78.26,1.58.52A12.57,12.57,0,0,0,381.27,727Z" transform="translate(0 0.05)"/></g></g></svg>