<svg id="Layer_1" data-name="Layer 1" xmlns="http://www.w3.org/2000/svg" viewBox="0 0 118.88 218.68"><defs><style>.cls-1{fill:#9adbf9;}.cls-2{fill:#252525;}.cls-3{fill:#fecc8d;}.cls-4{fill:#151515;}.cls-5{fill:#faac73;}.cls-6{fill:#fff;}.cls-7{fill:#2c5caa;}.cls-8{fill:#1e489e;}.cls-9{fill:#5d2016;}.cls-10{fill:#f16275;}.cls-11{fill:#00aeef;}.cls-12{fill:#e6e7e8;}</style></defs><title>bgplay</title><ellipse class="cls-1" cx="54.58" cy="201.98" rx="53.01" ry="16.71"/><path class="cls-2" d="M72.57,200.69s-2.09-.84-5.73,2.93-6.29,8.24-3.35,12.18,9.57,5,12.56,3.79,4.66-11.44,4.54-12.87a9.23,9.23,0,0,0-.48-2.33Z" transform="translate(-41.12 -15.66)"/><path class="cls-3" d="M77.91,178.27s-5.4,20.57-6.16,22.74-5.62,6.77-.25,10.18,7.49-4.26,8.61-6.8,12.57-21.18,12.57-21.18S80.2,180,77.91,178.27Z" transform="translate(-41.12 -15.66)"/><path class="cls-4" d="M63.1,208.62s-2.11,2-2.1,4.31c0,2,1.32,4.56,6,6.89s8.78,1.45,10.08-.08,4-8.49,4-10.9c0-1.2-.55-2.69-.5-2.12.12,1.43-2.45,9.56-5,11.35s-7.89-.17-9.51-1.28C62,214,62.51,211.47,63.1,208.62Z" transform="translate(-41.12 -15.66)"/><path class="cls-5" d="M80.41,179.48a11.63,11.63,0,0,1-2.5-1.21s-5.4,20.57-6.16,22.74-5.62,6.77-.25,10.18h0c-2.72-2.82.47-7.42,2-10.72C74.87,197.46,79,183.77,80.41,179.48Z" transform="translate(-41.12 -15.66)"/><path class="cls-6" d="M71.75,201c-.76,2.17-5.62,6.77-.25,10.18s7.49-4.26,8.61-6.8c.44-1,2.43-4.4,4.7-8.2a40.62,40.62,0,0,1-10.64-3.86C73.05,196.48,72,200.16,71.75,201Z" transform="translate(-41.12 -15.66)"/><path class="cls-2" d="M79.65,207s-.48-2.62-8.78-4.76l-1.36,2.05s7.51,2.53,9.23,5.32Z" transform="translate(-41.12 -15.66)"/><path class="cls-3" d="M106.49,182.47s5.09,22.6,6,25.25,10.6,4.72,10.6,4.72l3.67-3.5-.36-.81a8.46,8.46,0,0,1-4.08-2.65c-1.39-1.9-2.12-25.7-2.12-25.7Z" transform="translate(-41.12 -15.66)"/><path class="cls-5" d="M114.5,199.36c-6-9.68.15-16.79.15-16.79l-1.06-1.5-7.1,1.4s3.29,14.61,5,21.71C114.79,205.08,118,205,114.5,199.36Z" transform="translate(-41.12 -15.66)"/><path class="cls-6" d="M122.29,205.48c-.54-.74-1-4.87-1.33-9.6-3.64,2-8.32,2-11,1.87,1.1,4.7,2.12,8.92,2.47,10,.88,2.66,10.6,4.72,10.6,4.72l3.67-3.5-.36-.81A8.46,8.46,0,0,1,122.29,205.48Z" transform="translate(-41.12 -15.66)"/><path class="cls-2" d="M112.46,207.72a42.42,42.42,0,0,0,6.74,1.91c4.65,1,5.71-.24,6.77-1.48s7.15-.55,8.55,2.32-2.3,5.07-9.72,6.69-15-1.3-15.64-2.68S110.67,208.24,112.46,207.72Z" transform="translate(-41.12 -15.66)"/><path class="cls-4" d="M109,213.86a67.63,67.63,0,0,0,12,1.9c8,.61,12.93-2.87,13.9-4a1.83,1.83,0,0,1-.18,2.58,18.47,18.47,0,0,1-13.86,3.91c-7.08-.86-11.35-1.62-12-2.11S108.16,213.79,109,213.86Z" transform="translate(-41.12 -15.66)"/><path class="cls-7" d="M81.65,154s-10,26.24-9.82,28.87,10.93,7.86,20.39,6.31c3-.5,7.88-11.37,7.88-11.37s-.49,9,2.07,11.1S122.4,187,125,183.78s-2.37-30.25-3.62-32.1S81.65,154,81.65,154Z" transform="translate(-41.12 -15.66)"/><path class="cls-8" d="M106.28,187c-4.15-1.54-4.77-14.77-4.77-14.77l-1.41,5.58s-.49,9,2.07,11.1c2,1.65,13.42-.45,19.44-3C116.59,187.36,109.61,188.21,106.28,187Z" transform="translate(-41.12 -15.66)"/><path class="cls-8" d="M92.94,188.84c-10.41,2.37-17.12-8.68-12.67-20.65s14.31-8.77,14.31-8.77l4.84-7.16C90.23,153,81.65,154,81.65,154s-10,26.24-9.82,28.87,10.93,7.86,20.39,6.31A2.21,2.21,0,0,0,92.94,188.84Z" transform="translate(-41.12 -15.66)"/><path class="cls-9" d="M71.33,94.48s-2.67,7.39-6.78,9v-6a14.38,14.38,0,0,1-4.72,3.07s2.06-7.38-2.25-11.69S48.14,73.13,49,59,60.45,33.72,60.45,33.72s-7.59.21-11.29,4.52c0,0,3.49-12.11,14-7.8,0,0,.61-11.9,9.85-14,0,0-3.69,5.14-2.46,9.24a22.72,22.72,0,0,1,19.7-10.06S85.49,17.92,83.85,21c0,0,15-4.52,34.68,1.44l-1,7.18L82.21,36.8,60.45,50.55,60,69.85Z" transform="translate(-41.12 -15.66)"/><path class="cls-3" d="M63,80.47s-8.31-3.23-9.69,4.15S61.58,94.17,66,90.94c0,0,12.63,22,39.87,19.08s51.3-26.8,40.64-57.87c-5.39-15.71-37.41-17.24-53.72-15.71S59.12,57.69,63,80.47Z" transform="translate(-41.12 -15.66)"/><path class="cls-5" d="M105.91,110c18.29-2,35.13-13.38,41-30.07-6.69,8-24.18,26.44-43,25-24-1.84-36.64-19.39-28.79-42A16.9,16.9,0,0,0,76.2,68s1.08-10.16,5.85-14.47,7.39-4.16,7.39-4.16,16,15.86,35.4,10.47a11.36,11.36,0,0,1-6.61-4.31s23.84,2,28.85-1.67c-.05-.18-.11-.36-.17-.55L102.48,36c-3.54,0-6.83.2-9.65.46-12.49,1.18-25.59,13-29.34,28.68L63.27,81.7A51.48,51.48,0,0,0,66,90.94S78.67,113,105.91,110Z" transform="translate(-41.12 -15.66)"/><path class="cls-6" d="M126.08,61.84c-7.46.44-10,11.34-4.31,16.38s13.23-1.8,12.77-8.82S129.15,61.66,126.08,61.84Z" transform="translate(-41.12 -15.66)"/><path class="cls-6" d="M93.13,60.3c-8.81.4-10.77,7.24-7.08,14.94s14.32,4.61,16.63-2.16A9.53,9.53,0,0,0,93.13,60.3Z" transform="translate(-41.12 -15.66)"/><path class="cls-9" d="M81.28,27.67C60.67,41.73,51.11,56,56.65,71.39S68,84.93,68,84.93c-4-22.78,8.32-37.56,8.32-37.56s-1.85,6.16-.62,11.09c0,0,2.16-11.7,11.7-15.09,0,0,12,16.32,31.71,15.7,0,0-5.54-3.38-8.31-7.69,0,0,20.62,6.46,37.86,2.46A39.1,39.1,0,0,0,131.46,28.9s9.86.93,16.32-6.77c0,0-15.7,4.62-29.25.31S88.05,23.05,81.28,27.67Z" transform="translate(-41.12 -15.66)"/><path class="cls-9" d="M98.11,69.64a4.21,4.21,0,1,1-4.21-4.21A4.2,4.2,0,0,1,98.11,69.64Z" transform="translate(-41.12 -15.66)"/><circle class="cls-6" cx="51.43" cy="52.56" r="1.79"/><path class="cls-6" d="M96.5,72.06a.81.81,0,1,1-.8-.81A.8.8,0,0,1,96.5,72.06Z" transform="translate(-41.12 -15.66)"/><path class="cls-9" d="M129.62,70.18a3.49,3.49,0,1,1-3.49-3.49A3.49,3.49,0,0,1,129.62,70.18Z" transform="translate(-41.12 -15.66)"/><circle class="cls-6" cx="83.88" cy="53.34" r="1.49"/><circle class="cls-6" cx="86.5" cy="56.52" r="0.67"/><path class="cls-9" d="M88,49.12c-.69-.86-7,.84-6.36,5.33.41,2.88,2.46-1.64,3.9-2.25S88.77,50.14,88,49.12Z" transform="translate(-41.12 -15.66)"/><path class="cls-10" d="M103.51,86.36c.63-2.51,6.59,3,11.82,1.1s1.09,7.42-4.68,8S102.41,90.76,103.51,86.36Z" transform="translate(-41.12 -15.66)"/><path class="cls-5" d="M59.89,83.24c-4.18-.17-3.85,5.54-.77,6s4.77-1.69,3.07-2.31S63.58,83.39,59.89,83.24Z" transform="translate(-41.12 -15.66)"/><path class="cls-5" d="M109.14,74.62c2.32-1.85,8.16,3.23,6.31,6.16s-6.92,1.07-7.38-.62S108.37,75.24,109.14,74.62Z" transform="translate(-41.12 -15.66)"/><path class="cls-11" d="M97.39,107.2" transform="translate(-41.12 -15.66)"/><path class="cls-3" d="M75.64,118.33a35.24,35.24,0,0,0-5.77,0c-1.14.1-7.62-6.47-11-7.94-2.14-.93-1.56-2.93-2.34-5.69s-1.3-6-3.62-5.82c-2.13.15-1,1.58-.8,3.57a17.16,17.16,0,0,1,.06,1.87S48.62,98.17,46.15,99s2.15,4.8,2.15,4.8-4.45-3.57-5.71-2,4.3,4.92,4.3,4.92-5.08-3-5.72-1.14,4.77,3.93,4.77,3.93-4.25-1.39-4.49.15,6.66,6.41,11.22,5.58c0,0,6.75,9.93,13.94,12.1s11.43.78,11.43.78Z" transform="translate(-41.12 -15.66)"/><path class="cls-5" d="M69.87,118.34c-1.14.1-7.62-6.47-11-7.94-2.14-.93-1.56-2.93-2.34-5.69s-1.3-6-3.62-5.82h0c.85,1.7,2.73,5.7,3,8.42.31,3.54.16,4.47,3.08,5.24s6.62,6,8.47,7.23,2.92,4.77,2.46,6c-.4,1.07-8.15-1.59-12.48-4.84,2.53,2.62,5.82,5.38,9.22,6.41,7.2,2.17,11.43.78,11.43.78l-2.4-9.81A35.24,35.24,0,0,0,69.87,118.34Z" transform="translate(-41.12 -15.66)"/><path class="cls-6" d="M105.28,126.4s3.55-8.2-5.39-13.39-27.4,3.34-28.48,3.92.38,12.38,1.93,13.09C76,131.25,86,124.92,90,127.48S104.07,126.68,105.28,126.4Z" transform="translate(-41.12 -15.66)"/><path class="cls-3" d="M127.9,115.26a34.81,34.81,0,0,1,5.68-1c1.13-.11,6.32-7.74,9.35-9.79,1.93-1.3,1-3.17,1.28-6s.19-6.12,2.51-6.38c2.12-.24,1.25,1.38,1.43,3.37a16.11,16.11,0,0,0,.27,1.85s2.42-6.71,5-6.36-1.24,5.1-1.24,5.1,3.72-4.31,5.25-2.94-3.34,5.61-3.34,5.61,4.46-3.87,5.42-2.15-4,4.72-4,4.72,3.92-2.13,4.44-.66-5.4,7.51-10,7.52c0,0-4.85,11-11.54,14.41s-11.09,2.83-11.09,2.83Z" transform="translate(-41.12 -15.66)"/><path class="cls-5" d="M133.58,114.23c1.13-.11,6.32-7.74,9.35-9.79,1.93-1.3,1-3.17,1.28-6s.19-6.12,2.51-6.38h0c-.53,1.82-1.66,6.09-1.4,8.82.34,3.53.65,4.41-2.08,5.7s-5.43,7.1-7,8.64-2,5.22-1.34,6.35,7.73-3,11.41-7c-2,3-4.76,6.35-7.92,8-6.68,3.43-11.09,2.83-11.09,2.83l.59-10.08A34.81,34.81,0,0,1,133.58,114.23Z" transform="translate(-41.12 -15.66)"/><path class="cls-6" d="M100.2,128.55s-5-7.43,2.89-14.15,27.54-1.66,28.71-1.28,1.86,12.25.47,13.22c-2.43,1.7-13.32-2.74-16.81.5S101.44,128.6,100.2,128.55Z" transform="translate(-41.12 -15.66)"/><path class="cls-5" d="M93,108.52s1.23,2.86.92,4.57,11,3.45,11,3.45l4.51-2.78s1.64-3.84,1.42-4.87S93,108.52,93,108.52Z" transform="translate(-41.12 -15.66)"/><path class="cls-6" d="M96,111.42s1.21,3.43,7.86,4,5.69-4.31,5.69-4.31,9.44.21,12.46,9.25,3.47,34.32,2.71,37.06c0,0-19.36,13.58-45.09-3.33,0,0,1-10.16,1.11-17.88C80.88,128.22,74.64,112.21,96,111.42Z" transform="translate(-41.12 -15.66)"/><path class="cls-7" d="M100.74,121S95.87,146,95.13,148.08s8,10.91,9.77,11.28,7.76-7.74,8.3-8.8-8.44-30.17-8.44-30.17Z" transform="translate(-41.12 -15.66)"/><path class="cls-8" d="M98.24,120.77s3.09,2.42,5.26,2.19,4.46-3.7,4.46-3.7l-2.87-3.64s-.31-.63-2.83-.1S97,118.57,98.24,120.77Z" transform="translate(-41.12 -15.66)"/><path class="cls-8" d="M110.73,140.41,97.6,152.71a44,44,0,0,0,3.21,3.48L112,145C111.62,143.58,111.19,142,110.73,140.41Z" transform="translate(-41.12 -15.66)"/><path class="cls-8" d="M108.07,131.34l-11.63,11c-.62,2.94-1.11,5.16-1.31,5.73a1.22,1.22,0,0,0,0,.7l14.08-13.49C108.85,134,108.46,132.62,108.07,131.34Z" transform="translate(-41.12 -15.66)"/><path class="cls-12" d="M94.83,110.45c-3.34.13-2.83.44-3.63,2.41s3.4,7.65,5.8,8.84,5.08-5.36,6.08-6S96.17,110.4,94.83,110.45Z" transform="translate(-41.12 -15.66)"/><path class="cls-12" d="M109.17,110.87c2.65,0,2.27.24,3,1.77s-2.28,6.19-4.12,7.22-4.31-4-5.14-4.51S108.1,110.88,109.17,110.87Z" transform="translate(-41.12 -15.66)"/></svg>