<svg xmlns="http://www.w3.org/2000/svg" viewBox="0 0 1921 1081.97"><defs><style>.cls-1{isolation:isolate;}.cls-2{fill:#071621;}.cls-3,.cls-4,.cls-5{fill-rule:evenodd;}.cls-3{opacity:0.2;}.cls-10,.cls-19,.cls-24,.cls-3,.cls-31{mix-blend-mode:multiply;}.cls-4{fill:#fff;}.cls-5,.cls-6{fill:#d9d9d9;}.cls-7{opacity:0.3;}.cls-8{fill:#ededed;}.cls-9{fill:#d84444;}.cls-10{fill:#aa951b;opacity:0.35;}.cls-11{fill:#c33;}.cls-11,.cls-34,.cls-38,.cls-39,.cls-48{mix-blend-mode:screen;}.cls-12{fill:#63c;}.cls-13{fill:#28a5ea;}.cls-14{fill:#ccc;}.cls-15{fill:#999;}.cls-16{fill:#f2d9a2;}.cls-17{fill:#cc9e87;}.cls-18{fill:#db9d82;}.cls-19{fill:#ba5d54;}.cls-19,.cls-24{opacity:0.42;}.cls-20{fill:#07ae76;}.cls-21{fill:#a8dda8;}.cls-22{fill:#9ff;}.cls-23{fill:#77d2dc;}.cls-24{fill:#5588b7;}.cls-25{fill:#d8d5d3;}.cls-26{fill:#fef8e0;}.cls-27{fill:#ffcd50;}.cls-28{fill:#fcf09d;}.cls-29{fill:#c9a84e;}.cls-30,.cls-31{fill:#ffdf4d;}.cls-32{fill:#c99;}.cls-33,.cls-34{fill:#c2c3c0;}.cls-35{fill:#8a8d94;}.cls-36{fill:#323028;}.cls-37{fill:#fdfdf3;}.cls-38{fill:#aaa9a5;}.cls-39{fill:#9c9a91;opacity:0.17;}.cls-40{fill:#fff8ed;}.cls-41{fill:#404345;}.cls-42{fill:#85baf6;}.cls-43{fill:#63627b;}.cls-44{fill:#c0bcc8;}.cls-45,.cls-48{fill:#737485;}.cls-46{fill:#2e2e2e;}.cls-47{fill:#4a4a5c;}.cls-48{opacity:0.75;}.cls-49{fill:#606060;opacity:0.14;}</style></defs><title>bgplaypractice</title><g class="cls-1"><g id="Layer_1" data-name="Layer 1"><rect class="cls-2" y="0.05" width="1921" height="1081"/><path class="cls-3" d="M1171.07,748.8a26.72,26.72,0,0,0-3,1.92,40.7,40.7,0,0,0-6.67,6.57,34.13,34.13,0,0,0-4.59,7.06c-1.26,2.61-1.9,5.41-3,8.76-2.72,0-5.26.16-7.78,0a27,27,0,0,0-12.38,2.46c-6.49,2.73-11.49,6.52-14.76,11.77a8.16,8.16,0,0,1-1.42,1.24c-21.37-8-45.74-4.57-47.64-4.07-1.35-3.09-2.53-6.08-4-9-1.83-3.71-4.9-6.79-8.45-9.53a14,14,0,0,0-6.81-2.66l-7.07-1a15.23,15.23,0,0,1-2.78,5.17,14,14,0,0,0-1.56,3.45c4.06.56,7.73,1.08,11.41,1.56a14,14,0,0,1,6.81,2.66,28.39,28.39,0,0,1,8.45,9.54c1.43,2.9,2.61,5.89,4,9a44.33,44.33,0,0,0,5.59-1.51,47,47,0,0,1,14.78-3.1c6.76-.49,13.37.15,19,3.67,1.39.87,3,1.55,4.38,2.4s2.55,1.72,3.86,2.62a8.56,8.56,0,0,0,1.42-1.25c3.27-5.25,8.27-9,14.76-11.77a27.26,27.26,0,0,1,12.38-2.46c2.52.15,5.06,0,7.78,0,1.13-3.35,1.77-6.14,3-8.75a33.93,33.93,0,0,1,4.59-7.07,40.7,40.7,0,0,1,6.67-6.57c2.49-1.9,5.56-3.31,8.48-5-1.44-1.53-3-3.12-4.48-4.76A10.07,10.07,0,0,1,1171.07,748.8Z" transform="translate(1 1.05)"/><path class="cls-4" d="M478.56,460s0-.09,0-.14l-.17,0Z" transform="translate(1 1.05)"/><path class="cls-5" d="M1195.43,374.43c0,2-2,3.62-4.53,3.62s-4.53-1.62-4.53-3.62,2-3.61,4.53-3.61S1195.43,372.44,1195.43,374.43Z" transform="translate(1 1.05)"/><path class="cls-5" d="M644.67,343.71c0,2-2,3.56-4.47,3.56s-4.47-1.59-4.47-3.56,2-3.56,4.47-3.56S644.67,341.75,644.67,343.71Z" transform="translate(1 1.05)"/><path class="cls-5" d="M727.14,396.83c0,2.23-2.27,4-5.07,4s-5.07-1.81-5.07-4,2.27-4.05,5.07-4.05S727.14,394.59,727.14,396.83Z" transform="translate(1 1.05)"/><path class="cls-5" d="M920.34,705.69c0,2.08-2.11,3.76-4.72,3.76s-4.72-1.68-4.72-3.76,2.11-3.77,4.72-3.77S920.34,703.61,920.34,705.69Z" transform="translate(1 1.05)"/><path class="cls-5" d="M222.79,544c0,1.4-1.43,2.54-3.18,2.54s-3.19-1.14-3.19-2.54,1.43-2.54,3.19-2.54S222.79,542.57,222.79,544Z" transform="translate(1 1.05)"/><path class="cls-5" d="M819.32,601.19c0,2.42-2.46,4.39-5.5,4.39s-5.5-2-5.5-4.39,2.46-4.38,5.5-4.38S819.32,598.77,819.32,601.19Z" transform="translate(1 1.05)"/><path class="cls-5" d="M416.93,604.37c0,1.53-1.55,2.77-3.47,2.77S410,605.9,410,604.37s1.55-2.76,3.47-2.76S416.93,602.85,416.93,604.37Z" transform="translate(1 1.05)"/><ellipse class="cls-6" cx="579.5" cy="584.69" rx="4.59" ry="3.66"/><path class="cls-5" d="M663.17,691.87c0,1.42-1.44,2.57-3.23,2.57s-3.23-1.15-3.23-2.57,1.45-2.58,3.23-2.58S663.17,690.44,663.17,691.87Z" transform="translate(1 1.05)"/><path class="cls-5" d="M1222.4,638c0,2.51-2.55,4.55-5.7,4.55s-5.71-2-5.71-4.55,2.55-4.55,5.71-4.55S1222.4,635.49,1222.4,638Z" transform="translate(1 1.05)"/><path class="cls-5" d="M885.45,340.85c0,1.39-1.42,2.52-3.16,2.52s-3.15-1.13-3.15-2.52,1.41-2.52,3.15-2.52S885.45,339.46,885.45,340.85Z" transform="translate(1 1.05)"/><path class="cls-5" d="M981.9,295.56c0,1.39-1.41,2.51-3.15,2.51s-3.15-1.12-3.15-2.51,1.41-2.51,3.15-2.51S981.9,294.17,981.9,295.56Z" transform="translate(1 1.05)"/><path class="cls-5" d="M903.34,316.76a2.2,2.2,0,1,1-2.15-1.72A2,2,0,0,1,903.34,316.76Z" transform="translate(1 1.05)"/><path class="cls-5" d="M1076.11,458.32c0,1.61-1.63,2.91-3.65,2.91s-3.64-1.3-3.64-2.91,1.63-2.91,3.64-2.91S1076.11,456.71,1076.11,458.32Z" transform="translate(1 1.05)"/><path class="cls-5" d="M488.69,840.74c0,1.37-1.39,2.48-3.11,2.48s-3.11-1.11-3.11-2.48,1.39-2.48,3.11-2.48S488.69,839.37,488.69,840.74Z" transform="translate(1 1.05)"/><path class="cls-5" d="M836,738.09a2.89,2.89,0,1,1-2.82-2.25A2.58,2.58,0,0,1,836,738.09Z" transform="translate(1 1.05)"/><path class="cls-5" d="M869.73,473.69c0,2-2.07,3.69-4.62,3.69s-4.63-1.65-4.63-3.69,2.07-3.69,4.63-3.69S869.73,471.65,869.73,473.69Z" transform="translate(1 1.05)"/><path class="cls-5" d="M1076.55,247.46c0,1.69-1.72,3.06-3.84,3.06s-3.85-1.37-3.85-3.06,1.72-3.07,3.85-3.07S1076.55,245.76,1076.55,247.46Z" transform="translate(1 1.05)"/><path class="cls-5" d="M506.88,239.05v0Z" transform="translate(1 1.05)"/><path class="cls-5" d="M562.56,269.44a2.51,2.51,0,1,1-2.45-1.95A2.25,2.25,0,0,1,562.56,269.44Z" transform="translate(1 1.05)"/><path class="cls-5" d="M717,245.57v0Z" transform="translate(1 1.05)"/><g class="cls-7"><path class="cls-8" d="M279.4,120.22c8.25,0,8.68-7.07.42-7.07s-8.68,7.07-.42,7.07Z" transform="translate(1 1.05)"/><path class="cls-8" d="M504.38,69.7c10.17,0,10.62-8.7.47-8.7s-10.62,8.7-.47,8.7Z" transform="translate(1 1.05)"/><path class="cls-8" d="M536.42,158c8.2,0,8.15-7,0-7s-8.15,7,0,7Z" transform="translate(1 1.05)"/><path class="cls-8" d="M669,153.88c4.87,0,3.83-4.13-1-4.13s-3.82,4.13,1,4.13Z" transform="translate(1 1.05)"/><path class="cls-8" d="M757.06,150.34c9.22,0,8.05-7.86-1.08-7.86s-8,7.86,1.08,7.86Z" transform="translate(1 1.05)"/><path class="cls-8" d="M896.54,147.51c9,0,7.61-7.61-1.23-7.61s-7.61,7.61,1.23,7.61Z" transform="translate(1 1.05)"/><path class="cls-8" d="M912.52,105.62c5.68,0,6.81-4.89,1.06-4.89s-6.81,4.89-1.06,4.89Z" transform="translate(1 1.05)"/><path class="cls-8" d="M1162.92,73.49c9.59,0,8.7-8.18-.82-8.18s-8.69,8.18.82,8.18Z" transform="translate(1 1.05)"/><path class="cls-8" d="M1211.71,148c10.08,0,9.48-8.62-.57-8.62s-9.48,8.62.57,8.62Z" transform="translate(1 1.05)"/><path class="cls-8" d="M1362.41,123.93c10.56,0,12-9.08,1.3-9.08s-12,9.08-1.3,9.08Z" transform="translate(1 1.05)"/><path class="cls-8" d="M1458,212.89c10.11,0,11.13-8.67,1-8.67s-11.14,8.67-1,8.67Z" transform="translate(1 1.05)"/><path class="cls-8" d="M1591,148.36c10.91,0,9.76-9.3-1-9.3s-9.76,9.3,1,9.3Z" transform="translate(1 1.05)"/><path class="cls-8" d="M1754.29,122c6.13,0,6.3-5.24.16-5.24s-6.29,5.24-.16,5.24Z" transform="translate(1 1.05)"/><path class="cls-8" d="M1703.45,243.34c5.56,0,4.61-4.73-.88-4.73s-4.61,4.73.88,4.73Z" transform="translate(1 1.05)"/><path class="cls-8" d="M1796.41,287.76c5.17,0,4.18-4.4-.92-4.4s-4.18,4.4.92,4.4Z" transform="translate(1 1.05)"/><path class="cls-8" d="M252.44,232.19c11,0,11.59-9.45.54-9.45s-11.6,9.45-.54,9.45Z" transform="translate(1 1.05)"/><path class="cls-8" d="M142.87,162.41c9,0,8.53-7.69-.44-7.69s-8.53,7.69.44,7.69Z" transform="translate(1 1.05)"/><path class="cls-8" d="M135.47,300.07c5.49,0,5.16-4.7-.31-4.7s-5.16,4.7.31,4.7Z" transform="translate(1 1.05)"/><path class="cls-8" d="M249.24,311.61c10.28,0,12.47-8.86,2-8.86-10.27,0-12.47,8.86-2,8.86Z" transform="translate(1 1.05)"/><path class="cls-8" d="M113.6,370.34c5.55,0,4.92-4.73-.59-4.73s-4.92,4.73.59,4.73Z" transform="translate(1 1.05)"/><path class="cls-8" d="M88.88,453.75c7.87,0,7.77-6.73-.07-6.73s-7.77,6.73.07,6.73Z" transform="translate(1 1.05)"/><path class="cls-8" d="M127.49,533.61c5,0,6.06-4.34,1-4.34s-6.06,4.34-1,4.34Z" transform="translate(1 1.05)"/><path class="cls-8" d="M193.11,568.26c10.22,0,12.1-8.79,1.8-8.79s-12.1,8.79-1.8,8.79Z" transform="translate(1 1.05)"/><path class="cls-8" d="M122.6,665.39c6.76,0,7.78-5.81,1-5.81s-7.77,5.81-1,5.81Z" transform="translate(1 1.05)"/><path class="cls-8" d="M115.82,779.4c4.88,0,4.7-4.16-.15-4.16s-4.7,4.16.15,4.16Z" transform="translate(1 1.05)"/><path class="cls-8" d="M160.56,815.27c9.82,0,8.11-8.35-1.58-8.35s-8.11,8.35,1.58,8.35Z" transform="translate(1 1.05)"/><path class="cls-8" d="M84.53,870c8.34,0,7.1-7.11-1.15-7.11S76.28,870,84.53,870Z" transform="translate(1 1.05)"/><path class="cls-8" d="M235.41,902.4c5,0,5.37-4.28.35-4.28s-5.36,4.28-.35,4.28Z" transform="translate(1 1.05)"/><path class="cls-8" d="M164.41,962c5.4,0,5.93-4.63.5-4.63S159,962,164.41,962Z" transform="translate(1 1.05)"/><path class="cls-8" d="M71.21,1012.22c5.86,0,7-5.06,1-5.06s-7,5.06-1,5.06Z" transform="translate(1 1.05)"/><path class="cls-8" d="M250,1041.22c10.55,0,11.09-9,.54-9s-11.08,9-.54,9Z" transform="translate(1 1.05)"/><path class="cls-8" d="M373,919.88c4.83,0,3.84-4.11-.92-4.11s-3.84,4.11.92,4.11Z" transform="translate(1 1.05)"/><path class="cls-8" d="M475.77,968.92c5.79,0,4.7-4.92-1-4.92s-4.7,4.92,1,4.92Z" transform="translate(1 1.05)"/><path class="cls-8" d="M641.31,929.12c10.61,0,11.15-9.09.53-9.09s-11.15,9.09-.53,9.09Z" transform="translate(1 1.05)"/><path class="cls-8" d="M758.16,970.88c10.3,0,12-8.84,1.61-8.84s-12,8.84-1.61,8.84Z" transform="translate(1 1.05)"/><path class="cls-8" d="M914.7,946.08c9.17,0,10.82-7.88,1.59-7.88s-10.82,7.88-1.59,7.88Z" transform="translate(1 1.05)"/><path class="cls-8" d="M1054.59,992.46c10.23,0,10.89-8.77.62-8.77s-10.89,8.77-.62,8.77Z" transform="translate(1 1.05)"/><path class="cls-8" d="M1136,923.74c7.54,0,6.66-6.43-.83-6.43s-6.66,6.43.83,6.43Z" transform="translate(1 1.05)"/><path class="cls-8" d="M1309.68,966.06c5.4,0,4.48-4.6-.85-4.6s-4.48,4.6.85,4.6Z" transform="translate(1 1.05)"/><path class="cls-8" d="M1443.23,1001.9c7,0,8.16-6,1.07-6s-8.16,6-1.07,6Z" transform="translate(1 1.05)"/><path class="cls-8" d="M1488.31,1046.21c6.46,0,5.35-5.49-1-5.49s-5.35,5.49,1,5.49Z" transform="translate(1 1.05)"/><path class="cls-8" d="M1646.5,1028.84c6.86,0,7.41-5.88.52-5.88s-7.41,5.88-.52,5.88Z" transform="translate(1 1.05)"/><path class="cls-8" d="M1792.63,957.61c10.83,0,12.69-9.32,1.75-9.32s-12.69,9.32-1.75,9.32Z" transform="translate(1 1.05)"/><path class="cls-8" d="M1654.63,879.72c5.69,0,4.55-4.85-1.06-4.85s-4.56,4.85,1.06,4.85Z" transform="translate(1 1.05)"/><path class="cls-8" d="M1783.68,833c7,0,7.06-6,.08-6s-7.06,6-.08,6Z" transform="translate(1 1.05)"/><path class="cls-8" d="M1764.53,763c10.66,0,9.83-9.09-.75-9.09s-9.83,9.09.75,9.09Z" transform="translate(1 1.05)"/><path class="cls-8" d="M1847.23,749.23c7,0,7.12-6,.16-6s-7.13,6-.16,6Z" transform="translate(1 1.05)"/><path class="cls-8" d="M1861.83,614.1c10.06,0,10.35-8.61.3-8.61s-10.34,8.61-.3,8.61Z" transform="translate(1 1.05)"/><path class="cls-8" d="M1769.5,572.56c7.73,0,6.73-6.58-.91-6.58s-6.73,6.58.91,6.58Z" transform="translate(1 1.05)"/><path class="cls-8" d="M1869.8,524.85c9.88,0,8.85-8.43-1-8.43s-8.85,8.43,1,8.43Z" transform="translate(1 1.05)"/><path class="cls-8" d="M1816,469.42c6.65,0,5.51-5.66-1.06-5.66s-5.5,5.66,1.06,5.66Z" transform="translate(1 1.05)"/><path class="cls-8" d="M42.94,584.16c6.41,0,5.21-5.46-1.12-5.46s-5.21,5.46,1.12,5.46Z" transform="translate(1 1.05)"/><path class="cls-8" d="M139.52,621c7.19,0,8.63-6.19,1.37-6.19s-8.63,6.19-1.37,6.19Z" transform="translate(1 1.05)"/><path class="cls-8" d="M23.54,730.2c9.9,0,8.32-8.43-1.46-8.43s-8.32,8.43,1.46,8.43Z" transform="translate(1 1.05)"/><path class="cls-8" d="M328.87,990.11c7.93,0,7.2-6.77-.69-6.77s-7.2,6.77.69,6.77Z" transform="translate(1 1.05)"/><path class="cls-8" d="M396.53,948.34c5,0,6-4.29,1-4.29s-6,4.29-1,4.29Z" transform="translate(1 1.05)"/><path class="cls-8" d="M392.1,923.87c7.82,0,7.83-6.69,0-6.69s-7.83,6.69,0,6.69Z" transform="translate(1 1.05)"/><path class="cls-8" d="M424.08,918.25c10.48,0,10.12-9-.34-9s-10.12,9,.34,9Z" transform="translate(1 1.05)"/><path class="cls-8" d="M941.83,941.13c7.06,0,8.29-6.09,1.13-6.09s-8.28,6.09-1.13,6.09Z" transform="translate(1 1.05)"/><path class="cls-8" d="M960.06,951.53c9.34,0,8.18-8-1.09-8s-8.18,8,1.09,8Z" transform="translate(1 1.05)"/><path class="cls-8" d="M1610.7,138.93c11,0,9.64-9.36-1.25-9.36s-9.64,9.36,1.25,9.36Z" transform="translate(1 1.05)"/><path class="cls-8" d="M1727.45,155.64c2.62,0,2.66-2.25,0-2.25s-2.66,2.25,0,2.25Z" transform="translate(1 1.05)"/><path class="cls-8" d="M1795.79,132.22c1.57,0,1.91-1.35.32-1.35s-1.91,1.35-.32,1.35Z" transform="translate(1 1.05)"/><path class="cls-8" d="M1803.41,170.44c2.49,0,2.21-2.12-.25-2.12s-2.21,2.12.25,2.12Z" transform="translate(1 1.05)"/><path class="cls-8" d="M1840.1,183.43c1.28,0,1-1.09-.26-1.09s-1,1.09.26,1.09Z" transform="translate(1 1.05)"/><path class="cls-8" d="M1620.09,120.44c2.46,0,2-2.1-.47-2.1s-1.95,2.1.47,2.1Z" transform="translate(1 1.05)"/><path class="cls-8" d="M1387.43,105.28c1.76,0,1.93-1.5.17-1.5s-1.93,1.5-.17,1.5Z" transform="translate(1 1.05)"/><path class="cls-8" d="M1412.22,94.82c2.59,0,2-2.2-.5-2.2s-2,2.2.5,2.2Z" transform="translate(1 1.05)"/><path class="cls-8" d="M1402.25,80.78c1.34,0,1.21-1.14-.12-1.14s-1.21,1.14.12,1.14Z" transform="translate(1 1.05)"/><path class="cls-8" d="M1429.1,78.26c1.76,0,1.75-1.5,0-1.5s-1.76,1.5,0,1.5Z" transform="translate(1 1.05)"/><path class="cls-8" d="M1458.24,71.78c2.38,0,2.81-2,.4-2s-2.81,2-.4,2Z" transform="translate(1 1.05)"/><path class="cls-8" d="M560.68,150.14c2.4,0,2.79-2.06.37-2.06s-2.78,2.06-.37,2.06Z" transform="translate(1 1.05)"/><path class="cls-8" d="M568.31,145.79c1.72,0,1.49-1.46-.21-1.46s-1.5,1.46.21,1.46Z" transform="translate(1 1.05)"/><path class="cls-8" d="M573.14,130c2.59,0,2.51-2.22-.09-2.22s-2.51,2.22.09,2.22Z" transform="translate(1 1.05)"/><path class="cls-8" d="M541.28,124.2c1.77,0,1.82-1.52,0-1.52s-1.82,1.52,0,1.52Z" transform="translate(1 1.05)"/><path class="cls-8" d="M489.87,117.27c1.36,0,1.51-1.17.14-1.17s-1.51,1.17-.14,1.17Z" transform="translate(1 1.05)"/><path class="cls-8" d="M502.07,101.23c1.75,0,2-1.51.2-1.51s-2,1.51-.2,1.51Z" transform="translate(1 1.05)"/><path class="cls-8" d="M265.13,217.77c2.61,0,2.19-2.22-.39-2.22s-2.19,2.22.39,2.22Z" transform="translate(1 1.05)"/><path class="cls-8" d="M304.12,215c2.5,0,2.39-2.14-.1-2.14s-2.39,2.14.1,2.14Z" transform="translate(1 1.05)"/><path class="cls-8" d="M328.56,210.9c2.34,0,2.26-2-.07-2s-2.26,2,.07,2Z" transform="translate(1 1.05)"/><path class="cls-8" d="M174.59,800.57c3.83,0,3.51-3.27-.29-3.27s-3.52,3.27.29,3.27Z" transform="translate(1 1.05)"/><path class="cls-8" d="M174.62,785.21c2.67,0,2.31-2.27-.35-2.27s-2.31,2.27.35,2.27Z" transform="translate(1 1.05)"/><path class="cls-8" d="M174.57,774.05c5,0,4.72-4.27-.25-4.27s-4.72,4.27.25,4.27Z" transform="translate(1 1.05)"/><path class="cls-8" d="M191.72,762.62c3.55,0,3.22-3-.31-3s-3.22,3,.31,3Z" transform="translate(1 1.05)"/><path class="cls-8" d="M221.24,778.73c3.31,0,2.61-2.82-.65-2.82s-2.61,2.82.65,2.82Z" transform="translate(1 1.05)"/><path class="cls-8" d="M152.5,955.76c3.41,0,3.27-2.92-.13-2.92s-3.27,2.92.13,2.92Z" transform="translate(1 1.05)"/><path class="cls-8" d="M130.67,949.23c4,0,3.43-3.37-.5-3.37s-3.43,3.37.5,3.37Z" transform="translate(1 1.05)"/><path class="cls-8" d="M103.56,940.43c5.47,0,5.38-4.68-.08-4.68s-5.38,4.68.08,4.68Z" transform="translate(1 1.05)"/><path class="cls-8" d="M1066.73,980.66c4.76,0,5.59-4.09.79-4.09s-5.58,4.09-.79,4.09Z" transform="translate(1 1.05)"/><path class="cls-8" d="M1098.79,969.89c4.85,0,5.11-4.16.26-4.16s-5.11,4.16-.26,4.16Z" transform="translate(1 1.05)"/><path class="cls-8" d="M1118.63,960.41c4.83,0,4.51-4.12-.29-4.12s-4.5,4.12.29,4.12Z" transform="translate(1 1.05)"/><path class="cls-8" d="M1096.33,937.56c5.09,0,5.38-4.35.29-4.35s-5.38,4.35-.29,4.35Z" transform="translate(1 1.05)"/><path class="cls-8" d="M1116.06,921.85c3.09,0,3-2.65,0-2.65s-3.06,2.65,0,2.65Z" transform="translate(1 1.05)"/><path class="cls-8" d="M1219,928.74c3.42,0,2.91-2.92-.47-2.92s-2.92,2.92.47,2.92Z" transform="translate(1 1.05)"/><path class="cls-8" d="M1265,938.23c3.48,0,4-3,.5-3s-4,3-.5,3Z" transform="translate(1 1.05)"/><path class="cls-8" d="M1289.52,944.53c2.41,0,2.76-2.07.33-2.07s-2.75,2.07-.33,2.07Z" transform="translate(1 1.05)"/><path class="cls-8" d="M712.83,18.22c3.55,0,2.84-3-.66-3s-2.84,3,.66,3Z" transform="translate(1 1.05)"/><path class="cls-8" d="M756.91,11.75c4.21,0,3.38-3.58-.77-3.58s-3.38,3.58.77,3.58Z" transform="translate(1 1.05)"/><path class="cls-8" d="M810.27,7.94c4.75,0,4.86-4.07.11-4.07s-4.86,4.07-.11,4.07Z" transform="translate(1 1.05)"/><path class="cls-8" d="M854.11,7.44c3.58,0,4.09-3.07.48-3.07s-4.09,3.07-.48,3.07Z" transform="translate(1 1.05)"/><path class="cls-8" d="M891.46,19c5.42,0,4.52-4.61-.84-4.61s-4.53,4.61.84,4.61Z" transform="translate(1 1.05)"/><path class="cls-8" d="M918.08,29.54c4.73,0,4.41-4-.28-4s-4.41,4,.28,4Z" transform="translate(1 1.05)"/><path class="cls-8" d="M949.49,24.57c2.55,0,3.07-2.2.49-2.2s-3.07,2.2-.49,2.2Z" transform="translate(1 1.05)"/><path class="cls-8" d="M971.75,16c4.62,0,4.62-4,0-4s-4.63,4,0,4Z" transform="translate(1 1.05)"/><path class="cls-8" d="M993.38,8c4.76,0,5.56-4.09.75-4.09S988.57,8,993.38,8Z" transform="translate(1 1.05)"/><path class="cls-8" d="M1030.29,2.06c3.63,0,4-3.11.31-3.11s-3.95,3.11-.31,3.11Z" transform="translate(1 1.05)"/><path class="cls-8" d="M1131,52.77c5.34,0,4.72-4.56-.59-4.56s-4.71,4.56.59,4.56Z" transform="translate(1 1.05)"/><path class="cls-8" d="M1258.15,37.29c3.92,0,3.35-3.33-.51-3.33s-3.36,3.33.51,3.33Z" transform="translate(1 1.05)"/><path class="cls-8" d="M1511.84,32.45c5.18,0,6-4.45.81-4.45s-6,4.45-.81,4.45Z" transform="translate(1 1.05)"/><path class="cls-8" d="M1566.29,248.77c2.45,0,1.93-2.08-.48-2.08s-1.93,2.08.48,2.08Z" transform="translate(1 1.05)"/><path class="cls-8" d="M1585.75,258.09c5.27,0,5-4.5-.26-4.5s-5,4.5.26,4.5Z" transform="translate(1 1.05)"/><path class="cls-8" d="M1603,263.89c3,0,2.58-2.6-.44-2.6s-2.58,2.6.44,2.6Z" transform="translate(1 1.05)"/><path class="cls-8" d="M1634.62,254.74c3.74,0,3.55-3.2-.17-3.2s-3.56,3.2.17,3.2Z" transform="translate(1 1.05)"/><path class="cls-8" d="M1710.53,429.18c4.14,0,3.74-3.53-.36-3.53s-3.75,3.53.36,3.53Z" transform="translate(1 1.05)"/><path class="cls-8" d="M1744.12,424.29c5.28,0,6.3-4.56.94-4.56s-6.3,4.56-.94,4.56Z" transform="translate(1 1.05)"/><path class="cls-8" d="M1785.84,418.53c4.46,0,5.18-3.85.66-3.85s-5.18,3.85-.66,3.85Z" transform="translate(1 1.05)"/><path class="cls-8" d="M1781.39,403.63c4.41,0,4.16-3.77-.23-3.77s-4.16,3.77.23,3.77Z" transform="translate(1 1.05)"/><path class="cls-8" d="M135.2,148.21c4.21,0,4.44-3.6.23-3.6s-4.44,3.6-.23,3.6Z" transform="translate(1 1.05)"/><path class="cls-8" d="M118.46,139c4.9,0,4.32-4.18-.53-4.18s-4.32,4.18.53,4.18Z" transform="translate(1 1.05)"/><path class="cls-8" d="M95.88,133.36c4.21,0,4.86-3.62.61-3.62s-4.86,3.62-.61,3.62Z" transform="translate(1 1.05)"/><path class="cls-8" d="M59.61,141.65c4.66,0,4.41-4-.22-4s-4.42,4,.22,4Z" transform="translate(1 1.05)"/><path class="cls-8" d="M610,924.73c3.53,0,3.17-3-.34-3s-3.17,3,.34,3Z" transform="translate(1 1.05)"/><path class="cls-8" d="M1333.9,958.07c2.51,0,2.09-2.14-.38-2.14s-2.09,2.14.38,2.14Z" transform="translate(1 1.05)"/><path class="cls-8" d="M1372.92,946c2.7,0,2.52-2.31-.16-2.31s-2.52,2.31.16,2.31Z" transform="translate(1 1.05)"/><path class="cls-8" d="M485.18,1060.32c4.67,0,4.39-4-.26-4s-4.39,4,.26,4Z" transform="translate(1 1.05)"/><path class="cls-8" d="M521.92,1051.58c3.2,0,2.79-2.72-.37-2.72s-2.79,2.72.37,2.72Z" transform="translate(1 1.05)"/><path class="cls-8" d="M533.79,1063.33c5.36,0,5.73-4.6.35-4.6s-5.73,4.6-.35,4.6Z" transform="translate(1 1.05)"/><path class="cls-8" d="M563.61,1057.39c4.15,0,3.5-3.53-.6-3.53s-3.49,3.53.6,3.53Z" transform="translate(1 1.05)"/><path class="cls-8" d="M585.37,1064.77c2.42,0,2.33-2.08-.09-2.08s-2.34,2.08.09,2.08Z" transform="translate(1 1.05)"/><path class="cls-8" d="M573.18,1026.64c4.88,0,4.7-4.18-.17-4.18s-4.7,4.18.17,4.18Z" transform="translate(1 1.05)"/><path class="cls-8" d="M602.44,992.11c3.11,0,3.12-2.67,0-2.67s-3.12,2.67,0,2.67Z" transform="translate(1 1.05)"/><path class="cls-8" d="M1610.22,839.15c2.44,0,2.12-2.07-.29-2.07s-2.12,2.07.29,2.07Z" transform="translate(1 1.05)"/><path class="cls-8" d="M1688.4,835.11c2.46,0,2.32-2.1-.12-2.1s-2.33,2.1.12,2.1Z" transform="translate(1 1.05)"/><path class="cls-8" d="M1752,886.18c1.84,0,1.75-1.56-.07-1.56s-1.75,1.56.07,1.56Z" transform="translate(1 1.05)"/><path class="cls-8" d="M1842.29,884.59c1.25,0,1.53-1.08.25-1.08s-1.52,1.08-.25,1.08Z" transform="translate(1 1.05)"/><path class="cls-8" d="M1570.72,922.89c2.35,0,2.82-2,.44-2s-2.81,2-.44,2Z" transform="translate(1 1.05)"/><path class="cls-8" d="M1563.69,975.07c1.19,0,1-1-.16-1s-1,1,.16,1Z" transform="translate(1 1.05)"/><path class="cls-8" d="M1678.38,956.58c2.16,0,2.54-1.86.35-1.86s-2.54,1.86-.35,1.86Z" transform="translate(1 1.05)"/><path class="cls-8" d="M1673.55,992.84c1.65,0,1.89-1.42.22-1.42s-1.88,1.42-.22,1.42Z" transform="translate(1 1.05)"/><path class="cls-8" d="M1722.51,989.06c2.31,0,2.45-2,.14-2s-2.46,2-.14,2Z" transform="translate(1 1.05)"/><path class="cls-8" d="M1752,1018.37c1.35,0,1.24-1.15-.1-1.15s-1.25,1.15.1,1.15Z" transform="translate(1 1.05)"/><path class="cls-8" d="M1840,1017c1.32,0,1.24-1.13-.07-1.13s-1.24,1.13.07,1.13Z" transform="translate(1 1.05)"/><path class="cls-8" d="M1896.23,1012c2.32,0,2.3-2,0-2s-2.3,2,0,2Z" transform="translate(1 1.05)"/><path class="cls-8" d="M284.48,158.07c2,0,2-1.71,0-1.71s-2,1.71,0,1.71Z" transform="translate(1 1.05)"/><path class="cls-8" d="M208.56,106.47c1.37,0,1.65-1.18.25-1.18s-1.65,1.18-.25,1.18Z" transform="translate(1 1.05)"/><path class="cls-8" d="M301.42,82.72c2.68,0,3.12-2.31.4-2.31s-3.11,2.31-.4,2.31Z" transform="translate(1 1.05)"/><path class="cls-8" d="M318.93,58.36c2.62,0,2.21-2.23-.38-2.23s-2.21,2.23.38,2.23Z" transform="translate(1 1.05)"/><path class="cls-8" d="M382.43,89c1.51,0,1.29-1.28-.2-1.28s-1.29,1.28.2,1.28Z" transform="translate(1 1.05)"/><path class="cls-8" d="M421.31,33.82c2.07,0,2.39-1.78.3-1.78s-2.38,1.78-.3,1.78Z" transform="translate(1 1.05)"/><path class="cls-8" d="M543.57,36.66c2.39,0,2.77-2.06.35-2.06s-2.76,2.06-.35,2.06Z" transform="translate(1 1.05)"/><path class="cls-8" d="M570.47,67.48c1.8,0,2.18-1.55.36-1.55s-2.18,1.55-.36,1.55Z" transform="translate(1 1.05)"/><path class="cls-8" d="M612.31,85.13c2,0,1.85-1.73-.17-1.73s-1.85,1.73.17,1.73Z" transform="translate(1 1.05)"/><path class="cls-8" d="M675.68,88.92c1.41,0,1.7-1.21.27-1.21s-1.7,1.21-.27,1.21Z" transform="translate(1 1.05)"/><path class="cls-8" d="M700.09,96c2.23,0,2.63-1.92.37-1.92S697.83,96,700.09,96Z" transform="translate(1 1.05)"/><path class="cls-8" d="M722.29,122.93c2,0,1.94-1.68,0-1.68s-1.95,1.68,0,1.68Z" transform="translate(1 1.05)"/><path class="cls-8" d="M763.64,120.34c2.21,0,2.68-1.9.44-1.9s-2.68,1.9-.44,1.9Z" transform="translate(1 1.05)"/><path class="cls-8" d="M793.28,106.44c1.31,0,1.15-1.12-.14-1.12s-1.16,1.12.14,1.12Z" transform="translate(1 1.05)"/><path class="cls-8" d="M805.27,92.11c2.54,0,2.89-2.18.33-2.18s-2.89,2.18-.33,2.18Z" transform="translate(1 1.05)"/><path class="cls-8" d="M888.75,75.61c1.88,0,1.54-1.6-.31-1.6s-1.55,1.6.31,1.6Z" transform="translate(1 1.05)"/><path class="cls-8" d="M976.72,87.49c1.22,0,1-1-.16-1s-1,1,.16,1Z" transform="translate(1 1.05)"/><path class="cls-8" d="M1013.41,117.67c2.29,0,2.1-2-.17-2s-2.11,2,.17,2Z" transform="translate(1 1.05)"/><path class="cls-8" d="M991.5,140.58c2.19,0,1.77-1.85-.38-1.85s-1.77,1.85.38,1.85Z" transform="translate(1 1.05)"/><path class="cls-8" d="M1076.77,149.76c1.5,0,1.8-1.29.28-1.29s-1.8,1.29-.28,1.29Z" transform="translate(1 1.05)"/><path class="cls-8" d="M1121,169c2.3,0,2.09-1.95-.19-1.95s-2.09,1.95.19,1.95Z" transform="translate(1 1.05)"/><path class="cls-8" d="M401.81,171.47c1.74,0,1.92-1.49.17-1.49s-1.92,1.49-.17,1.49Z" transform="translate(1 1.05)"/><path class="cls-8" d="M421.45,186.76c1.68,0,1.71-1.44,0-1.44s-1.72,1.44,0,1.44Z" transform="translate(1 1.05)"/><path class="cls-8" d="M522.69,188c2.41,0,2.1-2.05-.28-2.05s-2.1,2.05.28,2.05Z" transform="translate(1 1.05)"/><path class="cls-8" d="M494.87,219.35c2.09,0,2-1.78-.08-1.78s-2,1.78.08,1.78Z" transform="translate(1 1.05)"/><path class="cls-8" d="M705.27,290.35c1.72,0,1.49-1.47-.22-1.47s-1.48,1.47.22,1.47Z" transform="translate(1 1.05)"/><path class="cls-8" d="M736.17,288.05c2.66,0,2.6-2.28,0-2.28s-2.61,2.28,0,2.28Z" transform="translate(1 1.05)"/><path class="cls-8" d="M728,309.71c2.76,0,2.64-2.36-.1-2.36s-2.64,2.36.1,2.36Z" transform="translate(1 1.05)"/><path class="cls-8" d="M773.54,304.74c1.67,0,1.89-1.43.21-1.43s-1.89,1.43-.21,1.43Z" transform="translate(1 1.05)"/><path class="cls-8" d="M773.57,285.15c2.21,0,2.35-1.89.14-1.89s-2.35,1.89-.14,1.89Z" transform="translate(1 1.05)"/><path class="cls-8" d="M775.22,274.33c2.16,0,2.27-1.85.11-1.85s-2.27,1.85-.11,1.85Z" transform="translate(1 1.05)"/><path class="cls-8" d="M788.4,266.11c1.91,0,1.72-1.63-.17-1.63s-1.71,1.63.17,1.63Z" transform="translate(1 1.05)"/><path class="cls-8" d="M804.48,259c2.09,0,2.39-1.8.28-1.8s-2.39,1.8-.28,1.8Z" transform="translate(1 1.05)"/><path class="cls-8" d="M902.41,355.41c2.22,0,2.31-1.9.09-1.9s-2.32,1.9-.09,1.9Z" transform="translate(1 1.05)"/><path class="cls-8" d="M934.88,350c2.15,0,2.54-1.85.36-1.85s-2.54,1.85-.36,1.85Z" transform="translate(1 1.05)"/><path class="cls-8" d="M941.52,360.1c2.64,0,2.78-2.27.13-2.27s-2.78,2.27-.13,2.27Z" transform="translate(1 1.05)"/><path class="cls-8" d="M961.33,355.35c2.09,0,1.7-1.78-.37-1.78s-1.69,1.78.37,1.78Z" transform="translate(1 1.05)"/><path class="cls-8" d="M993.62,356c1.48,0,1.78-1.28.27-1.28s-1.77,1.28-.27,1.28Z" transform="translate(1 1.05)"/><path class="cls-8" d="M990.56,366.79c1.46,0,1.31-1.24-.13-1.24s-1.31,1.24.13,1.24Z" transform="translate(1 1.05)"/><path class="cls-8" d="M1018.33,366.68c1.19,0,.95-1-.23-1s-1,1,.23,1Z" transform="translate(1 1.05)"/><path class="cls-8" d="M1062.15,374c1.33,0,1.51-1.15.17-1.15s-1.51,1.15-.17,1.15Z" transform="translate(1 1.05)"/><path class="cls-8" d="M537.38,447c1.54,0,1.22-1.32-.31-1.32s-1.22,1.32.31,1.32Z" transform="translate(1 1.05)"/><path class="cls-8" d="M551.75,465.32c2.27,0,2.58-1.95.29-1.95s-2.57,1.95-.29,1.95Z" transform="translate(1 1.05)"/><path class="cls-8" d="M591,450.83c2.11,0,2.14-1.8,0-1.8s-2.14,1.8,0,1.8Z" transform="translate(1 1.05)"/><path class="cls-8" d="M627,443.63c2.11,0,2-1.8-.1-1.8s-2,1.8.1,1.8Z" transform="translate(1 1.05)"/><path class="cls-8" d="M662.55,441.87c2.18,0,2.66-1.89.44-1.89s-2.65,1.89-.44,1.89Z" transform="translate(1 1.05)"/><path class="cls-8" d="M700.07,432.16c2.68,0,3.09-2.29.4-2.29s-3.08,2.29-.4,2.29Z" transform="translate(1 1.05)"/><path class="cls-8" d="M723.11,435.56c2.21,0,2.18-1.88,0-1.88s-2.17,1.88,0,1.88Z" transform="translate(1 1.05)"/><path class="cls-8" d="M749.42,420.45c2.68,0,2.18-2.28-.47-2.28s-2.17,2.28.47,2.28Z" transform="translate(1 1.05)"/><path class="cls-8" d="M491.73,532.66c1.81,0,1.48-1.54-.31-1.54s-1.48,1.54.31,1.54Z" transform="translate(1 1.05)"/><path class="cls-8" d="M483.53,559.73c1.92,0,1.69-1.64-.22-1.64s-1.69,1.64.22,1.64Z" transform="translate(1 1.05)"/><path class="cls-8" d="M519.25,565.83c1.43,0,1.51-1.23.08-1.23s-1.51,1.23-.08,1.23Z" transform="translate(1 1.05)"/><path class="cls-8" d="M517.69,577.11c2.55,0,2.47-2.18-.06-2.18s-2.47,2.18.06,2.18Z" transform="translate(1 1.05)"/><path class="cls-8" d="M514.31,618.17c1.67,0,1.86-1.43.18-1.43s-1.86,1.43-.18,1.43Z" transform="translate(1 1.05)"/><path class="cls-8" d="M860.14,545.45c2.23,0,2.05-1.9-.16-1.9s-2.06,1.9.16,1.9Z" transform="translate(1 1.05)"/><path class="cls-8" d="M900.67,553.36c1.77,0,2.08-1.51.3-1.51s-2.08,1.51-.3,1.51Z" transform="translate(1 1.05)"/><path class="cls-8" d="M921.89,547.93c1.7,0,2-1.46.25-1.46s-2,1.46-.25,1.46Z" transform="translate(1 1.05)"/><path class="cls-8" d="M938.36,566.63c1.21,0,1.13-1-.08-1s-1.12,1,.08,1Z" transform="translate(1 1.05)"/><path class="cls-8" d="M1003.57,558.79c1.83,0,1.75-1.56-.06-1.56s-1.75,1.56.06,1.56Z" transform="translate(1 1.05)"/><path class="cls-8" d="M1003.4,577.78c2,0,2.29-1.71.28-1.71s-2.29,1.71-.28,1.71Z" transform="translate(1 1.05)"/><path class="cls-8" d="M1047.64,560.38c1.33,0,1.17-1.14-.15-1.14s-1.17,1.14.15,1.14Z" transform="translate(1 1.05)"/><path class="cls-8" d="M1096.46,550.6c1.62,0,1.65-1.39,0-1.39s-1.64,1.39,0,1.39Z" transform="translate(1 1.05)"/><path class="cls-8" d="M1147,556.8c1.36,0,1.52-1.18.15-1.18s-1.53,1.18-.15,1.18Z" transform="translate(1 1.05)"/><path class="cls-8" d="M1189.45,559.42c1.19,0,1.11-1-.07-1s-1.11,1,.07,1Z" transform="translate(1 1.05)"/><path class="cls-8" d="M1236.46,531.1c2.35,0,2.85-2,.48-2s-2.85,2-.48,2Z" transform="translate(1 1.05)"/><path class="cls-8" d="M1261.31,523.16c2.76,0,2.43-2.35-.31-2.35s-2.42,2.35.31,2.35Z" transform="translate(1 1.05)"/><path class="cls-8" d="M1277.52,530.76c1.57,0,1.43-1.34-.13-1.34s-1.42,1.34.13,1.34Z" transform="translate(1 1.05)"/><path class="cls-8" d="M1287.24,540.62c1.46,0,1.46-1.25,0-1.25s-1.46,1.25,0,1.25Z" transform="translate(1 1.05)"/><path class="cls-8" d="M1321.63,536.16c1.56,0,1.24-1.33-.3-1.33s-1.24,1.33.3,1.33Z" transform="translate(1 1.05)"/><path class="cls-8" d="M516.68,653.83c1.86,0,2.21-1.6.33-1.6s-2.21,1.6-.33,1.6Z" transform="translate(1 1.05)"/><path class="cls-8" d="M543.65,651c1.44,0,1.64-1.24.19-1.24s-1.64,1.24-.19,1.24Z" transform="translate(1 1.05)"/><path class="cls-8" d="M575.49,642c2.66,0,2.76-2.28.1-2.28s-2.76,2.28-.1,2.28Z" transform="translate(1 1.05)"/><path class="cls-8" d="M578,682.14c1.72,0,1.71-1.47,0-1.47s-1.7,1.47,0,1.47Z" transform="translate(1 1.05)"/><path class="cls-8" d="M66.66,579.75c2.38,0,2.74-2,.35-2s-2.74,2-.35,2Z" transform="translate(1 1.05)"/><path class="cls-8" d="M93.67,580.93c2,0,2.15-1.71.13-1.71s-2.15,1.71-.13,1.71Z" transform="translate(1 1.05)"/><path class="cls-8" d="M111,574.48c2.71,0,2.38-2.31-.31-2.31s-2.38,2.31.31,2.31Z" transform="translate(1 1.05)"/><path class="cls-8" d="M91.23,559c1.25,0,1.37-1.06.12-1.06S90,559,91.23,559Z" transform="translate(1 1.05)"/><path class="cls-8" d="M76.71,552.5c1.86,0,1.66-1.59-.18-1.59s-1.67,1.59.18,1.59Z" transform="translate(1 1.05)"/><path class="cls-8" d="M71.93,536.57c2.52,0,2.08-2.15-.41-2.15s-2.08,2.15.41,2.15Z" transform="translate(1 1.05)"/><path class="cls-8" d="M88.85,524.5c2.72,0,2.7-2.33,0-2.33s-2.7,2.33,0,2.33Z" transform="translate(1 1.05)"/><path class="cls-8" d="M125.61,513.35c1.93,0,1.75-1.64-.16-1.64s-1.75,1.64.16,1.64Z" transform="translate(1 1.05)"/><path class="cls-8" d="M230.83,639.08c2.16,0,1.85-1.83-.27-1.83s-1.85,1.83.27,1.83Z" transform="translate(1 1.05)"/><path class="cls-8" d="M203.75,660.63c2,0,2.06-1.69.08-1.69s-2.05,1.69-.08,1.69Z" transform="translate(1 1.05)"/><path class="cls-8" d="M216,686.52c2.49,0,2.49-2.13,0-2.13s-2.5,2.13,0,2.13Z" transform="translate(1 1.05)"/><path class="cls-8" d="M250.11,690.61c2.57,0,2.89-2.21.31-2.21s-2.9,2.21-.31,2.21Z" transform="translate(1 1.05)"/><path class="cls-8" d="M247.8,719.92c1.61,0,1.65-1.38,0-1.38s-1.66,1.38,0,1.38Z" transform="translate(1 1.05)"/><path class="cls-8" d="M1644.46,736.62c2.76,0,2.45-2.36-.29-2.36s-2.45,2.36.29,2.36Z" transform="translate(1 1.05)"/><path class="cls-8" d="M1720.26,731.13c2.56,0,2.29-2.19-.25-2.19s-2.3,2.19.25,2.19Z" transform="translate(1 1.05)"/><path class="cls-8" d="M1725,701.43c2.61,0,2.56-2.23,0-2.23s-2.55,2.23,0,2.23Z" transform="translate(1 1.05)"/><path class="cls-8" d="M377.63,194.76c2.49,0,2.08-2.13-.38-2.13s-2.08,2.13.38,2.13Z" transform="translate(1 1.05)"/><path class="cls-8" d="M419.17,190.42c1.85,0,1.5-1.56-.31-1.56s-1.5,1.56.31,1.56Z" transform="translate(1 1.05)"/><path class="cls-8" d="M416.6,201.15c1.64,0,1.58-1.4-.06-1.4s-1.58,1.4.06,1.4Z" transform="translate(1 1.05)"/><path class="cls-8" d="M450.69,196.94c1.27,0,1.53-1.09.24-1.09s-1.53,1.09-.24,1.09Z" transform="translate(1 1.05)"/><path class="cls-8" d="M436.26,217.26c1.4,0,1.13-1.19-.25-1.19s-1.13,1.19.25,1.19Z" transform="translate(1 1.05)"/><path class="cls-8" d="M480.24,214.62c1.55,0,1.37-1.32-.17-1.32s-1.36,1.32.17,1.32Z" transform="translate(1 1.05)"/><path class="cls-8" d="M1297,156.9c2.42,0,2.47-2.07,0-2.07s-2.47,2.07,0,2.07Z" transform="translate(1 1.05)"/><path class="cls-8" d="M1324,167.62c2.22,0,2.14-1.89-.07-1.89s-2.13,1.89.07,1.89Z" transform="translate(1 1.05)"/><path class="cls-8" d="M1355.58,155.74c2.87,0,3.16-2.45.28-2.45s-3.15,2.45-.28,2.45Z" transform="translate(1 1.05)"/><path class="cls-8" d="M1389.75,158.36c2.65,0,3.1-2.28.42-2.28s-3.1,2.28-.42,2.28Z" transform="translate(1 1.05)"/><path class="cls-8" d="M1392.33,173.62c3.6,0,3.75-3.08.15-3.08s-3.74,3.08-.15,3.08Z" transform="translate(1 1.05)"/><path class="cls-8" d="M1421.91,165.7c4,0,3.71-3.46-.3-3.46s-3.72,3.46.3,3.46Z" transform="translate(1 1.05)"/><path class="cls-8" d="M1455.83,166.33c2.34,0,2.69-2,.33-2s-2.69,2-.33,2Z" transform="translate(1 1.05)"/><path class="cls-8" d="M1681,19.24c2.76,0,2.78-2.35,0-2.35s-2.78,2.35,0,2.35Z" transform="translate(1 1.05)"/><path class="cls-8" d="M1732.66,15.61c3.74,0,3.11-3.19-.6-3.19s-3.11,3.19.6,3.19Z" transform="translate(1 1.05)"/><path class="cls-8" d="M1741.92,31.44c2.83,0,3.29-2.43.44-2.43s-3.29,2.43-.44,2.43Z" transform="translate(1 1.05)"/><path class="cls-8" d="M1768.86,16.56c2.79,0,3.16-2.39.37-2.39s-3.16,2.39-.37,2.39Z" transform="translate(1 1.05)"/><path class="cls-8" d="M1793.69,2c3.54,0,3.15-3-.37-3s-3.15,3,.37,3Z" transform="translate(1 1.05)"/><path class="cls-8" d="M1849.8,3c2.69,0,2.6-2.31-.09-2.31s-2.6,2.31.09,2.31Z" transform="translate(1 1.05)"/><path class="cls-8" d="M1859.27,13.89c2.87,0,3.42-2.46.53-2.46s-3.41,2.46-.53,2.46Z" transform="translate(1 1.05)"/><path class="cls-8" d="M1906,12.37c2.48,0,2.59-2.12.11-2.12s-2.59,2.12-.11,2.12Z" transform="translate(1 1.05)"/><path class="cls-8" d="M1898.49,37.79c1.87,0,2.26-1.62.36-1.62s-2.26,1.62-.36,1.62Z" transform="translate(1 1.05)"/><path class="cls-8" d="M1891.59,64c3.21,0,2.64-2.72-.52-2.72s-2.64,2.72.52,2.72Z" transform="translate(1 1.05)"/><path class="cls-8" d="M1918.27,82.57c2.36,0,2.28-2-.07-2s-2.28,2,.07,2Z" transform="translate(1 1.05)"/><path class="cls-8" d="M1509.45,429.09c3.89,0,4.64-3.35.7-3.35s-4.63,3.35-.7,3.35Z" transform="translate(1 1.05)"/><path class="cls-8" d="M1529.21,432c4.33,0,4.66-3.71.31-3.71s-4.66,3.71-.31,3.71Z" transform="translate(1 1.05)"/><path class="cls-8" d="M1546.63,420.75c3.37,0,3.07-2.88-.28-2.88s-3.08,2.88.28,2.88Z" transform="translate(1 1.05)"/><path class="cls-8" d="M1566.25,410.89c2.43,0,2-2.07-.4-2.07s-2,2.07.4,2.07Z" transform="translate(1 1.05)"/><path class="cls-8" d="M1578,409.62c2.59,0,3.12-2.24.5-2.24s-3.12,2.24-.5,2.24Z" transform="translate(1 1.05)"/><path class="cls-8" d="M1607.72,408.67c3.56,0,3.36-3-.18-3s-3.36,3,.18,3Z" transform="translate(1 1.05)"/><path class="cls-8" d="M1627,423.44c3.34,0,3.85-2.86.49-2.86s-3.85,2.86-.49,2.86Z" transform="translate(1 1.05)"/><path class="cls-8" d="M1806,651.71c3.24,0,2.65-2.76-.56-2.76s-2.65,2.76.56,2.76Z" transform="translate(1 1.05)"/><path class="cls-8" d="M1828,654.2c2.74,0,2.23-2.34-.49-2.34s-2.23,2.34.49,2.34Z" transform="translate(1 1.05)"/><path class="cls-8" d="M1847.47,663.57c2.56,0,2.21-2.17-.32-2.17s-2.21,2.17.32,2.17Z" transform="translate(1 1.05)"/><path class="cls-8" d="M1856.77,672.17c3.67,0,4.35-3.16.64-3.16s-4.34,3.16-.64,3.16Z" transform="translate(1 1.05)"/><path class="cls-8" d="M1837.42,681.06c2.36,0,2.57-2,.21-2s-2.57,2-.21,2Z" transform="translate(1 1.05)"/><path class="cls-8" d="M1803.06,692.23c3.19,0,3.67-2.75.46-2.75s-3.68,2.75-.46,2.75Z" transform="translate(1 1.05)"/><path class="cls-8" d="M1803,708.84c4.12,0,4.78-3.54.61-3.54s-4.78,3.54-.61,3.54Z" transform="translate(1 1.05)"/><path class="cls-8" d="M1830.34,720.1c2.06,0,1.72-1.75-.31-1.75s-1.71,1.75.31,1.75Z" transform="translate(1 1.05)"/><path class="cls-8" d="M1856.94,721.86c3,0,3.31-2.56.31-2.56s-3.32,2.56-.31,2.56Z" transform="translate(1 1.05)"/><path class="cls-8" d="M1888.58,734.55c4.22,0,4.88-3.63.61-3.63s-4.88,3.63-.61,3.63Z" transform="translate(1 1.05)"/><path class="cls-8" d="M1840.29,803.27c3.83,0,3.15-3.26-.64-3.26s-3.15,3.26.64,3.26Z" transform="translate(1 1.05)"/><path class="cls-8" d="M1859.37,820c1.91,0,2.25-1.64.33-1.64s-2.25,1.64-.33,1.64Z" transform="translate(1 1.05)"/><path class="cls-8" d="M1869,834.13c3.29,0,4-2.84.66-2.84s-4,2.84-.66,2.84Z" transform="translate(1 1.05)"/><path class="cls-8" d="M1876.36,864c3.54,0,4.17-3,.59-3s-4.16,3-.59,3Z" transform="translate(1 1.05)"/><path class="cls-8" d="M1862,882.47c2.63,0,2.55-2.25-.07-2.25s-2.55,2.25.07,2.25Z" transform="translate(1 1.05)"/><path class="cls-8" d="M1886.68,897.73c3.57,0,3-3-.48-3s-3,3,.48,3Z" transform="translate(1 1.05)"/><path class="cls-8" d="M76.58,1080c3.3,0,3.36-2.82.07-2.82s-3.36,2.82-.07,2.82Z" transform="translate(1 1.05)"/><path class="cls-8" d="M101.24,1070c2.06,0,1.69-1.75-.34-1.75s-1.69,1.75.34,1.75Z" transform="translate(1 1.05)"/><path class="cls-8" d="M130.63,1063.54c2.72,0,2.27-2.32-.42-2.32s-2.27,2.32.42,2.32Z" transform="translate(1 1.05)"/><path class="cls-8" d="M171.91,1068c3.6,0,3.78-3.08.18-3.08s-3.79,3.08-.18,3.08Z" transform="translate(1 1.05)"/><path class="cls-8" d="M242.83,1074.31c2.62,0,2.82-2.25.19-2.25s-2.83,2.25-.19,2.25Z" transform="translate(1 1.05)"/><path class="cls-8" d="M277,1074.22c2.4,0,2.81-2.06.39-2.06s-2.81,2.06-.39,2.06Z" transform="translate(1 1.05)"/><path class="cls-8" d="M306.5,1072.34c4.35,0,4.36-3.71,0-3.71s-4.35,3.71,0,3.71Z" transform="translate(1 1.05)"/><path class="cls-8" d="M379.9,1062.85c4.25,0,4.21-3.64,0-3.64s-4.21,3.64,0,3.64Z" transform="translate(1 1.05)"/><path class="cls-8" d="M428.91,1046.53c4,0,3.79-3.43-.22-3.43s-3.79,3.43.22,3.43Z" transform="translate(1 1.05)"/><path class="cls-8" d="M1348.11,1075c4.27,0,4.84-3.66.54-3.66s-4.83,3.66-.54,3.66Z" transform="translate(1 1.05)"/><path class="cls-8" d="M1392.22,1074.46c3,0,3.36-2.55.37-2.55s-3.36,2.55-.37,2.55Z" transform="translate(1 1.05)"/><path class="cls-8" d="M1433.73,1078.35c2.57,0,3.11-2.22.51-2.22s-3.11,2.22-.51,2.22Z" transform="translate(1 1.05)"/><path class="cls-8" d="M793.23,1075.73c2.79,0,2.74-2.38,0-2.38s-2.74,2.38,0,2.38Z" transform="translate(1 1.05)"/><path class="cls-8" d="M834.78,1071.51c2.4,0,2.4-2,0-2s-2.4,2,0,2Z" transform="translate(1 1.05)"/><path class="cls-8" d="M861.83,1072.17c4,0,3.64-3.38-.29-3.38s-3.64,3.38.29,3.38Z" transform="translate(1 1.05)"/><path class="cls-8" d="M895.87,1073.28c3.38,0,3.49-2.89.11-2.89s-3.48,2.89-.11,2.89Z" transform="translate(1 1.05)"/><path class="cls-8" d="M915.58,1075.73c2.79,0,2.6-2.38-.17-2.38s-2.6,2.38.17,2.38Z" transform="translate(1 1.05)"/><path class="cls-8" d="M969.51,1078.67c3.36,0,2.91-2.86-.42-2.86s-2.91,2.86.42,2.86Z" transform="translate(1 1.05)"/><path class="cls-8" d="M1003.93,1072.33c4.33,0,3.5-3.69-.78-3.69s-3.5,3.69.78,3.69Z" transform="translate(1 1.05)"/><path class="cls-8" d="M1042.47,1064.78c2.43,0,2.85-2.1.4-2.1s-2.85,2.1-.4,2.1Z" transform="translate(1 1.05)"/><path class="cls-8" d="M1115.93,1069.45c3.88,0,4.12-3.33.22-3.33s-4.11,3.33-.22,3.33Z" transform="translate(1 1.05)"/><path class="cls-8" d="M1624.61,1057.8c1.91,0,2.21-1.65.28-1.65s-2.21,1.65-.28,1.65Z" transform="translate(1 1.05)"/><path class="cls-8" d="M1661.35,1077.58c4,0,4.13-3.39.17-3.39s-4.13,3.39-.17,3.39Z" transform="translate(1 1.05)"/><path class="cls-8" d="M93.86,15.06c2.45,0,2.18-2.09-.25-2.09s-2.17,2.09.25,2.09Z" transform="translate(1 1.05)"/><path class="cls-8" d="M44.68,32.66c2.53,0,2.84-2.17.29-2.17s-2.85,2.17-.29,2.17Z" transform="translate(1 1.05)"/><path class="cls-8" d="M96.38,37.11c3.49,0,3.06-3-.4-3s-3,3,.4,3Z" transform="translate(1 1.05)"/><path class="cls-8" d="M125.45,36.85c2.85,0,3-2.45.16-2.45s-3,2.45-.16,2.45Z" transform="translate(1 1.05)"/><path class="cls-8" d="M160,29.75c2.06,0,1.66-1.75-.36-1.75s-1.66,1.75.36,1.75Z" transform="translate(1 1.05)"/><path class="cls-8" d="M166.85,11.06c2.57,0,3.1-2.2.51-2.2s-3.1,2.2-.51,2.2Z" transform="translate(1 1.05)"/><path class="cls-8" d="M213.44,6.82c2.13,0,2.41-1.83.27-1.83s-2.41,1.83-.27,1.83Z" transform="translate(1 1.05)"/><path class="cls-8" d="M250.34,3.22c3.19,0,3-2.73-.15-2.73s-3,2.73.15,2.73Z" transform="translate(1 1.05)"/><path class="cls-8" d="M98.54,74.73c3,0,3.14-2.54.17-2.54s-3.14,2.54-.17,2.54Z" transform="translate(1 1.05)"/><path class="cls-8" d="M128.34,83.22c3.91,0,3.14-3.32-.73-3.32s-3.14,3.32.73,3.32Z" transform="translate(1 1.05)"/><path class="cls-8" d="M154.8,85.42c2.71,0,2.87-2.32.16-2.32s-2.87,2.32-.16,2.32Z" transform="translate(1 1.05)"/><path class="cls-8" d="M166.74,79.09c3.68,0,4.44-3.16.73-3.16s-4.44,3.16-.73,3.16Z" transform="translate(1 1.05)"/><path class="cls-8" d="M189,74.51c2.46,0,2.67-2.11.2-2.11s-2.67,2.11-.2,2.11Z" transform="translate(1 1.05)"/><path class="cls-8" d="M213.59,73.5c3.27,0,3.23-2.79,0-2.79s-3.23,2.79,0,2.79Z" transform="translate(1 1.05)"/><path class="cls-8" d="M255.09,80.39c3.57,0,3.7-3.06.12-3.06s-3.69,3.06-.12,3.06Z" transform="translate(1 1.05)"/><path class="cls-8" d="M296.54,96.94c4.36,0,4.74-3.73.38-3.73s-4.74,3.73-.38,3.73Z" transform="translate(1 1.05)"/><path class="cls-8" d="M125.58,225.81c2.43,0,2.32-2.08-.1-2.08s-2.32,2.08.1,2.08Z" transform="translate(1 1.05)"/><path class="cls-8" d="M91.06,237.09c3.51,0,4-3,.47-3s-4,3-.47,3Z" transform="translate(1 1.05)"/><path class="cls-8" d="M59.48,250.21c2.64,0,2.67-2.25,0-2.25s-2.68,2.25,0,2.25Z" transform="translate(1 1.05)"/><path class="cls-8" d="M42.51,276.16c3.28,0,3-2.81-.27-2.81s-3,2.81.27,2.81Z" transform="translate(1 1.05)"/><path class="cls-8" d="M3.49,304.77c3.86,0,3.33-3.29-.49-3.29s-3.33,3.29.49,3.29Z" transform="translate(1 1.05)"/><path class="cls-8" d="M167.3,217.18c4.4,0,4-3.74-.39-3.74s-4,3.74.39,3.74Z" transform="translate(1 1.05)"/><path class="cls-8" d="M79.14,434c2.65,0,2.48-2.26-.16-2.26S76.5,434,79.14,434Z" transform="translate(1 1.05)"/><path class="cls-8" d="M57.16,425.82c2.59,0,2.37-2.21-.21-2.21s-2.37,2.21.21,2.21Z" transform="translate(1 1.05)"/><path class="cls-8" d="M37.46,416.55c3,0,3.07-2.59,0-2.59s-3.07,2.59,0,2.59Z" transform="translate(1 1.05)"/><path class="cls-8" d="M47.28,406.23c4.17,0,4.14-3.57,0-3.57s-4.14,3.57,0,3.57Z" transform="translate(1 1.05)"/><path class="cls-8" d="M54.45,390.44c2,0,2.33-1.71.31-1.71s-2.33,1.71-.31,1.71Z" transform="translate(1 1.05)"/><path class="cls-8" d="M49.86,374.45c2.53,0,2.21-2.15-.29-2.15s-2.21,2.15.29,2.15Z" transform="translate(1 1.05)"/><path class="cls-8" d="M25.48,354.68c3.69,0,3.21-3.14-.44-3.14s-3.22,3.14.44,3.14Z" transform="translate(1 1.05)"/><path class="cls-8" d="M45.15,727.5c3.56,0,2.85-3-.66-3s-2.85,3,.66,3Z" transform="translate(1 1.05)"/><path class="cls-8" d="M64.36,722.38c4.22,0,4.27-3.61.06-3.61s-4.28,3.61-.06,3.61Z" transform="translate(1 1.05)"/><path class="cls-8" d="M89.19,718c3.52,0,2.78-3-.69-3s-2.78,3,.69,3Z" transform="translate(1 1.05)"/><path class="cls-8" d="M125.56,717.51c2.3,0,2.24-2-.06-2s-2.24,2,.06,2Z" transform="translate(1 1.05)"/><path class="cls-8" d="M1590.5,928.19c2.12,0,2.13-1.82,0-1.82s-2.12,1.82,0,1.82Z" transform="translate(1 1.05)"/><path class="cls-8" d="M1615.2,927.08c2.7,0,2.2-2.3-.47-2.3s-2.19,2.3.47,2.3Z" transform="translate(1 1.05)"/><path class="cls-8" d="M1668.66,924.21c2.28,0,2.52-2,.23-2s-2.52,2-.23,2Z" transform="translate(1 1.05)"/><path class="cls-8" d="M485.11,903.79c1.94,0,1.81-1.66-.12-1.66s-1.81,1.66.12,1.66Z" transform="translate(1 1.05)"/><path class="cls-8" d="M512.08,890.41c2.25,0,2-1.92-.25-1.92s-2,1.92.25,1.92Z" transform="translate(1 1.05)"/><path class="cls-8" d="M541.26,909.46c2.54,0,2.64-2.18.09-2.18s-2.65,2.18-.09,2.18Z" transform="translate(1 1.05)"/><path class="cls-8" d="M536.55,928c1.72,0,1.43-1.46-.28-1.46s-1.43,1.46.28,1.46Z" transform="translate(1 1.05)"/><path class="cls-8" d="M553.68,946c2.76,0,2.43-2.35-.3-2.35s-2.43,2.35.3,2.35Z" transform="translate(1 1.05)"/><path class="cls-8" d="M634.14,956.39c1.72,0,1.93-1.48.2-1.48s-1.94,1.48-.2,1.48Z" transform="translate(1 1.05)"/><path class="cls-8" d="M715,949.61c1.67,0,1.59-1.43-.07-1.43s-1.59,1.43.07,1.43Z" transform="translate(1 1.05)"/><path class="cls-8" d="M788.2,933.32c1.49,0,1.73-1.28.23-1.28s-1.73,1.28-.23,1.28Z" transform="translate(1 1.05)"/><path class="cls-8" d="M825.1,950.91c1.56,0,1.36-1.33-.19-1.33s-1.37,1.33.19,1.33Z" transform="translate(1 1.05)"/><path class="cls-8" d="M854.31,911.86c1.86,0,1.93-1.59.08-1.59s-1.93,1.59-.08,1.59Z" transform="translate(1 1.05)"/><path class="cls-8" d="M930.06,910.43c1.65,0,1.88-1.42.22-1.42s-1.88,1.42-.22,1.42Z" transform="translate(1 1.05)"/><path class="cls-8" d="M937.38,892.69c1.26,0,1.52-1.08.25-1.08s-1.52,1.08-.25,1.08Z" transform="translate(1 1.05)"/><path class="cls-8" d="M1018.19,894c1.23,0,1.28-1,0-1s-1.28,1,0,1Z" transform="translate(1 1.05)"/><path class="cls-8" d="M1057.36,900.92c1.54,0,1.51-1.32,0-1.32s-1.51,1.32,0,1.32Z" transform="translate(1 1.05)"/><path class="cls-8" d="M265,841.6c1.82,0,1.63-1.56-.18-1.56s-1.64,1.56.18,1.56Z" transform="translate(1 1.05)"/><path class="cls-8" d="M269.75,864.54c1.76,0,1.92-1.51.15-1.51s-1.91,1.51-.15,1.51Z" transform="translate(1 1.05)"/><path class="cls-8" d="M304.09,861.93c2,0,1.94-1.7,0-1.7s-1.95,1.7,0,1.7Z" transform="translate(1 1.05)"/><path class="cls-8" d="M365.33,871.32c1.84,0,1.59-1.57-.24-1.57s-1.59,1.57.24,1.57Z" transform="translate(1 1.05)"/><path class="cls-8" d="M309,883.42c1.7,0,1.67-1.45,0-1.45s-1.68,1.45,0,1.45Z" transform="translate(1 1.05)"/><path class="cls-8" d="M296.74,909c1.57,0,1.54-1.34,0-1.34s-1.54,1.34,0,1.34Z" transform="translate(1 1.05)"/><path class="cls-8" d="M242.94,939c2.18,0,2.14-1.87,0-1.87s-2.14,1.87,0,1.87Z" transform="translate(1 1.05)"/><path class="cls-8" d="M289.31,953.48c1.24,0,1.4-1.06.16-1.06s-1.4,1.06-.16,1.06Z" transform="translate(1 1.05)"/><path class="cls-8" d="M262.36,971.25c1.71,0,2-1.47.26-1.47s-2,1.47-.26,1.47Z" transform="translate(1 1.05)"/><path class="cls-8" d="M218.71,986.5c2.65,0,2.13-2.25-.48-2.25s-2.13,2.25.48,2.25Z" transform="translate(1 1.05)"/><path class="cls-8" d="M221.12,1009.4c2.5,0,2.06-2.13-.41-2.13s-2.06,2.13.41,2.13Z" transform="translate(1 1.05)"/><path class="cls-8" d="M162.07,1018.82c2.38,0,2.7-2.05.29-2.05s-2.7,2.05-.29,2.05Z" transform="translate(1 1.05)"/><path class="cls-8" d="M397.15,994.15c1.57,0,1.25-1.34-.29-1.34s-1.25,1.34.29,1.34Z" transform="translate(1 1.05)"/><path class="cls-8" d="M423.88,1001.16c2.18,0,2.23-1.86.05-1.86s-2.23,1.86-.05,1.86Z" transform="translate(1 1.05)"/><path class="cls-8" d="M504.78,1001c1.77,0,1.42-1.51-.33-1.51s-1.42,1.51.33,1.51Z" transform="translate(1 1.05)"/><path class="cls-8" d="M524.21,1000.74c1.2,0,1.14-1-.06-1s-1.14,1,.06,1Z" transform="translate(1 1.05)"/><path class="cls-8" d="M484.88,148.86c2.57,0,2.91-2.2.34-2.2s-2.91,2.2-.34,2.2Z" transform="translate(1 1.05)"/><path class="cls-8" d="M514.3,136.73c2.63,0,2.83-2.26.19-2.26s-2.82,2.26-.19,2.26Z" transform="translate(1 1.05)"/><path class="cls-8" d="M543.86,120c1.41,0,1.16-1.2-.23-1.2s-1.16,1.2.23,1.2Z" transform="translate(1 1.05)"/><path class="cls-8" d="M580.29,128.46c2.26,0,2.55-1.93.29-1.93s-2.56,1.93-.29,1.93Z" transform="translate(1 1.05)"/><path class="cls-8" d="M656.34,113.16c1.22,0,1-1-.18-1s-1,1,.18,1Z" transform="translate(1 1.05)"/><path class="cls-8" d="M729.63,136.47c2,0,2-1.74,0-1.74s-2,1.74,0,1.74Z" transform="translate(1 1.05)"/><path class="cls-8" d="M805.6,166.14c1.91,0,1.57-1.63-.32-1.63s-1.58,1.63.32,1.63Z" transform="translate(1 1.05)"/><path class="cls-8" d="M883.88,168.85c2,0,1.56-1.65-.36-1.65s-1.56,1.65.36,1.65Z" transform="translate(1 1.05)"/><path class="cls-8" d="M903.23,182.49c2.22,0,2.29-1.91.07-1.91s-2.29,1.91-.07,1.91Z" transform="translate(1 1.05)"/><path class="cls-8" d="M957.15,159.64c2.52,0,2.34-2.15-.16-2.15s-2.34,2.15.16,2.15Z" transform="translate(1 1.05)"/><path class="cls-8" d="M1015.88,170.36c2.31,0,2.06-2-.23-2s-2,2,.23,2Z" transform="translate(1 1.05)"/><path class="cls-8" d="M1040.08,163.36c1.73,0,2-1.48.29-1.48s-2,1.48-.29,1.48Z" transform="translate(1 1.05)"/><path class="cls-8" d="M1142.83,168.79c1.79,0,2-1.53.23-1.53s-2,1.53-.23,1.53Z" transform="translate(1 1.05)"/><path class="cls-8" d="M1184.51,165c2.32,0,2.35-2,0-2s-2.36,2,0,2Z" transform="translate(1 1.05)"/><path class="cls-8" d="M1531.88,274c1.44,0,1.3-1.23-.13-1.23s-1.3,1.23.13,1.23Z" transform="translate(1 1.05)"/><path class="cls-8" d="M1573.35,274.57c2.73,0,2.82-2.34.08-2.34s-2.82,2.34-.08,2.34Z" transform="translate(1 1.05)"/><path class="cls-8" d="M1590.63,280.76c1.41,0,1.15-1.2-.24-1.2s-1.15,1.2.24,1.2Z" transform="translate(1 1.05)"/><path class="cls-8" d="M1592.82,305.12c1.49,0,1.78-1.29.27-1.29s-1.78,1.29-.27,1.29Z" transform="translate(1 1.05)"/><path class="cls-8" d="M1627.25,306.36c1.25,0,1.14-1.07-.11-1.07s-1.14,1.07.11,1.07Z" transform="translate(1 1.05)"/><path class="cls-8" d="M1656.47,302.39c1.44,0,1.6-1.24.15-1.24s-1.6,1.24-.15,1.24Z" transform="translate(1 1.05)"/><path class="cls-8" d="M1228.62,417.61c2.35,0,2.19-2-.15-2s-2.19,2,.15,2Z" transform="translate(1 1.05)"/><path class="cls-8" d="M1253,410.77c2.14,0,2.2-1.84,0-1.84s-2.2,1.84,0,1.84Z" transform="translate(1 1.05)"/><path class="cls-8" d="M1294.61,401c1.32,0,1.26-1.13-.06-1.13s-1.26,1.13.06,1.13Z" transform="translate(1 1.05)"/><path class="cls-8" d="M1321.64,393.23c2.2,0,1.86-1.88-.32-1.88s-1.86,1.88.32,1.88Z" transform="translate(1 1.05)"/><path class="cls-8" d="M1321.54,410.74c2.09,0,2-1.78-.12-1.78s-2,1.78.12,1.78Z" transform="translate(1 1.05)"/><path class="cls-8" d="M1341,421.46c1.87,0,1.91-1.6,0-1.6s-1.91,1.6,0,1.6Z" transform="translate(1 1.05)"/><path class="cls-8" d="M1370.32,420.22c2.12,0,2.28-1.82.15-1.82s-2.28,1.82-.15,1.82Z" transform="translate(1 1.05)"/><path class="cls-8" d="M1397.47,413.33c1.82,0,1.45-1.55-.35-1.55s-1.44,1.55.35,1.55Z" transform="translate(1 1.05)"/><path class="cls-8" d="M1326.49,452.25c1.21,0,1-1-.23-1s-1,1,.23,1Z" transform="translate(1 1.05)"/><path class="cls-8" d="M1294.82,467.69c2.58,0,2-2.19-.49-2.19s-2,2.19.49,2.19Z" transform="translate(1 1.05)"/><path class="cls-8" d="M1257.8,478.16c1.77,0,2-1.52.19-1.52s-2,1.52-.19,1.52Z" transform="translate(1 1.05)"/><path class="cls-8" d="M1040.29,709c1.26,0,1.12-1.08-.13-1.08s-1.12,1.08.13,1.08Z" transform="translate(1 1.05)"/><path class="cls-8" d="M1035.24,721.56c2.3,0,2.49-2,.19-2s-2.49,2-.19,2Z" transform="translate(1 1.05)"/><path class="cls-8" d="M1062.32,722.54c1.42,0,1.24-1.22-.17-1.22s-1.24,1.22.17,1.22Z" transform="translate(1 1.05)"/><path class="cls-8" d="M1086.51,725.42c1.82,0,2.22-1.57.37-1.57s-2.22,1.57-.37,1.57Z" transform="translate(1 1.05)"/><path class="cls-8" d="M1010.88,532.07c1.47,0,1.45-1.26,0-1.26s-1.45,1.26,0,1.26Z" transform="translate(1 1.05)"/><path class="cls-8" d="M1069.55,448.46c1.82,0,1.86-1.56,0-1.56s-1.87,1.56,0,1.56Z" transform="translate(1 1.05)"/><path class="cls-8" d="M944.77,386.34c1.87,0,2-1.61.15-1.61s-2,1.61-.15,1.61Z" transform="translate(1 1.05)"/><path class="cls-8" d="M1016,382.51c2.43,0,2-2.06-.37-2.06s-2,2.06.37,2.06Z" transform="translate(1 1.05)"/><path class="cls-8" d="M1010.86,394.41c1.8,0,1.83-1.54,0-1.54s-1.83,1.54,0,1.54Z" transform="translate(1 1.05)"/><path class="cls-8" d="M1409.67,674.13c2,0,1.65-1.67-.29-1.67s-1.64,1.67.29,1.67Z" transform="translate(1 1.05)"/><path class="cls-8" d="M1419.43,648.69c2.49,0,2.22-2.12-.24-2.12s-2.22,2.12.24,2.12Z" transform="translate(1 1.05)"/><path class="cls-8" d="M1453.39,668.8c2.11,0,2.46-1.82.32-1.82s-2.46,1.82-.32,1.82Z" transform="translate(1 1.05)"/><path class="cls-8" d="M1446.36,687.89c2.54,0,2.21-2.17-.3-2.17s-2.21,2.17.3,2.17Z" transform="translate(1 1.05)"/><path class="cls-8" d="M739.5,720.34c2.61,0,2.41-2.23-.19-2.23s-2.41,2.23.19,2.23Z" transform="translate(1 1.05)"/><path class="cls-8" d="M793,706.75c2.41,0,2.8-2.07.37-2.07s-2.79,2.07-.37,2.07Z" transform="translate(1 1.05)"/><path class="cls-8" d="M614.52,653.89c2,0,2.34-1.72.31-1.72s-2.34,1.72-.31,1.72Z" transform="translate(1 1.05)"/><path class="cls-8" d="M468,487.41c1.3,0,1.19-1.11-.1-1.11s-1.19,1.11.1,1.11Z" transform="translate(1 1.05)"/><path class="cls-8" d="M453.43,449.89c2,0,1.65-1.72-.35-1.72s-1.65,1.72.35,1.72Z" transform="translate(1 1.05)"/><path class="cls-8" d="M487.73,439.28c2.49,0,2-2.12-.47-2.12s-2,2.12.47,2.12Z" transform="translate(1 1.05)"/><path class="cls-8" d="M433.8,423c2.24,0,2-1.9-.22-1.9s-2,1.9.22,1.9Z" transform="translate(1 1.05)"/><path class="cls-8" d="M355.4,704.05c2.42,0,2.48-2.07.06-2.07s-2.49,2.07-.06,2.07Z" transform="translate(1 1.05)"/><path class="cls-8" d="M360.16,727c2.41,0,2.74-2.07.32-2.07s-2.75,2.07-.32,2.07Z" transform="translate(1 1.05)"/><path class="cls-8" d="M335.65,736.42c2.28,0,2.73-2,.42-2s-2.72,2-.42,2Z" transform="translate(1 1.05)"/><path class="cls-8" d="M387.15,744.17c1.47,0,1.61-1.25.14-1.25s-1.61,1.25-.14,1.25Z" transform="translate(1 1.05)"/><path class="cls-8" d="M377.63,771.49c2.16,0,1.75-1.85-.38-1.85s-1.76,1.85.38,1.85Z" transform="translate(1 1.05)"/><path class="cls-8" d="M325.94,766c2,0,2.31-1.73.28-1.73s-2.31,1.73-.28,1.73Z" transform="translate(1 1.05)"/><path class="cls-8" d="M259.8,810.81c2.49,0,3-2.13.49-2.13s-3,2.13-.49,2.13Z" transform="translate(1 1.05)"/><path class="cls-8" d="M186.63,841.86c2.43,0,2.52-2.08.09-2.08s-2.52,2.08-.09,2.08Z" transform="translate(1 1.05)"/><path class="cls-8" d="M35.21,824.06c1.89,0,1.53-1.61-.34-1.61s-1.53,1.61.34,1.61Z" transform="translate(1 1.05)"/><path class="cls-8" d="M1277.21,781.16c2.65,0,3.17-2.28.5-2.28s-3.18,2.28-.5,2.28Z" transform="translate(1 1.05)"/><path class="cls-8" d="M1333.69,799.72c1.83,0,1.87-1.57,0-1.57s-1.87,1.57,0,1.57Z" transform="translate(1 1.05)"/><path class="cls-8" d="M1319.13,821.23c1.59,0,1.39-1.36-.19-1.36s-1.39,1.36.19,1.36Z" transform="translate(1 1.05)"/><path class="cls-8" d="M1387.5,837.29c1.23,0,1.25-1,0-1s-1.25,1,0,1Z" transform="translate(1 1.05)"/><path class="cls-8" d="M1402.37,851.15c2.08,0,1.68-1.76-.36-1.76s-1.68,1.76.36,1.76Z" transform="translate(1 1.05)"/><path class="cls-8" d="M1213.68,802.57c2.15,0,2.57-1.86.38-1.86s-2.57,1.86-.38,1.86Z" transform="translate(1 1.05)"/><path class="cls-8" d="M1551.51,702.81c2.68,0,2.4-2.29-.26-2.29s-2.41,2.29.26,2.29Z" transform="translate(1 1.05)"/><path class="cls-8" d="M1578.52,687.94c2.67,0,2.16-2.27-.48-2.27s-2.16,2.27.48,2.27Z" transform="translate(1 1.05)"/><path class="cls-8" d="M1588.08,663.05c1.32,0,1.29-1.13,0-1.13s-1.29,1.13,0,1.13Z" transform="translate(1 1.05)"/><path class="cls-8" d="M1634.47,679.84c2.66,0,2.79-2.28.12-2.28s-2.79,2.28-.12,2.28Z" transform="translate(1 1.05)"/><path class="cls-8" d="M1602.59,629.78c2.5,0,2.79-2.14.29-2.14s-2.79,2.14-.29,2.14Z" transform="translate(1 1.05)"/><path class="cls-8" d="M1634.54,629.5c1.84,0,1.81-1.57,0-1.57s-1.81,1.57,0,1.57Z" transform="translate(1 1.05)"/><path class="cls-8" d="M1514.55,460.46c1.43,0,1.74-1.24.29-1.24s-1.74,1.24-.29,1.24Z" transform="translate(1 1.05)"/><path class="cls-8" d="M1485.24,479.4c1.51,0,1.74-1.3.21-1.3s-1.74,1.3-.21,1.3Z" transform="translate(1 1.05)"/><path class="cls-8" d="M971.59,331.22c2.51,0,2.84-2.16.31-2.16s-2.84,2.16-.31,2.16Z" transform="translate(1 1.05)"/><path class="cls-8" d="M1032.7,320.43c2.56,0,2.94-2.19.37-2.19s-2.93,2.19-.37,2.19Z" transform="translate(1 1.05)"/><path class="cls-8" d="M1013.32,304.17c2.46,0,2.45-2.1,0-2.1s-2.44,2.1,0,2.1Z" transform="translate(1 1.05)"/></g><path class="cls-3" d="M378.19,726c-1.95-4.11-4-8.19-5.74-12.34-1.51-3.52-4.11-6.46-6.71-9.5s-6.27-5.33-8.14-8.79a4.31,4.31,0,0,0-4.58-1.86,18.07,18.07,0,0,1-2.74-.08c-1.38,0-2.77,0-4.15-.06,8.92,7.9,14.81,20.66,15.14,35.14a42.62,42.62,0,0,1,16.56,3.1c.37.16.79.26,1.59.52A12.57,12.57,0,0,0,378.19,726Z" transform="translate(1 1.05)"/><path class="cls-3" d="M829.93,253.4c-1,.32-1.41.45-1.83.61a86.57,86.57,0,0,1-11.28,3.44,44.36,44.36,0,0,1,2.28,14.15,41.78,41.78,0,0,1-8.62,25.95c8.68-1.73,15.14-6.84,17.56-14.07a63.62,63.62,0,0,0,3.48-16C831.82,262.83,831.71,258.21,829.93,253.4Z" transform="translate(1 1.05)"/><circle class="cls-9" cx="530.33" cy="662.4" r="50.8" transform="translate(-283.6 899.93) rotate(-67.5)"/><path class="cls-10" d="M544,622.5c-6.68-3-13.67-1.83-15.61,2.54s1.92,10.31,8.6,13.27,13.66,1.82,15.6-2.54S550.72,625.46,544,622.5Z" transform="translate(1 1.05)"/><path class="cls-11" d="M543.79,623.55c-5.37-2.38-11-1.47-12.55,2s1.54,8.29,6.91,10.67,11,1.47,12.55-2S549.16,625.93,543.79,623.55Z" transform="translate(1 1.05)"/><path class="cls-10" d="M563.55,656.17c-2.41,1-3.17,4.73-1.7,8.41s4.62,5.89,7,4.93,3.16-4.72,1.69-8.41S566,655.21,563.55,656.17Z" transform="translate(1 1.05)"/><path class="cls-11" d="M564.43,657.45c-1.93.77-2.55,3.8-1.36,6.76s3.71,4.74,5.64,4,2.55-3.8,1.37-6.76S566.37,656.68,564.43,657.45Z" transform="translate(1 1.05)"/><path class="cls-10" d="M492.26,651.24c-5,5.35-5.18,13.25-.45,17.64s12.59,3.62,17.56-1.74,5.18-13.25.46-17.64S497.24,645.89,492.26,651.24Z" transform="translate(1 1.05)"/><path class="cls-11" d="M493.45,652.07c-4,4.3-4.17,10.66-.37,14.19s10.13,2.9,14.13-1.4,4.16-10.66.37-14.19S497.45,647.76,493.45,652.07Z" transform="translate(1 1.05)"/><path class="cls-10" d="M514.65,688.72c-3.21-2-6.85-2-8.13,0s.29,5.31,3.5,7.34,6.85,2,8.13,0S517.86,690.74,514.65,688.72Z" transform="translate(1 1.05)"/><path class="cls-11" d="M513.94,689.65c-2.58-1.64-5.51-1.64-6.54,0s.23,4.26,2.81,5.9,5.51,1.63,6.54,0S516.52,691.28,513.94,689.65Z" transform="translate(1 1.05)"/><path class="cls-11" d="M537.15,671.73c-3.49,0-6.31,2.31-6.31,5.16s2.82,5.16,6.31,5.16,6.3-2.31,6.3-5.16S540.63,671.73,537.15,671.73Z" transform="translate(1 1.05)"/><path class="cls-11" d="M501.8,628.31c-2.12,2.16-2.59,5.12-1.06,6.62s4.48,1,6.59-1.19,2.59-5.11,1.06-6.61S503.91,626.16,501.8,628.31Z" transform="translate(1 1.05)"/><path class="cls-11" d="M544.68,698.84c-1.9.92-2.89,2.76-2.24,4.1s2.73,1.68,4.62.76,2.89-2.77,2.23-4.11S546.57,697.91,544.68,698.84Z" transform="translate(1 1.05)"/><path class="cls-11" d="M529.05,647.14c-1.92-.87-4-.47-4.59.9s.44,3.16,2.36,4,4,.47,4.59-.89S531,648,529.05,647.14Z" transform="translate(1 1.05)"/><path class="cls-10" d="M518.59,647.08a51,51,0,0,1,14.22-35.35c-.83,0-1.64-.13-2.48-.13a50.8,50.8,0,1,0,36.08,86.54A51.19,51.19,0,0,1,518.59,647.08Z" transform="translate(1 1.05)"/><circle class="cls-12" cx="1705.77" cy="296.78" r="57.74" transform="translate(19.22 685) rotate(-22.79)"/><path class="cls-10" d="M1698.16,324.17c-7.6-3.37-15.54-2.08-17.74,2.88s2.18,11.72,9.77,15.09,15.53,2.07,17.73-2.89S1705.75,327.54,1698.16,324.17Z" transform="translate(1 1.05)"/><path class="cls-13" d="M1696.88,325.58c-6.11-2.71-12.49-1.67-14.26,2.32s1.74,9.42,7.85,12.13,12.49,1.67,14.26-2.32S1703,328.29,1696.88,325.58Z" transform="translate(1 1.05)"/><path class="cls-10" d="M1662,288.7c-2.74,1.09-3.6,5.37-1.93,9.56s5.24,6.7,8,5.61,3.6-5.38,1.93-9.56S1664.69,287.61,1662,288.7Z" transform="translate(1 1.05)"/><path class="cls-13" d="M1662.14,289.3c-2.2.88-2.89,4.32-1.55,7.69s4.22,5.39,6.42,4.51,2.89-4.32,1.55-7.69S1664.34,288.42,1662.14,289.3Z" transform="translate(1 1.05)"/><path class="cls-10" d="M1729.59,291.39c-5.66,6.09-5.89,15.07-.52,20.06s14.31,4.11,20-2,5.88-15.06.51-20.05S1735.25,285.31,1729.59,291.39Z" transform="translate(1 1.05)"/><path class="cls-13" d="M1732.05,293.08c-4.55,4.89-4.74,12.11-.42,16.13s11.51,3.3,16.06-1.59,4.73-12.12.42-16.13S1736.6,288.18,1732.05,293.08Z" transform="translate(1 1.05)"/><path class="cls-10" d="M1728.86,258.55c-3.65-2.31-7.79-2.31-9.24,0s.33,6,4,8.34,7.79,2.32,9.24,0S1732.51,260.85,1728.86,258.55Z" transform="translate(1 1.05)"/><path class="cls-13" d="M1728.63,258.21c-2.93-1.86-6.26-1.86-7.43,0s.27,4.85,3.2,6.7,6.26,1.86,7.43,0S1731.57,260.06,1728.63,258.21Z" transform="translate(1 1.05)"/><path class="cls-10" d="M1694.17,277.36c-4,0-7.17,2.63-7.17,5.87s3.21,5.87,7.17,5.87,7.17-2.63,7.17-5.87S1698.13,277.36,1694.17,277.36Z" transform="translate(1 1.05)"/><path class="cls-10" d="M1731.91,329.36c-2.4,2.44-2.94,5.81-1.2,7.51s5.09,1.11,7.49-1.34,2.94-5.81,1.2-7.52S1734.31,326.91,1731.91,329.36Z" transform="translate(1 1.05)"/><path class="cls-10" d="M1686.76,249.85c-2.15,1.05-3.29,3.14-2.54,4.67s3.1,1.9,5.24.85,3.29-3.14,2.54-4.67S1688.91,248.79,1686.76,249.85Z" transform="translate(1 1.05)"/><path class="cls-10" d="M1709.76,308.53c-2.18-1-4.52-.54-5.22,1s.51,3.6,2.69,4.59,4.51.53,5.21-1S1711.94,309.51,1709.76,308.53Z" transform="translate(1 1.05)"/><path class="cls-10" d="M1692.43,279.37a58,58,0,0,1,16.15-40.18c-.93-.05-1.86-.14-2.81-.14a57.74,57.74,0,1,0,41,98.36A58.2,58.2,0,0,1,1692.43,279.37Z" transform="translate(1 1.05)"/><path class="cls-14" d="M1302.45,69a141.84,141.84,0,1,0,281.82,0Z" transform="translate(1 1.05)"/><path class="cls-15" d="M1462.4,111.12c-9.73,0-17.61,6.45-17.61,14.41S1452.67,140,1462.4,140,1480,133.5,1480,125.53,1472.12,111.12,1462.4,111.12Z" transform="translate(1 1.05)"/><path class="cls-15" d="M1435.46,170.83c-3.47-1.76-7.45-.88-8.88,2s.21,6.57,3.68,8.32,7.44.88,8.88-2S1438.93,172.59,1435.46,170.83Z" transform="translate(1 1.05)"/><path class="cls-15" d="M1353.6,101.66c-3.83,0-6.93,2.54-6.93,5.67s3.1,5.67,6.93,5.67,6.93-2.54,6.93-5.67S1357.43,101.66,1353.6,101.66Z" transform="translate(1 1.05)"/><path class="cls-15" d="M1483.42,186.81c-5.28,2.59-8.07,7.73-6.24,11.47s7.61,4.69,12.89,2.1,8.07-7.72,6.23-11.47S1488.7,184.23,1483.42,186.81Z" transform="translate(1 1.05)"/><path class="cls-15" d="M1526.07,69h-14.3c-3.93,2.77-5.8,7-4.22,10.27,1.84,3.74,7.61,4.68,12.89,2.09s8.07-7.72,6.23-11.47A6,6,0,0,0,1526.07,69Z" transform="translate(1 1.05)"/><path class="cls-15" d="M1530.67,136.31c-5.28,2.59-8.07,7.73-6.24,11.47s7.61,4.69,12.89,2.1,8.07-7.73,6.23-11.47S1535.94,133.72,1530.67,136.31Z" transform="translate(1 1.05)"/><path class="cls-15" d="M1334.67,73.22c5.36,2.42,11.1,1.3,12.82-2.5a5.74,5.74,0,0,0,.44-1.72h-18.61A13.6,13.6,0,0,0,1334.67,73.22Z" transform="translate(1 1.05)"/><path class="cls-10" d="M1413.09,69H1302.45a141.8,141.8,0,0,0,241.66,115.87A143.05,143.05,0,0,1,1413.09,69Z" transform="translate(1 1.05)"/><path class="cls-16" d="M1446.94,307.32a138.22,138.22,0,0,0-39.53-7.17,27.22,27.22,0,0,0-2.17,7.68q27,3.32,53.89,7.89a27.16,27.16,0,0,0,.35-4.35c0-.81,0-1.61-.11-2.4C1455.32,310.24,1451,308.68,1446.94,307.32Z" transform="translate(1 1.05)"/><path class="cls-17" d="M1405.25,315a26.52,26.52,0,0,0,1.48,5.91c7.78-1,14.31,1.1,22.18,1.12,4.1,0,8.29,0,12.19,1.31,2.13.7,4.12,1.75,6.18,2.61s5.73-.53,8,0a26.23,26.23,0,0,0,1.88-3.51c-4.23-1.71-9.85-5.82-22.83-8.35C1420,311.31,1409.5,313.68,1405.25,315Z" transform="translate(1 1.05)"/><path class="cls-18" d="M1405.24,307.83a27.57,27.57,0,0,0-.23,3.54,27,27,0,0,0,.24,3.62c4.25-1.31,14.77-3.68,29-.91,13,2.53,18.6,6.64,22.83,8.35a27.11,27.11,0,0,0,2-6.71c-9.81-1.67-19.74-6.36-29.59-7.78C1421.41,306.77,1413.38,308.83,1405.24,307.83Z" transform="translate(1 1.05)"/><path class="cls-17" d="M1455.57,298c-11.23-1.75-22.76,2.44-34,.6a43.06,43.06,0,0,1-11.13-3.63,27.77,27.77,0,0,0-3.06,5.15,138.22,138.22,0,0,1,39.53,7.17c4,1.36,8.38,2.92,12.43,1.65a26.89,26.89,0,0,0-3.34-10.86Z" transform="translate(1 1.05)"/><path class="cls-16" d="M1441.27,292.08c-6.67-1-13.36-2.57-19.35-5.69l-.24-.13a27.33,27.33,0,0,0-11.21,8.74,43.06,43.06,0,0,0,11.13,3.63c11.21,1.84,22.74-2.35,34-.6l.46.08a26.71,26.71,0,0,0-3.38-4.77Q1446.94,293,1441.27,292.08Z" transform="translate(1 1.05)"/><path class="cls-17" d="M1432.24,284.13a27.09,27.09,0,0,0-10.56,2.13l.24.13c6,3.12,12.68,4.67,19.35,5.69q5.65.87,11.38,1.26A27.15,27.15,0,0,0,1432.24,284.13Z" transform="translate(1 1.05)"/><path class="cls-17" d="M1412.07,329.67a27.6,27.6,0,0,0,7.16,5.63,39,39,0,0,1,20.62,2.22,27.13,27.13,0,0,0,8.44-4.15C1446.56,323.27,1420.73,318.76,1412.07,329.67Z" transform="translate(1 1.05)"/><path class="cls-17" d="M1419.23,335.3c3.9,2.48,7.58,3.18,13,3.3a25.28,25.28,0,0,0,7.61-1.08A39,39,0,0,0,1419.23,335.3Z" transform="translate(1 1.05)"/><path class="cls-16" d="M1419.74,322.09a11.74,11.74,0,0,1-3.14,1.19c1.86.83,1.71,1.28,3.88,1.28a9.64,9.64,0,0,0,4.45-1.06S1421.39,321.18,1419.74,322.09Z" transform="translate(1 1.05)"/><path class="cls-16" d="M1420.12,326.25c-3.78,0-4.45-.61-6.48-1.75l-4.68,1a28.25,28.25,0,0,0,3.11,4.17c3.89-1.3,8.66.08,16.44-1.79,6.44-1.54,15.89,2.16,19.78,5.49a27.3,27.3,0,0,0,3.21-2.76c-2.89-1.25-9.72-4.78-22.88-6A22.84,22.84,0,0,1,1420.12,326.25Z" transform="translate(1 1.05)"/><path class="cls-16" d="M1442.5,321.21c-3.9-1.27-8.09-1.3-12.19-1.31-4.49,0-6.7-4.9-14.16-1.73a35.17,35.17,0,0,1-9.42,2.73,25.94,25.94,0,0,0,1.26,2.85l3.67-.47a26.68,26.68,0,0,0,6.8-2.61c2.46-1.36,6.78.47,9.44,1.87h0c14,1.42,22.88,5,25.31,6.19a25.57,25.57,0,0,0,2-2.79,41.57,41.57,0,0,1-6.57-2.12C1446.62,323,1444.63,321.91,1442.5,321.21Z" transform="translate(1 1.05)"/><path class="cls-16" d="M1419.74,322.09a11.74,11.74,0,0,1-3.14,1.19c1.86.83,1.71,1.28,3.88,1.28a9.64,9.64,0,0,0,4.45-1.06S1421.39,321.18,1419.74,322.09Z" transform="translate(1 1.05)"/><path class="cls-17" d="M1427.9,322.54c-2.66-1.4-7-3.23-9.44-1.87a26.68,26.68,0,0,1-6.8,2.61l-3.67.47c.3.6.62,1.18,1,1.75l4.68-1c2,1.14,2.7,1.75,6.48,1.75a22.84,22.84,0,0,0,8.5-1.66c13.16,1.24,20,4.77,22.88,6,.6-.6,1.17-1.23,1.71-1.88-2.43-1.14-11.28-4.77-25.31-6.19Zm-7.42,2c-2.17,0-2-.45-3.88-1.28a11.74,11.74,0,0,0,3.14-1.19c1.65-.91,5.19,1.41,5.19,1.41A9.64,9.64,0,0,1,1420.48,324.56Z" transform="translate(1 1.05)"/><path class="cls-19" d="M1423.25,301.73a27.42,27.42,0,0,1,6.24-17.46,27.22,27.22,0,0,0-19,10.73,27.77,27.77,0,0,0-3.06,5.15,27.22,27.22,0,0,0-2.17,7.68,27.57,27.57,0,0,0-.23,3.54,27.24,27.24,0,0,0,7.06,18.3,27.6,27.6,0,0,0,7.16,5.63c3.9,2.48,7.75,3.23,13,3.3a23.71,23.71,0,0,0,7.61-1.08,26.8,26.8,0,0,0,13-8.35c-.67.05-1.34.11-2,.11A27.55,27.55,0,0,1,1423.25,301.73Z" transform="translate(1 1.05)"/><path class="cls-20" d="M322.62,302.8c-39.32-6.11-79.72,8.55-119,2.1-13.57-2.23-26.48-6.9-39-12.71A96.05,96.05,0,0,0,154,310.25a483,483,0,0,1,138.43,25.1c14.13,4.77,29.39,10.24,43.56,5.79a94.68,94.68,0,0,0-11.69-38.06Z" transform="translate(1 1.05)"/><path class="cls-21" d="M272.54,282c-23.38-3.58-46.8-9-67.77-19.94l-.86-.46a95.73,95.73,0,0,0-39.25,30.62c12.49,5.81,25.4,10.48,39,12.71,39.27,6.45,79.67-8.21,119-2.1l1.63.28a96,96,0,0,0-11.84-16.71Q292.4,285,272.54,282Z" transform="translate(1 1.05)"/><path class="cls-22" d="M292.38,335.35A483,483,0,0,0,154,310.25a94.53,94.53,0,0,0-7.63,26.89q94.7,11.58,188.77,27.64a96,96,0,0,0,1.22-15.26c0-2.82-.13-5.62-.37-8.38C321.77,345.59,306.51,340.12,292.38,335.35Z" transform="translate(1 1.05)"/><path class="cls-23" d="M240.91,254.12a95,95,0,0,0-37,7.45l.86.46c21,10.94,44.39,16.36,67.77,19.94q19.83,3,39.87,4.4A95.15,95.15,0,0,0,240.91,254.12Z" transform="translate(1 1.05)"/><path class="cls-20" d="M170.26,413.62a95.67,95.67,0,0,0,25.08,19.73,136.51,136.51,0,0,1,72.21,7.79,94.88,94.88,0,0,0,29.59-14.55A333.38,333.38,0,0,0,170.26,413.62Z" transform="translate(1 1.05)"/><path class="cls-21" d="M276.85,384c-13.67-4.46-28.33-4.55-42.71-4.59-27.57-.08-55.34-.13-82.6,3.52a95.32,95.32,0,0,0,18.72,30.69,333.38,333.38,0,0,1,126.88,13,95.87,95.87,0,0,0,24.37-26,147.11,147.11,0,0,1-23-7.42C291.28,390.12,284.3,386.44,276.85,384Z" transform="translate(1 1.05)"/><path class="cls-23" d="M145.52,349.52a95.14,95.14,0,0,0,6,33.41c27.26-3.65,55-3.6,82.6-3.52,14.38,0,29,.13,42.71,4.59,7.45,2.44,14.43,6.12,21.66,9.16a147.11,147.11,0,0,0,23,7.42,94.8,94.8,0,0,0,13.58-35.8q-94-16.06-188.77-27.64A95.35,95.35,0,0,0,145.52,349.52Z" transform="translate(1 1.05)"/><path class="cls-22" d="M195.34,433.35c13.65,8.71,24.61,10.89,45.57,11.57a85.35,85.35,0,0,0,26.64-3.78A136.51,136.51,0,0,0,195.34,433.35Z" transform="translate(1 1.05)"/><path class="cls-24" d="M214.21,303.92a102,102,0,0,1,12.32-48.72,95.26,95.26,0,0,0-61.87,37A96.05,96.05,0,0,0,154,310.25a95.35,95.35,0,0,0,16.31,103.37,95.67,95.67,0,0,0,25.08,19.73c13.65,8.71,27.3,11.6,45.57,11.57,13.15,0,18.19-1.32,26.64-3.78a94.72,94.72,0,0,0,29.58-14.55,95.78,95.78,0,0,0,20.4-20.35l-1,0A102.34,102.34,0,0,1,214.21,303.92Z" transform="translate(1 1.05)"/><path class="cls-25" d="M631.06,534c-2,.47-3.31,2.12-2.94,3.69s2.29,2.45,4.29,2,3.31-2.13,2.94-3.7S633.06,533.54,631.06,534Z" transform="translate(1 1.05)"/><path class="cls-25" d="M513,613.28a3,3,0,0,0-1.47,3.14c.19,1.33,1.15,2.09,2.15,1.68A3,3,0,0,0,515.1,615C514.91,613.63,514,612.88,513,613.28Z" transform="translate(1 1.05)"/><path class="cls-25" d="M698.05,386.54c-2,.47-3.31,2.12-2.94,3.69s2.29,2.45,4.29,2,3.31-2.13,2.94-3.7S700.05,386.06,698.05,386.54Z" transform="translate(1 1.05)"/><path class="cls-25" d="M485.45,518.25c-2,.47-3.31,2.12-2.94,3.69s2.29,2.45,4.29,2,3.31-2.13,2.94-3.7S487.45,517.77,485.45,518.25Z" transform="translate(1 1.05)"/><path class="cls-25" d="M738,556.34c-2,.47-3.31,2.13-2.94,3.69s2.29,2.45,4.29,2,3.31-2.13,2.94-3.69S740,555.87,738,556.34Z" transform="translate(1 1.05)"/><path class="cls-25" d="M456.55,327.76a3,3,0,0,0-1.47,3.14c.18,1.33,1.14,2.08,2.14,1.68a3,3,0,0,0,1.47-3.14C458.5,328.11,457.54,327.36,456.55,327.76Z" transform="translate(1 1.05)"/><path class="cls-25" d="M471.7,235.37a3,3,0,0,0-1.47,3.14c.19,1.33,1.15,2.09,2.14,1.68a3,3,0,0,0,1.47-3.14C473.66,235.72,472.7,235,471.7,235.37Z" transform="translate(1 1.05)"/><path class="cls-25" d="M1023.22,532.85c-1-.31-1.94.53-2.08,1.88a2.81,2.81,0,0,0,1.57,3c1,.31,1.94-.53,2.08-1.88A2.79,2.79,0,0,0,1023.22,532.85Z" transform="translate(1 1.05)"/><path class="cls-25" d="M1054.31,350.67c-2-.36-3.89.62-4.18,2.21s1.12,3.16,3.14,3.52,3.89-.62,4.18-2.21S1056.33,351,1054.31,350.67Z" transform="translate(1 1.05)"/><path class="cls-25" d="M1338,153.14c-2-.36-3.89.63-4.18,2.21s1.12,3.16,3.14,3.53,3.89-.63,4.18-2.21S1340,153.5,1338,153.14Z" transform="translate(1 1.05)"/><path class="cls-25" d="M1215.74,363.23c-1-.31-1.94.53-2.09,1.88a2.82,2.82,0,0,0,1.57,3c1,.3,2-.54,2.09-1.88A2.81,2.81,0,0,0,1215.74,363.23Z" transform="translate(1 1.05)"/><path class="cls-25" d="M1126.91,438.86c-2-.37-3.89.62-4.17,2.21s1.12,3.16,3.14,3.52,3.88-.62,4.17-2.21S1128.93,439.22,1126.91,438.86Z" transform="translate(1 1.05)"/><path class="cls-25" d="M1404.62,214.41c-1-.31-1.95.53-2.09,1.88a2.81,2.81,0,0,0,1.57,3c1,.31,1.94-.54,2.09-1.88A2.81,2.81,0,0,0,1404.62,214.41Z" transform="translate(1 1.05)"/><path class="cls-25" d="M557.49,401.43c-2-.37-3.89.62-4.17,2.21s1.12,3.16,3.14,3.52,3.88-.62,4.17-2.21S559.51,401.79,557.49,401.43Z" transform="translate(1 1.05)"/><path class="cls-25" d="M955.34,390.93c-.79.71-.54,1.94.54,2.75a2.8,2.8,0,0,0,3.38.19c.78-.71.54-1.94-.55-2.75A2.8,2.8,0,0,0,955.34,390.93Z" transform="translate(1 1.05)"/><path class="cls-25" d="M1176.9,542.75c-.78.71-.53,1.94.55,2.75a2.81,2.81,0,0,0,3.38.19c.78-.71.54-1.94-.55-2.76A2.81,2.81,0,0,0,1176.9,542.75Z" transform="translate(1 1.05)"/><path class="cls-25" d="M764.24,463c-.78.71-.54,1.94.55,2.75a2.81,2.81,0,0,0,3.38.19c.78-.71.53-1.94-.55-2.76A2.81,2.81,0,0,0,764.24,463Z" transform="translate(1 1.05)"/><path class="cls-25" d="M613.18,436.68c-1-.3-1.94.54-2.09,1.88a2.81,2.81,0,0,0,1.57,3c1,.31,2-.53,2.09-1.88A2.81,2.81,0,0,0,613.18,436.68Z" transform="translate(1 1.05)"/><path class="cls-25" d="M934.11,216.92c-2-.36-3.89.63-4.17,2.21s1.12,3.17,3.14,3.53,3.89-.63,4.17-2.21S936.13,217.29,934.11,216.92Z" transform="translate(1 1.05)"/><path class="cls-25" d="M819.51,148.32c-2-.36-3.89.63-4.18,2.21s1.12,3.16,3.14,3.53,3.89-.63,4.18-2.21S821.53,148.69,819.51,148.32Z" transform="translate(1 1.05)"/><path class="cls-25" d="M816.59,508.64a2.8,2.8,0,0,0-3.37.27c-.68.81-.27,2,.91,2.65a2.81,2.81,0,0,0,3.38-.27C818.18,510.48,817.78,509.29,816.59,508.64Z" transform="translate(1 1.05)"/><path class="cls-25" d="M1292.29,354.78c-2-.36-3.89.63-4.17,2.21s1.12,3.16,3.14,3.53,3.89-.63,4.17-2.21S1294.31,355.14,1292.29,354.78Z" transform="translate(1 1.05)"/><path class="cls-25" d="M837.38,285.25c-2-.37-3.89.62-4.17,2.21s1.12,3.16,3.14,3.52,3.88-.62,4.17-2.21S839.4,285.61,837.38,285.25Z" transform="translate(1 1.05)"/><path class="cls-25" d="M901.34,353.61c-2-.36-3.88.63-4.17,2.21s1.12,3.16,3.14,3.53,3.89-.63,4.17-2.21S903.36,354,901.34,353.61Z" transform="translate(1 1.05)"/><path class="cls-25" d="M1128.15,527.23a1.83,1.83,0,1,0,1.91,2.15A2.07,2.07,0,0,0,1128.15,527.23Z" transform="translate(1 1.05)"/><path class="cls-25" d="M762.18,272.76a2.8,2.8,0,0,0-3.24.95c-.51.93.13,2,1.43,2.41a2.79,2.79,0,0,0,3.24-.94C764.12,274.25,763.48,273.17,762.18,272.76Z" transform="translate(1 1.05)"/><path class="cls-25" d="M725.66,214c-2-.36-3.89.63-4.18,2.21s1.12,3.16,3.14,3.53,3.89-.63,4.18-2.21S727.67,214.34,725.66,214Z" transform="translate(1 1.05)"/><path class="cls-25" d="M501.41,160c-2-.36-3.88.63-4.17,2.21s1.12,3.16,3.14,3.53,3.89-.63,4.17-2.21S503.43,160.4,501.41,160Z" transform="translate(1 1.05)"/><path class="cls-25" d="M1350.32,304.18c-2-.36-3.88.63-4.17,2.21s1.12,3.16,3.14,3.53,3.89-.63,4.17-2.21S1352.34,304.55,1350.32,304.18Z" transform="translate(1 1.05)"/><path class="cls-25" d="M1444,623c-2-.36-3.89.63-4.17,2.21s1.12,3.17,3.14,3.53,3.89-.63,4.17-2.21S1446,623.39,1444,623Z" transform="translate(1 1.05)"/><path class="cls-25" d="M1221.53,538.41c-2-.37-3.89.62-4.17,2.21s1.12,3.16,3.14,3.52,3.88-.62,4.17-2.21S1223.55,538.77,1221.53,538.41Z" transform="translate(1 1.05)"/><path class="cls-25" d="M1099,568.68c-2-.37-3.89.62-4.18,2.21s1.12,3.16,3.14,3.52,3.89-.62,4.18-2.21S1101,569,1099,568.68Z" transform="translate(1 1.05)"/><path class="cls-25" d="M894,475.81c-2-.36-3.89.63-4.17,2.21s1.12,3.17,3.14,3.53,3.88-.63,4.17-2.21S896,476.18,894,475.81Z" transform="translate(1 1.05)"/><path class="cls-25" d="M694.52,566.52c-2-.37-3.89.62-4.17,2.21s1.12,3.16,3.14,3.52,3.89-.62,4.17-2.21S696.54,566.88,694.52,566.52Z" transform="translate(1 1.05)"/><path class="cls-25" d="M953.91,501.82c-2-.36-3.89.63-4.18,2.21s1.12,3.16,3.14,3.53,3.89-.63,4.18-2.21S955.93,502.19,953.91,501.82Z" transform="translate(1 1.05)"/><path class="cls-25" d="M1085.49,475.81c-2-.36-3.89.63-4.17,2.21s1.12,3.17,3.14,3.53,3.89-.63,4.17-2.21S1087.51,476.18,1085.49,475.81Z" transform="translate(1 1.05)"/><path class="cls-25" d="M1450.93,401.86c-1-.31-1.94.53-2.08,1.88a2.8,2.8,0,0,0,1.56,3c1,.31,1.95-.53,2.09-1.88A2.81,2.81,0,0,0,1450.93,401.86Z" transform="translate(1 1.05)"/><polygon class="cls-26" points="589.72 499.22 591.03 496.11 588.62 498.4 585.21 490.54 587.29 498.75 584.33 498.17 586.74 500 582.67 502.61 587.38 501.22 586.8 507.74 588.72 501.48 591.81 504.04 589.77 500.59 596.24 499.68 589.72 499.22"/><polygon class="cls-26" points="1475.54 499.02 1475.56 495.65 1474.2 498.69 1468.04 492.73 1473.11 499.52 1470.15 500.12 1473.08 500.89 1470.32 504.85 1474.13 501.77 1476.11 508.01 1475.48 501.5 1479.32 502.68 1476.1 500.27 1481.74 496.95 1475.54 499.02"/><polygon class="cls-26" points="1290.79 439.2 1293.31 436.97 1290.15 437.99 1290.47 429.42 1288.8 437.73 1286.38 435.93 1287.76 438.62 1282.97 439.21 1287.81 439.99 1284.47 445.63 1288.91 440.81 1290.59 444.46 1290.24 440.46 1296.47 442.44 1290.79 439.2"/><polygon class="cls-26" points="869.86 255.24 869.88 251.86 868.53 254.9 862.37 248.95 867.44 255.73 864.48 256.34 867.41 257.11 864.65 261.07 868.46 257.99 870.43 264.23 869.81 257.71 873.64 258.89 870.43 256.49 876.07 253.17 869.86 255.24"/><polygon class="cls-26" points="1456.12 187.02 1456.14 183.65 1454.79 186.69 1448.63 180.73 1453.7 187.52 1450.74 188.12 1453.67 188.89 1450.91 192.85 1454.72 189.77 1456.69 196.01 1456.07 189.49 1459.9 190.68 1456.69 188.27 1462.33 184.96 1456.12 187.02"/><polygon class="cls-26" points="1310.34 593.63 1309.58 588.83 1308.14 593.48 1301.96 588.77 1306.65 595.12 1296.47 597.85 1307 597.3 1304.83 603.39 1308.92 598.39 1313.87 607.69 1310.97 597.56 1316.4 597.83 1311.61 595.44 1321.61 585.94 1310.34 593.63"/><polygon class="cls-26" points="1410.77 361.96 1410.75 351.42 1408.57 361.73 1403.25 358.07 1407.03 363.31 1396.77 365.7 1407.3 365.51 1405.64 370.68 1409.18 366.67 1415.79 378.78 1411.26 365.91 1416.1 366.4 1411.97 363.82 1418.11 359.06 1410.77 361.96"/><polygon class="cls-26" points="451.37 643.2 453.91 639.06 449.79 641.65 448.17 634.05 447.59 641.92 438.09 637.37 446.44 643.81 440.82 647.01 447.19 645.88 444.88 656.16 449.28 646.59 453.22 650.33 451.14 645.4 464.92 644.71 451.37 643.2"/><polygon class="cls-26" points="613.54 374.41 612.78 369.61 611.34 374.26 605.16 369.55 609.85 375.9 599.67 378.64 610.2 378.08 608.03 384.17 612.12 379.17 617.07 388.47 614.17 378.34 619.6 378.61 614.81 376.23 624.81 366.72 613.54 374.41"/><path class="cls-27" d="M1765.55,770.9a269.71,269.71,0,0,1-50.43,17.89c21.3,26.22,48.4,29,68,19.81s37.82-30.6,28.48-64.89A269.88,269.88,0,0,1,1765.55,770.9Z" transform="translate(1 1.05)"/><path class="cls-28" d="M1796.71,726.47c.42.54.83,1.09,1.22,1.65,16-4,27.44-4,29.72.87,2.41,5.17-6,14.66-20.89,25.13a282.17,282.17,0,0,1-79.83,37.29c-17.6,4.72-30.26,5.05-32.67-.11-2.28-4.87,5-13.6,18.4-23.35-.18-.66-.34-1.33-.48-2-20.64,13.68-32.66,26.41-29.55,33.07,3.36,7.18,23.42,5.4,50-3.21a350,350,0,0,0,73.81-34.47c23.68-14.89,37.92-29.13,34.56-36.31C1837.92,718.38,1820.45,719.42,1796.71,726.47Z" transform="translate(1 1.05)"/><path class="cls-29" d="M1798.23,722.75c.56.72,1.1,1.45,1.63,2.19,21.35-5.29,51.37-12.81,54.39-6.33,3.21,6.87-7.94,19.51-27.78,33.43-13.59,9.53-31.25,19.67-51.16,29s-39,16.34-55.06,20.64c-23.41,6.28-40.26,6.72-43.47-.15-3-6.47,15-21.62,32.72-34.6-.23-.88-.44-1.76-.63-2.65-27.47,18.2-51.69,38.68-47.56,47.54,4.47,9.55,31.16,7.19,66.57-4.27a466.71,466.71,0,0,0,98.19-45.86c31.51-19.8,50.46-38.75,46-48.31C1867.93,704.49,1829.81,713.38,1798.23,722.75Z" transform="translate(1 1.05)"/><path class="cls-29" d="M1798.78,729.29c.42.64.83,1.3,1.23,2,5.57-.38,9.29.48,10.36,2.77s-.82,6-5,10.23c-7.46,7.5-22.12,17-40,25.34s-34.54,13.48-45.08,14.39c-6,.51-10-.32-11.08-2.71s.66-5.69,4.53-9.72c-.26-.73-.5-1.46-.72-2.2-9.43,7.52-14.36,14.09-12.55,18,1.91,4.09,11,4.35,23.85,1.47,11.86-2.64,27-7.92,42.85-15.34s29.64-15.62,39.27-23c10.49-8.06,16.09-15.15,14.18-19.24C1818.8,727.32,1810.6,726.88,1798.78,729.29Z" transform="translate(1 1.05)"/><path class="cls-30" d="M1806.63,730.5c-.45-.75-.92-1.49-1.39-2.22-.34-.5-.68-1-1-1.47s-.9-1.25-1.38-1.86a54,54,0,0,0-65.48-15.79l-.2.1h0a54,54,0,0,0-29.71,60.25q.24,1.13.54,2.25c.15.57.3,1.15.47,1.73q.38,1.25.81,2.49.88,2.5,2,4.95a53,53,0,0,0,3.2,5.84c11.41-1.32,28.15-6.41,46.29-14.45h0c1.67-.74,3.34-1.49,5-2.28,6.27-2.93,12.2-6,17.67-9,10.94-6.14,20-12.38,26.3-17.92.63-.55,1.22-1.1,1.79-1.64a54.8,54.8,0,0,0-2.42-6.2Q1808,732.79,1806.63,730.5Z" transform="translate(1 1.05)"/><path class="cls-31" d="M1735.2,730.74a47.57,47.57,0,0,1,6-23.19c-1.3.49-2.59,1-3.87,1.61l-.2.1h0a54,54,0,0,0-29.71,60.25c.16.75.34,1.5.53,2.25.16.57.31,1.15.48,1.73q.38,1.25.81,2.49.88,2.5,2,4.95a53,53,0,0,0,3.2,5.84c11.25-1.3,27.68-6.28,45.53-14.13A47.77,47.77,0,0,1,1735.2,730.74Z" transform="translate(1 1.05)"/><ellipse class="cls-32" cx="804.21" cy="420.7" rx="15.88" ry="16.39"/><path class="cls-10" d="M805.34,422.65a1.69,1.69,0,1,0,2,1.67A1.84,1.84,0,0,0,805.34,422.65Z" transform="translate(1 1.05)"/><path class="cls-10" d="M799,430.38a.76.76,0,0,0-.24,1,.72.72,0,0,0,.93.44.76.76,0,0,0,.23-1A.72.72,0,0,0,799,430.38Z" transform="translate(1 1.05)"/><path class="cls-10" d="M795.65,422.25a1.69,1.69,0,1,0,2,1.66A1.83,1.83,0,0,0,795.65,422.25Z" transform="translate(1 1.05)"/><path class="cls-10" d="M805.34,407.15a1.69,1.69,0,1,0,2,1.66A1.83,1.83,0,0,0,805.34,407.15Z" transform="translate(1 1.05)"/><path class="cls-10" d="M794.29,408.65a1.6,1.6,0,0,0-.33,2.13c.48.48,1.4.31,2.06-.38a1.6,1.6,0,0,0,.33-2.13C795.87,407.78,795,408,794.29,408.65Z" transform="translate(1 1.05)"/><path class="cls-10" d="M807.69,431.4a1.11,1.11,0,0,0-.7,1.32c.21.44.85.54,1.44.25s.91-.9.7-1.33A1,1,0,0,0,807.69,431.4Z" transform="translate(1 1.05)"/><path class="cls-10" d="M811.09,417.65a1.11,1.11,0,0,0-.7,1.32c.21.44.85.54,1.44.25s.91-.9.7-1.33A1,1,0,0,0,811.09,417.65Z" transform="translate(1 1.05)"/><path class="cls-10" d="M813,425.56a1.12,1.12,0,0,0-.7,1.33,1,1,0,0,0,1.44.24c.59-.3.91-.89.7-1.32A1,1,0,0,0,813,425.56Z" transform="translate(1 1.05)"/><path class="cls-10" d="M802.81,414.72a1.05,1.05,0,0,0-1.44.29c-.19.44.14,1,.74,1.3a1,1,0,0,0,1.43-.29C803.74,415.58,803.41,415,802.81,414.72Z" transform="translate(1 1.05)"/><path class="cls-10" d="M812,410.26a1.05,1.05,0,0,0-1.44.29c-.19.44.14,1,.74,1.3a1,1,0,0,0,1.43-.29C812.91,411.12,812.58,410.54,812,410.26Z" transform="translate(1 1.05)"/><path class="cls-10" d="M791.74,416.68a1.05,1.05,0,0,0-1.44.29c-.19.44.14,1,.74,1.3a1.05,1.05,0,0,0,1.44-.28A1.12,1.12,0,0,0,791.74,416.68Z" transform="translate(1 1.05)"/><path class="cls-10" d="M799.54,414.7A16.71,16.71,0,0,1,804,403.3c-.26,0-.51,0-.77,0a16.39,16.39,0,0,0,0,32.77,15.55,15.55,0,0,0,11.27-4.86A16.29,16.29,0,0,1,799.54,414.7Z" transform="translate(1 1.05)"/><polygon class="cls-33" points="91.09 193.87 304.16 943.11 346.06 937.67 132.99 188.44 91.09 193.87"/><polygon class="cls-34" points="122.52 189.27 335.58 938.5 346.06 937.67 132.99 188.44 122.52 189.27"/><polygon class="cls-33" points="1593.94 932.67 1635.84 938.11 1848.91 188.87 1807.01 183.44 1593.94 932.67"/><polygon class="cls-34" points="1593.94 932.67 1604.42 933.5 1817.48 184.27 1807.01 183.44 1593.94 932.67"/><path class="cls-35" d="M45.47,902.73.23,921.15a.36.36,0,0,0-.23.32v159.1a.38.38,0,0,0,.47.34l587.42-99.33a.37.37,0,0,0,.32-.35V947.51a.37.37,0,0,1,.39-.36h740.28a.38.38,0,0,1,.4.36v33.72a.36.36,0,0,0,.32.35l589.93,99.33a.38.38,0,0,0,.47-.34V912.19a.36.36,0,0,0-.3-.34l-66.54-14.51C1423.28,819.91,441,821.93,45.55,902.71Z" transform="translate(1 1.05)"/><path class="cls-36" d="M1920,938.37v-6.63c-280.24-67-608.74-68.43-960-68.43S280.24,864.76,0,931.74v6.63C280.24,871.39,608.74,870,960,870S1639.76,871.39,1920,938.37Z" transform="translate(1 1.05)"/><path class="cls-36" d="M1920,919.29v0Z" transform="translate(1 1.05)"/><path class="cls-37" d="M1920,913v0Z" transform="translate(1 1.05)"/><path class="cls-37" d="M1920,931.74V919.29c-280.24-67-608.74-68.43-960-68.43S280.24,852.31,0,919.29v12.45c280.24-67,608.74-68.43,960-68.43S1639.76,864.76,1920,931.74Z" transform="translate(1 1.05)"/><path class="cls-36" d="M1920,902.83v0Z" transform="translate(1 1.05)"/><path class="cls-36" d="M1920,919.29V913c-280.24-67-608.74-68.43-960-68.43S280.24,846,0,913v6.33c280.24-67,608.74-68.43,960-68.43S1639.76,852.31,1920,919.29Z" transform="translate(1 1.05)"/><path class="cls-36" d="M1920,737.85V731h0Z" transform="translate(1 1.05)"/><path class="cls-38" d="M1920,737.85V731h0Z" transform="translate(1 1.05)"/><path class="cls-36" d="M1920,893.3v0Z" transform="translate(1 1.05)"/><path class="cls-38" d="M1920,893.3v0Z" transform="translate(1 1.05)"/><path class="cls-36" d="M1920,913V902.83c-280.24-67-608.74-68.43-960-68.43S280.24,835.85,0,902.83V913c280.24-67,608.74-68.43,960-68.43S1639.76,846,1920,913Z" transform="translate(1 1.05)"/><path class="cls-38" d="M1920,913V902.83c-280.24-67-608.74-68.43-960-68.43S280.24,835.85,0,902.83V913c280.24-67,608.74-68.43,960-68.43S1639.76,846,1920,913Z" transform="translate(1 1.05)"/><path class="cls-36" d="M0,231c280.24-67.57,608.74-97,960-97s679.76,29.46,960,97V1H0Z" transform="translate(1 1.05)"/><path class="cls-37" d="M0,224.31c280.24-67.57,608.74-97,960-97s679.76,29.46,960,97V1H0Z" transform="translate(1 1.05)"/><path class="cls-36" d="M0,211.75c280.24-67.57,608.74-97,960-97s679.76,29.46,960,97V1H0Z" transform="translate(1 1.05)"/><path class="cls-38" d="M0,205.37c280.24-67.57,608.74-97,960-97s679.76,29.46,960,97V1H0Z" transform="translate(1 1.05)"/><path class="cls-39" d="M75.06,178.21C338.21,122.64,639.63,98.12,960,98.12c322.23,0,625.28,24.81,889.51,81.07-162-91.48-498.79-154.38-888.09-154.38C573.5,24.81,237.71,87.26,75.06,178.21Z" transform="translate(1 1.05)"/><path class="cls-40" d="M1214.24,775.39c-72-6.07-463.37-5.84-511.91.67-4.07.54-7,2-8.48,4.24-17.55,26.52-56.78,243-52.53,285,.53,5.27,4.38,8.07,9.16,8.61,60.64,6.87,578.12,6.76,624.51-.32,3-.45,5.1-1.59,5.76-3.46,8.6-24.26-29.34-240.27-48.85-284.59C1229.31,779.69,1222.83,776.11,1214.24,775.39Z" transform="translate(1 1.05)"/><path class="cls-41" d="M1174.7,801.62c-60.92-5-391.8-4.82-432.85.55-3.44.45-5.93,1.68-7.16,3.5-14.84,21.87-48,200.39-44.42,235.05.45,4.35,3.7,6.65,7.74,7.1,51.28,5.66,488.83,5.57,528.06-.27,2.49-.37,4.31-1.3,4.87-2.85,7.28-20-24.81-198.14-41.3-234.69C1187.45,805.17,1182,802.22,1174.7,801.62Z" transform="translate(1 1.05)"/><path d="M1164.87,810.56c-57.55-4.64-370.11-4.47-408.89.52-3.25.41-5.6,1.55-6.77,3.24-14,20.28-45.35,185.87-42,218,.42,4,3.49,6.17,7.31,6.58,48.44,5.26,461.77,5.18,498.83-.24,2.35-.35,4.07-1.21,4.6-2.65,6.87-18.55-23.44-183.78-39-217.68C1176.92,813.85,1171.74,811.12,1164.87,810.56Z" transform="translate(1 1.05)"/><polygon class="cls-42" points="1130.14 944.05 1136.6 987.75 1065 987.75 1065 991.05 1141.63 991.05 1134.5 944.05 1130.14 944.05"/><polygon class="cls-42" points="1052.43 826.85 1052.43 829.79 1113.7 829.79 1120.54 879.52 1125.08 879.52 1117.64 826.85 1052.43 826.85"/><polygon class="cls-42" points="799.22 944.05 795.51 944.05 789.42 991.09 862 991.09 862 987.79 793.72 987.79 799.22 944.05"/><polygon class="cls-42" points="802.98 872.52 807.52 872.52 814.35 829.59 881.02 829.59 881.02 827.05 810.41 827.05 802.98 872.52"/><path class="cls-43" d="M555.05,1028c-7.36-1.84-29.42,21.4-43.86,20.61-94.49-5.15-309.52-5.22-401.13,31.37h450C561.44,1060.37,562.31,1029.83,555.05,1028Z" transform="translate(1 1.05)"/><path class="cls-44" d="M511.77,1019.83c-330-9-361,8.16-421.39,57.35-1.32,1.08.09,2.54,2.47,2.54H493.36a4.69,4.69,0,0,0,1.8-.33C506,1074.86,622.61,1025.12,511.77,1019.83Z" transform="translate(1 1.05)"/><path class="cls-45" d="M327.5,885.51C244.66,873.77,116.71,879.9-1,888.27v130.36C28.53,1046,60,1069.74,74,1080H503.65c-18.24-24.68-69.5-117.11-94.41-160.85C399.53,902.1,369.8,891.51,327.5,885.51Z" transform="translate(1 1.05)"/><path class="cls-46" d="M283.48,911.1c-63.34-6.08-153.06-1.67-235.9,4.06C-72.5,923.47,76.72,1051.83,111,1080H447.4c-16.82-23.37-65.77-109.89-85.37-142.23C353.17,923.14,324,915,283.48,911.1Z" transform="translate(1 1.05)"/><path class="cls-47" d="M287.44,949.52c-54.18-5.29-130.92-1.45-201.72,3.53C-15,960.14,102.1,1056,133.19,1080h284c-13.3-19.16-46.52-80-62.67-107.33C347,960,322.12,952.9,287.44,949.52Z" transform="translate(1 1.05)"/><path class="cls-48" d="M403.36,928.44c-6.87-.43-18.28,3.28-19.56,7s2.55,9.61,4.71,13.19C414,991,442.32,1037.69,470.32,1080h24c-16.27-25.09-45-78-48.82-84.2C429.43,969.26,415.12,929.51,403.36,928.44Z" transform="translate(1 1.05)"/><path class="cls-48" d="M247,903.68c24,.73,85.47,9.69,93.51,7.06,39.35-12.85-10.94-20.28-30.54-22-27.06-2.57-60.77-2.67-88-3.62-42.7-1.49-138.09,2.47-162.92,4.64-14.93,1.3-44.2,2.83-60,4.19v19.85c32.11-2,67.75-6,98.32-7.66C151.12,903.22,198.47,902.19,247,903.68Z" transform="translate(1 1.05)"/><path class="cls-43" d="M1405.07,1048.63c-14.51.79-36.69-22.45-44.09-20.61s-6.43,32.35-5,52h452.4C1716.25,1043.41,1500.07,1043.48,1405.07,1048.63Z" transform="translate(1 1.05)"/><path class="cls-44" d="M1404.49,1019.83c-111.43,5.29,5.77,55,16.7,59.56a4.78,4.78,0,0,0,1.81.33h402.65c2.39,0,3.81-1.46,2.48-2.54C1767.46,1028,1736.29,1010.79,1404.49,1019.83Z" transform="translate(1 1.05)"/><path class="cls-45" d="M1920,888.27c-118.34-8.37-247-14.5-330.26-2.76-42.52,6-72.41,16.59-82.17,33.64-25,43.74-76.58,136.17-94.91,160.85h431.95c14.12-10.26,45.7-34,75.39-61.37Z" transform="translate(1 1.05)"/><path class="cls-46" d="M1871.16,915.16c-83.29-5.73-173.48-10.14-237.16-4.06-40.77,3.89-70.06,12-79,26.67-19.7,32.34-68.92,118.86-85.82,142.23h338.16C1841.87,1051.83,1991.88,923.47,1871.16,915.16Z" transform="translate(1 1.05)"/><path class="cls-47" d="M1832.82,953.05c-71.18-5-148.33-8.82-202.8-3.53-34.86,3.38-59.86,10.46-67.4,23.15-16.24,27.33-49.64,88.17-63,107.33h285.48C1816.35,1056,1934.05,960.14,1832.82,953.05Z" transform="translate(1 1.05)"/><path class="cls-48" d="M1533.14,935.42c-1.28-3.7-12.75-7.41-19.66-7-11.82,1.07-26.21,40.82-42.36,67.36-3.79,6.24-32.72,59.11-49.07,84.2h24.11c28.15-42.31,56.66-89,82.25-131.39C1530.58,945,1534.42,939.13,1533.14,935.42Z" transform="translate(1 1.05)"/><path class="cls-48" d="M1859.67,889.71c-25-2.17-120.86-6.13-163.79-4.64-27.41.95-61.3,1-88.5,3.62-19.71,1.77-70.26,9.2-30.71,22,8.09,2.63,69.9-6.33,94-7.06,48.78-1.49,96.38-.46,150.48,2.41,30.73,1.64,66.56,5.61,98.84,7.66V893.9C1904.1,892.54,1874.68,891,1859.67,889.71Z" transform="translate(1 1.05)"/><path class="cls-49" d="M1052.53,598.28a20.33,20.33,0,0,1,7,4.61c-5.37,4.91-12.14,5.83-19.15,6.32l-76.59,5.29c-35.12,2.43-70.52,4.85-105.41.14-3.94-.53-9.15-3.42-7.33-6.95.76-1.47,2.49-2.1,4.08-2.57,29.58-8.79,62.42-10.38,93.09-11.44,17.74-.61,35.55-.62,53.29-.08C1013.63,594,1038.43,592.27,1052.53,598.28Z" transform="translate(1 1.05)"/><rect x="1157.99" y="715" width="0.01" height="0.01" transform="translate(2316.99 1431.06) rotate(180)"/></g></g></svg>