<svg id="Layer_1" data-name="Layer 1" xmlns="http://www.w3.org/2000/svg" xmlns:xlink="http://www.w3.org/1999/xlink" viewBox="0 0 995 345"><defs><style>.cls-1{fill:#603813;}.cls-2{fill:#774111;}.cls-3{fill:url(#linear-gradient);}.cls-4,.cls-6{fill:#fff;}.cls-5{fill:#ff3a04;}.cls-6{opacity:0.1;}</style><linearGradient id="linear-gradient" x1="808.5" y1="637" x2="808.5" y2="408" gradientUnits="userSpaceOnUse"><stop offset="0" stop-color="#b47f44"/><stop offset="0.45" stop-color="#b27e43"/><stop offset="0.63" stop-color="#ab7840"/><stop offset="0.77" stop-color="#9e703a"/><stop offset="0.89" stop-color="#8d6332"/><stop offset="0.99" stop-color="#765327"/><stop offset="1" stop-color="#735126"/></linearGradient></defs><title>heart</title><path class="cls-1" d="M1163,548.66c0,63.15-25.68,114.34-57.38,114.34H448.7c-31.69,0-57.37-51.19-57.37-114.34V474.33C391.33,411.19,417,360,448.7,360h656.92c31.7,0,57.38,51.19,57.38,114.33Z" transform="translate(-168 -318)"/><path class="cls-2" d="M1136,558.47c0,57.73-27.87,104.53-62.25,104.53H361.12c-34.37,0-62.24-46.8-62.24-104.53V490.53c0-57.73,27.87-104.53,62.24-104.53h712.63c34.38,0,62.25,46.8,62.25,104.53Z" transform="translate(-168 -318)"/><path class="cls-1" d="M1081,550.59c0,47.73-18.71,86.41-41.79,86.41H560.79C537.71,637,519,598.32,519,550.59V494.42c0-47.73,18.71-86.42,41.79-86.42h478.42c23.08,0,41.79,38.69,41.79,86.42Z" transform="translate(-168 -318)"/><path class="cls-3" d="M1081,550.58c0,47.72-18.15,86.42-40.51,86.42h-464C554.14,637,536,598.3,536,550.58V494.41c0-47.72,18.14-86.41,40.52-86.41h464c22.36,0,40.51,38.69,40.51,86.41Z" transform="translate(-168 -318)"/><path class="cls-4" d="M1072,550.59c0,47.73-17.85,86.41-39.86,86.41H575.85c-22,0-39.85-38.68-39.85-86.41V494.41c0-47.72,17.85-86.41,39.85-86.41h456.29c22,0,39.86,38.69,39.86,86.41Z" transform="translate(-168 -318)"/><path class="cls-5" d="M534.12,412.85c0,18-3.8,35.86-10.4,53.37C485,569.68,351,659,351,659S168,536.91,168,412.85A95.78,95.78,0,0,1,202.25,339a88.82,88.82,0,0,1,57.27-21c50.57,0,91.5,42.51,91.5,94.85C351,360.51,392,318,442.6,318S534.12,360.51,534.12,412.85Z" transform="translate(-168 -318)"/><path class="cls-6" d="M534.12,412.85c0,18-3.8,35.86-10.4,53.37-34.14,37.07-81.47,60.11-133.69,60.11C291,526.33,209.84,443.84,202.25,339a88.82,88.82,0,0,1,57.27-21c50.57,0,91.5,42.51,91.5,94.85C351,360.51,392,318,442.6,318S534.12,360.51,534.12,412.85Z" transform="translate(-168 -318)"/><ellipse class="cls-4" cx="293.29" cy="68.74" rx="16.22" ry="16.82"/><ellipse class="cls-4" cx="319.25" cy="114.25" rx="9.73" ry="10.09"/></svg>