<svg id="Layer_1" data-name="Layer 1" xmlns="http://www.w3.org/2000/svg" viewBox="0 0 100 100"><defs><style>.cls-1,.cls-2,.cls-3{fill:#fff;}.cls-1{opacity:0.3;}.cls-2{opacity:0.7;}.cls-4{fill:#d80027;}.cls-4,.cls-5{fill-rule:evenodd;}.cls-5{fill:#59494b;}</style></defs><title>microphone</title><circle class="cls-1" cx="50" cy="50" r="50"/><circle class="cls-2" cx="50.32" cy="49.47" r="41.82"/><circle class="cls-3" cx="49.84" cy="50.05" r="34.33"/><path class="cls-4" d="M57.49,42.13h0v7.35c0,4.42-3.2,7.88-7.18,7.88S43,53.9,43,49.48V34.77c0-4.41,3.2-8,7.27-8s7.18,3.55,7.18,8Z"/><path class="cls-5" d="M55.41,70.34H52V61.08c.7-.09,1.56-.18,1.91-.26a25.06,25.06,0,0,0,4-2,34.79,34.79,0,0,0,2.77-3.2,13.54,13.54,0,0,0,1.12-2.69A5.62,5.62,0,0,0,62,51.47c.09-.86.26-2.25.26-3.11l-.09-6a8.74,8.74,0,0,0-.52-3l-1-2.68c-.17-.78-.52-.69-.52.09V48.36a20.28,20.28,0,0,1-.34,4.06,16.12,16.12,0,0,1-1.56,3.21A13.72,13.72,0,0,1,55.59,58a22.35,22.35,0,0,1-3.38,1.13c-.78.08-1.38.17-1.47.17h-.86a23.58,23.58,0,0,1-2.69-.35A23,23,0,0,1,44,57.27a17.64,17.64,0,0,1-2.34-2.68,11.8,11.8,0,0,1-1.12-3.46,24.33,24.33,0,0,1-.17-2.77V36.85c0-.78-.26-.87-.52-.09l-1,2.68a11.71,11.71,0,0,0-.51,3v6a27.3,27.3,0,0,0,.43,4.58,30.74,30.74,0,0,0,1.9,3.81A20.54,20.54,0,0,0,44,59.61a19.13,19.13,0,0,0,2.68,1.21c.87.17,1.47.26,1.47.26h.44v9.26H45.2a.71.71,0,0,0-.78.69v1.82a.77.77,0,0,0,.78.69H55.41a.75.75,0,0,0,.7-.69V71a.69.69,0,0,0-.7-.69Z"/></svg>