<svg id="Layer_1" data-name="Layer 1" xmlns="http://www.w3.org/2000/svg" xmlns:xlink="http://www.w3.org/1999/xlink" viewBox="0 0 947.05 338.85"><defs><style>.cls-1{fill:#603813;}.cls-2{fill:#774111;}.cls-3{fill:url(#linear-gradient);}.cls-4{fill:#fff;}.cls-5{fill:#d15700;}.cls-5,.cls-7{fill-rule:evenodd;}.cls-6{fill:#fd0;}.cls-7{fill:url(#radial-gradient);}.cls-8{fill:url(#radial-gradient-2);}.cls-9{fill:url(#linear-gradient-2);}.cls-10{fill:url(#linear-gradient-3);}.cls-11{fill:url(#linear-gradient-4);}</style><linearGradient id="linear-gradient" x1="787.5" y1="627" x2="787.5" y2="398" gradientUnits="userSpaceOnUse"><stop offset="0" stop-color="#b47f44"/><stop offset="0.45" stop-color="#b27e43"/><stop offset="0.63" stop-color="#ab7840"/><stop offset="0.77" stop-color="#9e703a"/><stop offset="0.89" stop-color="#8d6332"/><stop offset="0.99" stop-color="#765327"/><stop offset="1" stop-color="#735126"/></linearGradient><radialGradient id="radial-gradient" cx="371.74" cy="405.97" r="249.15" gradientUnits="userSpaceOnUse"><stop offset="0" stop-color="#d15700" stop-opacity="0"/><stop offset="1" stop-color="#d15700" stop-opacity="0.7"/></radialGradient><radialGradient id="radial-gradient-2" cx="370.04" cy="481.75" r="150.79" gradientUnits="userSpaceOnUse"><stop offset="0" stop-color="#ffff80" stop-opacity="0.6"/><stop offset="1" stop-color="#ff0" stop-opacity="0"/></radialGradient><linearGradient id="linear-gradient-2" x1="370.04" y1="471.62" x2="370.04" y2="324.41" gradientUnits="userSpaceOnUse"><stop offset="0.26" stop-color="#ff0" stop-opacity="0.4"/><stop offset="0.85" stop-color="#ff0" stop-opacity="0.4"/></linearGradient><linearGradient id="linear-gradient-3" x1="442.1" y1="495.29" x2="442.1" y2="426.11" xlink:href="#linear-gradient-2"/><linearGradient id="linear-gradient-4" x1="344.93" y1="463.17" x2="344.93" y2="361" xlink:href="#linear-gradient-2"/></defs><title>star</title><path class="cls-1" d="M1142,538.66c0,63.15-25.68,114.34-57.38,114.34H427.7c-31.69,0-57.37-51.19-57.37-114.34V464.33C370.33,401.19,396,350,427.7,350h656.92c31.7,0,57.38,51.19,57.38,114.33Z" transform="translate(-194.95 -314.15)"/><path class="cls-2" d="M1115,548.47c0,57.73-27.87,104.53-62.25,104.53H340.12c-34.37,0-62.24-46.8-62.24-104.53V480.53c0-57.73,27.87-104.53,62.24-104.53h712.63c34.38,0,62.25,46.8,62.25,104.53Z" transform="translate(-194.95 -314.15)"/><path class="cls-1" d="M1060,540.59c0,47.73-18.71,86.41-41.79,86.41H539.79C516.71,627,498,588.32,498,540.59V484.42c0-47.73,18.71-86.42,41.79-86.42h478.42c23.08,0,41.79,38.69,41.79,86.42Z" transform="translate(-194.95 -314.15)"/><path class="cls-3" d="M1060,540.58c0,47.72-18.15,86.42-40.51,86.42h-464C533.14,627,515,588.3,515,540.58V484.41c0-47.72,18.14-86.41,40.52-86.41h464c22.36,0,40.51,38.69,40.51,86.41Z" transform="translate(-194.95 -314.15)"/><path class="cls-4" d="M1051,540.59c0,47.73-17.85,86.41-39.86,86.41H554.85c-22,0-39.85-38.68-39.85-86.41V484.41c0-47.72,17.85-86.41,39.85-86.41h456.29c22,0,39.86,38.69,39.86,86.41Z" transform="translate(-194.95 -314.15)"/><path class="cls-5" d="M275.4,648.79c-5.71,0-10.36-1.65-13.82-4.92-6.73-6.35-11.69-19.22-2.51-69.93,3.2-17.69,7.14-34.44,9.41-43.65-7.76-5.95-21.82-17.06-35.5-29.49-31.93-29-42.76-47.45-36.2-61.6,10.11-21.85,70.65-27.57,110.68-28.94,38.79-96.12,56.68-96.11,62.65-96.11s23.85,0,62.59,95.94c41.07.51,102.84,5.47,111.2,30.22s-38.51,65.07-71.67,89.75c12.76,40.21,27.49,101.35,4.53,115.25a25.42,25.42,0,0,1-13.33,3.36h0c-26.08,0-75.32-32.15-93.51-44.68C349.61,617.16,298.42,648.79,275.4,648.79Z" transform="translate(-194.95 -314.15)"/><path class="cls-6" d="M370.11,325.36c17.09,0,55,95.9,55,95.9s100.54,0,108.19,22.64-74.22,81.92-74.22,81.92,32.39,97.49,11.9,109.9-100.85-45.28-100.85-45.28-87.17,58.18-100.83,45.28,11.89-109.9,11.89-109.9S197.52,464.28,207,443.9s108.19-22.64,108.19-22.64S353,325.36,370.11,325.36Z" transform="translate(-194.95 -314.15)"/><path class="cls-7" d="M370.11,325.36c17.09,0,55,95.9,55,95.9s100.54,0,108.19,22.64-74.22,81.92-74.22,81.92,32.39,97.49,11.9,109.9-100.85-45.28-100.85-45.28-87.17,58.18-100.83,45.28,11.89-109.9,11.89-109.9S197.52,464.28,207,443.9s108.19-22.64,108.19-22.64S353,325.36,370.11,325.36Z" transform="translate(-194.95 -314.15)"/><path class="cls-8" d="M275.21,628.47c-3.86-8.93,2.61-54.17,14.77-100.33a9.12,9.12,0,0,0-3.41-9.66c-39.06-28.74-72.35-62-71.25-71.07,4.28-7.8,51.08-15.92,100-17.05a9.08,9.08,0,0,0,8.26-5.76c15.27-38.61,37-82.31,46.5-89.58,9.56,7.27,31.25,51,46.51,89.58a9.1,9.1,0,0,0,8.47,5.76c49,0,96.44,7.86,99.57,16.46,2.49,8.8-31.32,42.94-70.94,71.62a9.11,9.11,0,0,0-3.3,10.25c15.33,46.18,22.85,93.49,15.79,99.26h0a6.35,6.35,0,0,1-2.79.41c-18.12,0-63.59-27.79-88-45.31a9.12,9.12,0,0,0-10.37-.18c-26.43,17.63-74.14,45.6-89.66,45.6Z" transform="translate(-194.95 -314.15)"/><path class="cls-9" d="M524.66,446.82c-3.13-8.6-50.58-16.44-99.57-16.46a9.1,9.1,0,0,1-8.47-5.76C401.36,386,379.67,342.29,370.11,335c-9.54,7.27-31.23,51-46.5,89.58a9.08,9.08,0,0,1-8.26,5.76c-49,1.13-95.75,9.25-100,17.05-.62,5.11,9.58,17.8,25.55,33,55.32-7.61,141.71,37.49,215,36.45C494.52,488.54,527.1,455.46,524.66,446.82Z" transform="translate(-194.95 -314.15)"/><path class="cls-10" d="M493,435.52a385.8,385.8,0,0,0-41.78-4.42c-19,24.36-42.26,54.38-59.91,77.78,17.11,3.81,34.19,6.74,50.76,7.69C456.92,492.73,476.54,461.71,493,435.52Z" transform="translate(-194.95 -314.15)"/><path class="cls-11" d="M280.62,481.9c17.18,2.72,35.78,7.51,55.05,12.7,18.63-22.79,49-58.83,73.57-87.92-5.78-13.48-12-26.82-17.86-38.32Z" transform="translate(-194.95 -314.15)"/><path class="cls-4" d="M384.56,368.36c-3.74,0-14.64-14-14.64-14-4.79,3.74-34.56,62.28-34.56,62.28C343.6,379,364.67,344,370,342.49S384.56,368.36,384.56,368.36Z" transform="translate(-194.95 -314.15)"/><path class="cls-4" d="M230.11,450.85c-2-9.93,59.16-15,66.64-11.21s-56.68,8.1-57.3,16.19,5,13.71,1.87,12.46S228.64,461.74,230.11,450.85Z" transform="translate(-194.95 -314.15)"/><path class="cls-4" d="M430.65,438.4c-2.5,2.49,38.61,6.84,44.21,3.73S457.43,433.43,430.65,438.4Z" transform="translate(-194.95 -314.15)"/></svg>