<svg xmlns="http://www.w3.org/2000/svg" viewBox="0 0 726 337.84"><defs><style>.cls-1{isolation:isolate;}.cls-2,.cls-7{fill:#fff;}.cls-2{opacity:0.8;}.cls-3{fill:#00b8e2;}.cls-4,.cls-9{fill:#230753;}.cls-4,.cls-8{opacity:0.1;mix-blend-mode:multiply;}.cls-5{fill:#ddd;}.cls-6{fill:#040028;}.cls-10{fill:#cfcfcf;}.cls-11{fill:#00add4;}.cls-12{fill:#b5052f;}.cls-13{fill:#ce0636;}.cls-14{font-size:48px;font-family:THSarabunNew-Bold, TH Sarabun New;font-weight:700;}</style></defs><title>คำแนะนำ</title><g class="cls-1"><g id="Layer_1" data-name="Layer 1"><path class="cls-2" d="M56.75,254.26l459.56.76h16.5c-.17.24,35.14,9.39,58.56,15.13l-24-58.43L568,103.46A14.65,14.65,0,0,0,553.22,89H56.75A14.65,14.65,0,0,0,42,103.46V239.8A14.65,14.65,0,0,0,56.75,254.26Z" transform="translate(-42 -89)"/><path class="cls-3" d="M722.58,283.86s11-10.5-2.13-25.54l1.07-9s14.22,8.18,14.28,24.88-11.5,19-11.5,19Z" transform="translate(-42 -89)"/><path class="cls-4" d="M721.52,249.34l-.19,1.58c4.17,3.41,11.27,11,11.32,22.75,0,11.31-5.24,16-8.66,17.84l.31,1.68s11.56-2.26,11.5-19S721.52,249.34,721.52,249.34Z" transform="translate(-42 -89)"/><path class="cls-5" d="M728.54,353.47c.15,11.39-8.65,19.44-19.66,18l-23.27-3.08c-11-1.45-20.06-11.87-20.21-23.26l-.78-59.34c-.17-11.39,8.64-19.44,19.64-18l23.28,3.08c11,1.46,20.05,11.87,20.2,23.26Z" transform="translate(-42 -89)"/><path class="cls-4" d="M715.94,273.91a24.36,24.36,0,0,1,7.36,16.76l.79,59.34c.15,11.39-8.65,19.44-19.66,18l-23.26-3.08a21.6,21.6,0,0,1-8.41-3,22.75,22.75,0,0,0,12.85,6.49l23.27,3.08c11,1.46,19.81-6.59,19.66-18l-.8-59.34A24.6,24.6,0,0,0,715.94,273.91Z" transform="translate(-42 -89)"/><path class="cls-5" d="M704.94,201.63c18.48,21.45,17.23,53.54-2.78,71.65s-51.24,15.41-69.72-6-17.25-53.53,2.77-71.64S686.45,180.18,704.94,201.63Z" transform="translate(-42 -89)"/><path class="cls-6" d="M702.42,212.88c17.27,20.05,17.06,49.18-.49,65.05s-45.77,12.48-63-7.56-17.06-49.18.49-65.05S685.15,192.83,702.42,212.88Z" transform="translate(-42 -89)"/><path class="cls-7" d="M656.79,283.83c17.83,9.75,40.26,9.8,57.52-11.6,16.42-20.35,13.08-45.07-6.76-68.11a63.25,63.25,0,0,0-20.46-15.82s42.68,41.81,17,74.48C680.72,292.54,656.79,283.83,656.79,283.83Z" transform="translate(-42 -89)"/><path class="cls-5" d="M723.06,255.22l-4.75-1.79c-2.85-1.12-4.14-6.34-2.87-11.66s4.6-8.72,7.45-7.6l4.43,1.68Z" transform="translate(-42 -89)"/><path class="cls-7" d="M727.32,235.85c2.85,1.12,4.14,6.34,2.87,11.66s-4.6,8.73-7.46,7.61-4.14-6.34-2.87-11.66S724.47,234.73,727.32,235.85Z" transform="translate(-42 -89)"/><path class="cls-7" d="M632.9,230.14s-.29-8.7,7.34-17.44c0,0,5.86-7,8.26-4.29,0,0,3.12,2.8-3.1,6.66C645.4,215.07,635.63,220.91,632.9,230.14Z" transform="translate(-42 -89)"/><path class="cls-7" d="M590.41,295.16c6-.56,12,4.28,13.46,10.8l1.28,6c1.42,6.52-2.32,12.25-8.35,12.8h0c-6,.56-12-4.29-13.45-10.81l-1.29-6c-1.41-6.52,2.33-12.26,8.35-12.8Z" transform="translate(-42 -89)"/><path class="cls-7" d="M585.08,310.71a4.31,4.31,0,0,1,4.72,3.09h0a3.36,3.36,0,0,1-2.32,4.52l-10.56,2.16a4.29,4.29,0,0,1-4.72-3.08h0a3.37,3.37,0,0,1,2.32-4.53Z" transform="translate(-42 -89)"/><path class="cls-7" d="M582.25,303.43a4.69,4.69,0,0,1,4.56,3.91h0a3.4,3.4,0,0,1-3.55,3.85l-12.15-.08a4.7,4.7,0,0,1-4.55-3.9h0a3.38,3.38,0,0,1,3.55-3.85Z" transform="translate(-42 -89)"/><path class="cls-7" d="M586.16,297.21a4.77,4.77,0,0,1,3.2,5.12h0c-.44,2-2.57,3-4.77,2.15l-12-4.43a4.76,4.76,0,0,1-3.21-5.12h0c.44-2,2.57-3,4.78-2.16Z" transform="translate(-42 -89)"/><path class="cls-7" d="M595.74,298.15a3.86,3.86,0,0,1,.12,5.33h0a3.55,3.55,0,0,1-5.12-.38l-7.89-8.58a3.87,3.87,0,0,1-.13-5.33h0a3.55,3.55,0,0,1,5.13.39Z" transform="translate(-42 -89)"/><path class="cls-7" d="M590.2,314.58c1.43-1.18,3.73-.72,5.14,1h0c1.41,1.75,1.39,4.12,0,5.31l-7.76,6.41c-1.43,1.19-3.73.72-5.13-1h0c-1.41-1.76-1.4-4.13,0-5.3Z" transform="translate(-42 -89)"/><g class="cls-8"><path class="cls-9" d="M581.74,303.43l-9.22-5c-1.67-1-2.74-1.91-3.13-3.35a4.77,4.77,0,0,0,3.22,5l9.13,3.38Z" transform="translate(-42 -89)"/><path class="cls-9" d="M584.88,296.74l-2.12-3.85c-.5-.78-1.2-2.1-.64-2.88-1.71,3.13,2,5.77,2.76,6.73Z" transform="translate(-42 -89)"/><path class="cls-9" d="M596.71,323.1a11.07,11.07,0,0,1-5.14-.81l-4.12,3.41c-1.43,1.19-3.73.72-5.14-1a4.71,4.71,0,0,1-.89-1.81,4.39,4.39,0,0,0,1,3.44c1.4,1.74,3.7,2.21,5.13,1l4.12-3.41a10.94,10.94,0,0,0,5.14.81c5.67-.52,9.32-5.62,8.55-11.66C605.33,318.37,601.86,322.62,596.71,323.1Z" transform="translate(-42 -89)"/><path class="cls-9" d="M582.76,311.18h0L571,309.47c-2.36-.54-3.89-1.46-4.42-3.34a4.27,4.27,0,0,0,0,1.08,4.7,4.7,0,0,0,4.55,3.9Z" transform="translate(-42 -89)"/><path class="cls-9" d="M582.34,319.38l2.74-.56h0l-8.25,0c-2.17,0-4.06-1-4.72-3.09,0-.07,0-.14-.05-.21a4.08,4.08,0,0,0,.14,1.85,4.29,4.29,0,0,0,4.72,3.08Z" transform="translate(-42 -89)"/></g><path class="cls-7" d="M610.53,319.82s36.4,1.78,38.53-12.05L631.37,286s-7.91,9.79-26,11.15c0,0,1.61.69,4,13.94Z" transform="translate(-42 -89)"/><path class="cls-4" d="M609.9,315.05l.63,4.77s36.4,1.78,38.53-12.05l-2.34-2.88C642.2,315.33,615.66,315.21,609.9,315.05Z" transform="translate(-42 -89)"/><path class="cls-7" d="M605.65,297.08l-.23,0s.12.05.34.39C605.72,297.36,605.68,297.21,605.65,297.08Z" transform="translate(-42 -89)"/><path class="cls-3" d="M602.5,296c2.14-.15,4.29,1.87,4.8,4.5l3.31,16.93c.51,2.63-.81,4.87-3,5h0c-2.14.15-4.28-1.87-4.8-4.5L599.56,301c-.51-2.62.81-4.86,2.94-5Z" transform="translate(-42 -89)"/><path class="cls-4" d="M609.48,321.24c-2.14.15-4.28-1.87-4.8-4.5l-3.3-16.94a4.7,4.7,0,0,1,.72-3.75c-1.89.4-3,2.49-2.54,4.93l3.3,16.94c.52,2.63,2.66,4.65,4.8,4.5a3,3,0,0,0,2.23-1.26A2.7,2.7,0,0,1,609.48,321.24Z" transform="translate(-42 -89)"/><path class="cls-7" d="M638.46,274.23s1.5-3.66,7.35-5.11l27.38-6.66s6.51-1.89,14.49,2.58,22.67,11.65,22.67,11.65a8.75,8.75,0,0,1,4.45,7.48c.19,5.4-.65,49.61-.65,49.61s-1.09,6.73,2.34,10.56,0,6.06,0,6.06-2.88,1.25-.39,5,4.3,30-10.88,25.74-59.4-14.72-59.4-14.72-8.26-1.81-7.37-11.44,5.08-6.18.35-13.45c0,0-2.7-3.8-.73-6s-.36-3.3-.36-3.3-3-1-3-4-5.64-4.63-.15-9.58Z" transform="translate(-42 -89)"/><g class="cls-8"><path class="cls-9" d="M637.69,332.22a2.12,2.12,0,0,1,.3.18c-1-2.4-4.78-4.2,0-8.55L642,279.44s1.51-3.66,7.35-5.11,27.38-6.66,27.38-6.66,6.5-1.89,14.49,2.57,22.67,11.65,22.67,11.65a5.43,5.43,0,0,1,.71.44,8.66,8.66,0,0,0-4.21-5.64s-14.69-7.18-22.67-11.65-14.49-2.58-14.49-2.58l-27.38,6.66c-5.85,1.45-7.35,5.11-7.35,5.11l-3.92,44.41c-5.49,4.95.2,6.6.15,9.58S637.69,332.22,637.69,332.22Z" transform="translate(-42 -89)"/><path class="cls-9" d="M641.93,360.22c.9-9.64,5.08-6.19.35-13.45,0,0-2.7-3.81-.73-6s-.36-3.3-.36-3.3a5,5,0,0,1-2.7-2.51,4.13,4.13,0,0,1-.44.6c-2,2.24.73,6,.73,6,4.73,7.27.55,3.82-.35,13.45-.48,5.2,1.71,8.11,3.82,9.69A12.91,12.91,0,0,1,641.93,360.22Z" transform="translate(-42 -89)"/></g><path class="cls-10" d="M660.84,276.83l8.41,8.12a6.62,6.62,0,0,1,1.86,4.13L674.69,324c.21,3-1.73,4.38-4.39,5.08L644,334a5.47,5.47,0,0,1-4-2.46l-5.37-5.76" transform="translate(-42 -89)"/><path class="cls-10" d="M684.74,312.16c2.19.47,3.8,3.4,3.6,6.53S686.19,324,684,323.5s-3.79-3.4-3.59-6.53S682.55,311.69,684.74,312.16Z" transform="translate(-42 -89)"/><path class="cls-10" d="M681,289.73c1.83.39,3.17,2.84,3,5.44s-1.79,4.41-3.62,4-3.17-2.83-3-5.43S679.17,289.34,681,289.73Z" transform="translate(-42 -89)"/><path class="cls-4" d="M681.48,317.81c.2-3.13,2.15-5.29,4.34-4.82a3.39,3.39,0,0,1,.75.28,3.64,3.64,0,0,0-1.83-1.11c-2.19-.47-4.13,1.69-4.34,4.81-.18,2.76,1.05,5.35,2.85,6.26A7.3,7.3,0,0,1,681.48,317.81Z" transform="translate(-42 -89)"/><path class="cls-4" d="M678.46,294.58c.17-2.61,1.79-4.4,3.62-4a2.27,2.27,0,0,1,.55.2,3.06,3.06,0,0,0-1.63-1c-1.83-.39-3.44,1.41-3.62,4-.15,2.33.91,4.52,2.44,5.23A6.19,6.19,0,0,1,678.46,294.58Z" transform="translate(-42 -89)"/><path class="cls-5" d="M665.66,317.46c.19,2.69-1.53,4-3.7,4.58l-24.34,5.19c-2.23-.16-4.19-2.47-4.37-5.16l-2.54-36.39c-.18-2.69,1.18-4.24,3.7-4.58l24.34-5.19c2.24.16,4.19,2.47,4.38,5.16Z" transform="translate(-42 -89)"/><path class="cls-5" d="M683.17,315.07a3.21,3.21,0,0,1,2.3,3.36h0a2.24,2.24,0,0,1-2.8,2.09l-11.28-2.76a3.21,3.21,0,0,1-2.3-3.36h0a2.25,2.25,0,0,1,2.81-2.1Z" transform="translate(-42 -89)"/><path class="cls-4" d="M683.17,315.07,671.9,312.3a2.25,2.25,0,0,0-2.81,2.1,3,3,0,0,0,.1,1.12,2.22,2.22,0,0,1,2.75-1.75l11.27,2.77a3.12,3.12,0,0,1,2.19,2.23,1.86,1.86,0,0,0,.07-.34A3.21,3.21,0,0,0,683.17,315.07Z" transform="translate(-42 -89)"/><path class="cls-6" d="M657.4,295.17a2.33,2.33,0,0,1-2.66,2.46l-15,3a3.27,3.27,0,0,1-3.08-2.81l-.79-10c-.11-1.46.72-2.15,2.67-2.46l15-3a3.27,3.27,0,0,1,3.07,2.82Z" transform="translate(-42 -89)"/><path class="cls-7" d="M679,379.94s-3-1.32-2.63-10-3.57-37,35.4-27.8l-8,48.69s-1.91,4.14-5.75,2.79S679,379.94,679,379.94Z" transform="translate(-42 -89)"/><path class="cls-3" d="M686,366.34l2.51-10.83c.75-3.19-1.49-6.87-5-8.22a7.52,7.52,0,0,0-2.25-.46c-5.35,6.54-4.84,16.36-4.9,21.72a8,8,0,0,0,2,1.12C681.85,371,685.29,369.53,686,366.34Z" transform="translate(-42 -89)"/><path class="cls-4" d="M683.68,382.89s-3.06-1.33-2.63-10c.41-8.29-2.88-36.44,30.72-30.75h0c-39-9.24-35,19.12-35.4,27.8s2.63,10,2.63,10-.06.6,4.68,2.95Z" transform="translate(-42 -89)"/><path class="cls-3" d="M678.46,426.46s7,.39,10.46-15.56c0,0,2.57-11.73,9.76-15.89,0,0,3.7-1.12.74-5s-20.33-11.93-20.33-11.93-1.67-1.2-3.53,2.36-5.06,8.84-5.37,18.64c0,0-2.63-1.2-13-7.39s-9.8,4.39-9.8,4.39Z" transform="translate(-42 -89)"/><path class="cls-3" d="M678.46,426.46s7,.39,10.46-15.56c0,0,2.57-11.73,9.76-15.89,0,0,3.7-1.12.74-5s-20.33-11.93-20.33-11.93-1.67-1.2-3.53,2.36-5.06,8.84-5.37,18.64c0,0-2.63-1.2-13-7.39s-9.8,4.39-9.8,4.39Z" transform="translate(-42 -89)"/><g class="cls-8"><path class="cls-9" d="M651.36,397.6s-.4-7.09,5.17-6.26c-9.77-5.41-9.18,4.74-9.18,4.74l31.11,30.38a4.72,4.72,0,0,0,1.94-.5Z" transform="translate(-42 -89)"/><path class="cls-9" d="M674.21,400.6c.31-9.79,3.52-15.08,5.37-18.64.9-1.73,1.76-2.33,2.4-2.49-1.75-.86-2.89-1.39-2.89-1.39s-1.67-1.2-3.53,2.36-4.92,8.63-5.34,18C673.24,400.16,674.21,400.6,674.21,400.6Z" transform="translate(-42 -89)"/></g><path class="cls-5" d="M675.48,415.19c3.87,3.95,5.5,8.77,3.64,10.78h0c-1.86,2-6.51.43-10.38-3.51l-17-17.31c-3.87-3.95-5.49-8.77-3.63-10.78h0c1.86-2,6.5-.43,10.38,3.51Z" transform="translate(-42 -89)"/><path class="cls-4" d="M648.48,398.14c1.86-2,6.5-.44,10.38,3.51l17,17.31a17,17,0,0,1,3.83,5.81c.64-2.37-1-6.27-4.24-9.58l-17-17.31c-3.88-3.94-8.52-5.51-10.38-3.51-1,1.06-1,2.9-.21,5A3,3,0,0,1,648.48,398.14Z" transform="translate(-42 -89)"/><path class="cls-7" d="M736.43,348.45c-4.45-5.25-4.4-12.77.12-16.77l4.14-3.67c4.53-4,11.81-3,16.27,2.25h0c4.46,5.26,4.4,12.77-.13,16.78l-4.13,3.66c-4.53,4-11.81,3-16.27-2.25Z" transform="translate(-42 -89)"/><path class="cls-7" d="M753,346.8a4.13,4.13,0,0,1-.53-5.59h0c1.32-1.48,3.7-1.38,5.33.23l8.81,8.72a4.12,4.12,0,0,1,.55,5.58h0c-1.33,1.49-3.71,1.38-5.34-.22Z" transform="translate(-42 -89)"/><path class="cls-7" d="M748.78,352.41c-1.48-2-1.36-4.62.25-5.76h0c1.61-1.15,4.11-.42,5.58,1.62l8,11.09c1.48,2,1.36,4.62-.25,5.77h0c-1.61,1.15-4.1.42-5.58-1.61Z" transform="translate(-42 -89)"/><path class="cls-7" d="M741,351.47c-.78-2.36.19-4.62,2.16-5.06h0c2-.45,4.19,1.1,5,3.45l4.24,12.76c.78,2.36-.19,4.61-2.16,5.06h0c-2,.45-4.2-1.1-5-3.45Z" transform="translate(-42 -89)"/><path class="cls-7" d="M735.4,342.35a3.2,3.2,0,0,1,4.39-2.35h0a4.53,4.53,0,0,1,3.08,4.83l-2,10.77a3.19,3.19,0,0,1-4.37,2.35h0a4.55,4.55,0,0,1-3.09-4.84Z" transform="translate(-42 -89)"/><path class="cls-7" d="M752.85,340.52a4.46,4.46,0,0,1-2.55-5.11h0a3.19,3.19,0,0,1,4.46-2.18l10.53,4.39a4.48,4.48,0,0,1,2.55,5.11h0a3.21,3.21,0,0,1-4.47,2.18Z" transform="translate(-42 -89)"/><g class="cls-8"><path class="cls-9" d="M737.92,355.77a4.53,4.53,0,0,1-3.09-4.83l1.29-7.16a12.43,12.43,0,0,1-.59-11c-2.89,3.5-3.16,8.74-.78,13.18l-1.29,7.15a4.55,4.55,0,0,0,3.09,4.84,3.19,3.19,0,0,0,4.37-2.35l0-.14A3.5,3.5,0,0,1,737.92,355.77Z" transform="translate(-42 -89)"/><path class="cls-9" d="M751.56,365.5c-2,.45-3.1-.35-5-3.45l-5.15-9.23h0c-.07.36.15-.29,0,0l3.79,11.41c.77,2.35,3,3.9,5,3.45a3.14,3.14,0,0,0,2.34-2.62A2.68,2.68,0,0,1,751.56,365.5Z" transform="translate(-42 -89)"/><path class="cls-9" d="M763.41,354.22l-8.36-5.33,7,6.86c2.23,1.74,4.18,1,5.09,0a3.35,3.35,0,0,0,.77-1.66A4.26,4.26,0,0,1,763.41,354.22Z" transform="translate(-42 -89)"/><path class="cls-9" d="M764,343.77l-4.16-.35,3.9,1.61a3.21,3.21,0,0,0,4.15-2.3c0-.09,0-.18,0-.27A4.57,4.57,0,0,1,764,343.77Z" transform="translate(-42 -89)"/><path class="cls-9" d="M758.14,361.34l-9-8.46h0l7.66,10.64c1.48,2,4,2.76,5.58,1.61a3.1,3.1,0,0,0,1.22-2.1C762,364,760.84,363.83,758.14,361.34Z" transform="translate(-42 -89)"/></g><path class="cls-7" d="M730,330.22,744.67,321s-.35-8.07-17-28.68l-9.18-10.42c-5.41-6.15-14-7.21-19.2-2.39h0c-5.19,4.84-5,13.74.41,19.9C699.7,299.41,710,314.1,730,330.22Z" transform="translate(-42 -89)"/><path class="cls-4" d="M705.05,297c-5.41-6.15-5.6-15.06-.41-19.89.17-.16.35-.29.53-.44a11.24,11.24,0,0,0-5.88,2.85c-5.19,4.84-5,13.74.41,19.9,0,0,10.33,14.69,30.31,30.81l4.69-3C715.15,311.36,705.05,297,705.05,297Z" transform="translate(-42 -89)"/><path class="cls-3" d="M723.11,287.14a5.86,5.86,0,0,0-3.93,1.12,6.31,6.31,0,0,0-1.06,8.86l7.25,9.78a6.32,6.32,0,0,0,8.79,1.56,5.88,5.88,0,0,0,2.36-4.2c-2.27-3.4-5.13-7.34-8.85-11.94Z" transform="translate(-42 -89)"/><path class="cls-3" d="M750.38,322.57a4.21,4.21,0,0,1-1.36,5.88l-13.16,8a4.45,4.45,0,0,1-6-1.39h0a4.21,4.21,0,0,1,1.37-5.89l13.15-8a4.44,4.44,0,0,1,6,1.41Z" transform="translate(-42 -89)"/><path class="cls-4" d="M732,335.77a4.19,4.19,0,0,1,1.36-5.88l13.15-8a4.46,4.46,0,0,1,2.59-.61,4.44,4.44,0,0,0-4.78-.14l-13.15,8a4.21,4.21,0,0,0-1.37,5.89,4.42,4.42,0,0,0,3.43,2A4.31,4.31,0,0,1,732,335.77Z" transform="translate(-42 -89)"/><path class="cls-7" d="M613.84,377.49s1.88-35.19,32.71-36.54c11.11-.49,16.25.63,16.25.63l5.62,27.11s-22.42,8.36-31.25,23c0,0-2.22,3.07-5.12,1.92Z" transform="translate(-42 -89)"/><path class="cls-3" d="M621.92,368l5.5-9.18c1.54-2.56.51-6.31-2.24-8.64-5.83,6-8.68,13.82-10.06,19.54C617.8,370.78,620.6,370.19,621.92,368Z" transform="translate(-42 -89)"/><path class="cls-4" d="M647.16,344.05c7.77-1.17,13.1-2.75,15.64-2.47h0s-5.14-1.12-16.25-.63c-30.83,1.35-32.71,36.54-32.71,36.54l3.38,3C617.85,374.48,622,347.83,647.16,344.05Z" transform="translate(-42 -89)"/><path class="cls-3" d="M611.36,424.74s7,.39,10.47-15.56c0,0,3.1-8.15,10.29-12.32,0,0,3-1.95,0-5.83s-17.48-14.59-17.48-14.59-1.67-1.2-3.53,2.37-7.72,8.75-8,18.54c0,0-2.64-1.19-13.05-7.39s-9.8,4.4-9.8,4.4Z" transform="translate(-42 -89)"/><path class="cls-4" d="M583.05,396.21s-.61-10.58,9.8-4.39,11.64,7.35,11.64,7.35c.31-9.78,7.6-14.95,9.45-18.51,1.2-2.31,2.32-2.61,3-2.54-1.36-1-2.24-1.68-2.24-1.68s-1.67-1.2-3.53,2.37-7.72,8.75-8,18.54c0,0-2.64-1.19-13.05-7.39s-9.8,4.4-9.8,4.4l31.11,30.38a3.28,3.28,0,0,0,.8-.11Z" transform="translate(-42 -89)"/><path class="cls-5" d="M608.39,413.47c3.87,3.94,5.5,8.76,3.65,10.77h0c-1.87,2-6.53.44-10.4-3.51l-17-17.31c-3.88-3.95-5.51-8.77-3.65-10.77h0c1.87-2,6.51-.44,10.38,3.5Z" transform="translate(-42 -89)"/><path class="cls-4" d="M581.75,396.49c1.86-2,6.51-.43,10.38,3.5l17,17.32a17.57,17.57,0,0,1,3.58,5.19c.28-2.38-1.34-6-4.35-9l-17-17.32c-3.87-3.94-8.51-5.51-10.38-3.5-1.07,1.15-1,3.26.06,5.58A3,3,0,0,1,581.75,396.49Z" transform="translate(-42 -89)"/><path class="cls-5" d="M679.79,291.82a2.69,2.69,0,0,1,1.92,2.81h0a1.87,1.87,0,0,1-2.34,1.74l-9.4-2.31a2.66,2.66,0,0,1-1.91-2.8h0a1.87,1.87,0,0,1,2.34-1.74Z" transform="translate(-42 -89)"/><path class="cls-4" d="M668.64,292.67a1.86,1.86,0,0,1,2.34-1.75l9.39,2.31a2.41,2.41,0,0,1,1.29.88,2.65,2.65,0,0,0-1.87-2.29l-9.39-2.3a1.87,1.87,0,0,0-2.34,1.74,2.68,2.68,0,0,0,.62,1.93A2.28,2.28,0,0,1,668.64,292.67Z" transform="translate(-42 -89)"/><path class="cls-11" d="M659.84,303a3.73,3.73,0,0,1,.16,5.14,3.46,3.46,0,0,1-5-.57l-.92-1.16,5.11-4.17Z" transform="translate(-42 -89)"/><path class="cls-3" d="M659.24,302.26a3.48,3.48,0,0,1-.14,4.81,3.22,3.22,0,0,1-4.65-.23,3.47,3.47,0,0,1,.14-4.8A3.23,3.23,0,0,1,659.24,302.26Z" transform="translate(-42 -89)"/><path class="cls-12" d="M657.84,316.54a2.93,2.93,0,0,1,.13,4,2.71,2.71,0,0,1-3.87-.44l-.71-.91,4-3.26Z" transform="translate(-42 -89)"/><path class="cls-13" d="M657.37,316a2.72,2.72,0,0,1-.1,3.76,2.53,2.53,0,0,1-3.64-.18,2.71,2.71,0,0,1,.12-3.75A2.51,2.51,0,0,1,657.37,316Z" transform="translate(-42 -89)"/><path class="cls-12" d="M646.67,318.69a2.93,2.93,0,0,1,.13,4,2.71,2.71,0,0,1-3.87-.44l-.71-.91,4-3.25Z" transform="translate(-42 -89)"/><path class="cls-13" d="M646.2,318.11a2.71,2.71,0,0,1-.11,3.75,2.52,2.52,0,0,1-3.63-.17,2.72,2.72,0,0,1,.11-3.75A2.51,2.51,0,0,1,646.2,318.11Z" transform="translate(-42 -89)"/><path class="cls-11" d="M642.84,306.51a3.75,3.75,0,0,1,.16,5.14,3.48,3.48,0,0,1-5-.56l-.91-1.17,5.11-4.17Z" transform="translate(-42 -89)"/><path class="cls-3" d="M642.24,305.75a3.49,3.49,0,0,1-.14,4.81,3.23,3.23,0,0,1-4.66-.22,3.47,3.47,0,0,1,.15-4.8A3.22,3.22,0,0,1,642.24,305.75Z" transform="translate(-42 -89)"/><path class="cls-11" d="M651,304.83a3.75,3.75,0,0,1,.17,5.14,3.47,3.47,0,0,1-5-.57l-.91-1.16,5.1-4.17Z" transform="translate(-42 -89)"/><path class="cls-3" d="M650.4,304.07a3.47,3.47,0,0,1-.14,4.81,3.22,3.22,0,0,1-4.64-.22,3.46,3.46,0,0,1,.14-4.8A3.21,3.21,0,0,1,650.4,304.07Z" transform="translate(-42 -89)"/><path class="cls-7" d="M652.9,207.86a2.5,2.5,0,1,0,.28-3.77A2.68,2.68,0,0,0,652.9,207.86Z" transform="translate(-42 -89)"/><text class="cls-14" transform="translate(14.75 71.99)">คลิกที่รูปเพื่อเลือกหมวดในการเล่นเกม<tspan x="163.24" y="57.6">นะครับน้องๆ</tspan></text></g></g></svg>