<svg id="Layer_1" data-name="Layer 1" xmlns="http://www.w3.org/2000/svg" viewBox="0 0 1143.02 412.67"><defs><style>.cls-1{opacity:0.95;}.cls-11,.cls-2{fill:#fff;}.cls-3{fill:none;stroke:#fff200;stroke-miterlimit:10;stroke-width:2px;stroke-dasharray:10.79 10.79;}.cls-4{font-size:50px;font-family:CenturyGothic-Bold, Century Gothic;font-weight:700;}.cls-10,.cls-11,.cls-5,.cls-6,.cls-7,.cls-8,.cls-9{fill-rule:evenodd;}.cls-6{fill:#d7e6d5;}.cls-7{fill:#97a195;}.cls-8{fill:#5d635c;}.cls-9{fill:#626960;}.cls-10{fill:#de4638;}</style></defs><title>startwith &amp;amp; previou</title><g class="cls-1"><rect class="cls-2" x="92.02" y="111.67" width="1050" height="136" rx="12" ry="12"/><rect class="cls-3" x="92.02" y="111.67" width="1050" height="136" rx="12" ry="12"/></g><g class="cls-1"><rect class="cls-2" x="92.02" y="275.67" width="1050" height="136" rx="12" ry="12"/><rect class="cls-3" x="92.02" y="275.67" width="1050" height="136" rx="12" ry="12"/></g><text class="cls-4" transform="translate(129.13 196.56)">Start with : </text><text class="cls-4" transform="translate(136.13 359.56)">Previous :</text><path class="cls-5" d="M175.63,309.44c-.16,3.82-2,6.88-4.15,9.6.52,1.43,1.35,2.64,1.28,3.79a11.3,11.3,0,0,1-1.42,4.65c-1.28,2.27-2.9,4.36-4.4,6.51-.63.91-1.31,1.79-2.11,2.86,12.14,1.78,21.09,8.09,27.78,17.58l6.07.54c2-1.73,4-3.63,6.19-5.35s4.25-3,6.37-4.56a4.49,4.49,0,0,0,1.38-1.29c1.15-2.14,2.2-4.34,3.3-6.51a20.15,20.15,0,0,1,5.82-6.6,2.16,2.16,0,0,1,3.08.19c1.35,1.12,2.21,2.41,1.81,4.27-.16.76-.24,1.53-.38,2.43,3-1,3.15-1.15,4.32-3.43a22.78,22.78,0,0,1,1.92-3.42,5.76,5.76,0,0,1,6-2.52,7.64,7.64,0,0,1,5.76,4.89,3.8,3.8,0,0,1,0,2.38,11.06,11.06,0,0,1-1.56,3.06c-2.87,4-5.83,7.92-8.74,11.88a8.23,8.23,0,0,1-4.94,3c-1.26.31-2.57.45-3.64.63-3.31,3.75-6.39,7.37-9.6,10.86-2.82,3.07-6.47,5-10.17,6.75a4.76,4.76,0,0,1-2.4.35c-2.88-.27-5.8,1.1-8.69-.25-.45-.21-1.24.21-1.85.43a8.5,8.5,0,0,1-8.74-1.29,11,11,0,0,0-5.29-2.4A24.87,24.87,0,0,1,163.51,360c-.84-1-1.75-1.83-2.93-3.05-1.85,5.5-3.69,10.52-5.22,15.63a51,51,0,0,1-7.12,14.71c.26,1,.49,2.1.83,3.16A45.15,45.15,0,0,1,151.33,403c0,1-.2,2.13.23,2.91a5.56,5.56,0,0,1,.06,5.59,2.94,2.94,0,0,0,0,1.9c1.46,5,.54,10.19-1.48,16.24a14,14,0,0,0-.5,1.9c-1,6.36-4.37,11.59-8.17,16.59-.49.65-1,1.26-1.55,1.91a3.47,3.47,0,0,0-.25.81c3.66,3.75,5.86,8.64,8.24,13.44,1,2,2,4.06,1,6.06-1.16,2.46-2.42,5.1-5.17,6.36a23,23,0,0,1-4.11,1.57c-3.35.82-6.72,1.5-10.1,2.17a4.69,4.69,0,0,1-2.41,0c-4.93-1.77-10.08-3.29-13.34-7.81-2.85-4-6-7.69-7.9-12.38a5.6,5.6,0,0,1,.45-5.49,55.29,55.29,0,0,1,3.54-4.72q2.57-3.3,5.15-6.58a2.63,2.63,0,0,0,.27-.41c.67-1.36,2.77-1,3.16-2.81a21.76,21.76,0,0,1,1.44-4.18,29.41,29.41,0,0,1,5.15-8.31c.77-.85,1.48-1.76,2.17-2.58a22.36,22.36,0,0,0-2.59-10.38c-3.43-6.95-3.4-7.48-4.61-18l-6.86-1.64a39.27,39.27,0,0,0-2.26,4.79,34.07,34.07,0,0,1-6.83,11.82c-2.17,2.52-4,5.19-4.3,8.66a5.8,5.8,0,0,1-1.07,2.71C95.05,428.28,92,434,85.89,437c-2.93,1.46-5.69,3.25-8.51,4.92a8.74,8.74,0,0,0-1.17,1c.62,1.52,1.16,3.05,1.85,4.51,1.51,3.17,1.76,6.62,2.27,10a3,3,0,0,1-.32,1.9c-2.59,4-5.2,8.09-10.06,9.67a47.47,47.47,0,0,1-6.69,1.46,3.89,3.89,0,0,1-2.38-.37c-3.25-1.89-6.69-3.55-8.85-6.88-1.51-2.33-3.48-4.42-4.7-6.88-3.21-6.48-3.45-12.92,1.23-19,1.41-1.82,2.77-3.67,4.17-5.49A16.6,16.6,0,0,1,60,426.28a12.26,12.26,0,0,0,4.85-3.15,26.05,26.05,0,0,1,10.61-6.9c2.28-.83,4-1.93,4.77-4.48.39-1.31,1.64-2.36,2.8-3.93.1-4.73.07-10,.37-15.19a62.11,62.11,0,0,1,1.35-8.75,9.17,9.17,0,0,0-1-7.09c-3-4.8-3.35-10.18-3.29-15.64a122.47,122.47,0,0,1,2.25-22.43,6.37,6.37,0,0,0-.32-1.78c-5.43,3.61-10.57,7.61-17.48,6.58-.06.26-.27.65-.17.75a13.1,13.1,0,0,1,3.73,8.33c.26,3.27.73,6.51,1.16,10.18,1.85,2.13,4.12,4.5,6.1,7.08,2.36,3.08,2,6.78,1.76,10.36a2.15,2.15,0,0,1-1.23,1.37A5.26,5.26,0,0,1,70.21,380c-.21-.24-.36-.55-.59-.78s-.3-.06-.66-.12a2.85,2.85,0,0,0,1,3.32c.78.59,1.71,1,2.53,1.51,2.57,1.68,2.79,4.52.52,6.6a7,7,0,0,1-1.62,1.08,17.8,17.8,0,0,1-6.62,1.74,7,7,0,0,1-5-1.56c-4.92-4-8.21-8.92-8.47-15.45-.11-2.78-.11-5.57.05-8.35a11.28,11.28,0,0,0-.65-4.77,86.12,86.12,0,0,1-2.84-9.4,13.6,13.6,0,0,1-.38-5.37c.93-5.16,2.05-10.3,5.2-14.7,1.55-2.16,3.09-4.22,5.79-5.11a8.92,8.92,0,0,0,2.86-1.86,36.79,36.79,0,0,1,21.4-8.93c1.29-.13,2.6-.07,4.07-.11-.25-3.41-.31-6.18-.7-8.91a14,14,0,0,1,5-13.17,5.27,5.27,0,0,0,2.06-4.09c-.23-.31-.37-.66-.62-.82-3.78-2.35-4.56-5.68-3.45-9.8a43,43,0,0,1,4.08-10.52c1.89-3.25,4.45-5.17,8.47-4.46a35.22,35.22,0,0,0,4.33.28c1.8-1.9,3.42-3.73,5.15-5.45a21.51,21.51,0,0,1,11.65-5.92,71.72,71.72,0,0,1,18.14-.84,38.81,38.81,0,0,1,23.5,10.18c4.54,4.11,8,9.09,8.89,15.45a13.45,13.45,0,0,0,.65,2c2.2.83,4.09-.77,6.2-.74a138.15,138.15,0,0,0,11.47-17.79,10.8,10.8,0,0,0,1.43-5.16c0-2.94,1.82-4.86,4.26-6.14,2.63-1.38,5.09.17,5.11,3.07a5.36,5.36,0,0,1-4,5.57c-3.46.88-5,3.23-6.49,6-2.61,4.91-5.4,9.72-8.26,14.83a21.16,21.16,0,0,1,1.87,2,10,10,0,0,1,1.94,7.42c-.43,3.24-.85,6.49-1.29,9.73a3.86,3.86,0,0,1-.1.49c-1,4.73-1.58,6.95-8.29,8.1C177.18,309.21,176.55,309.3,175.63,309.44Zm-17.56,31c-1,.24-1.53.34-2,.47-13.71,4-27.47,4.28-41.07-.2-8.49-2.8-16.1-7.28-22.06-14.2a39.37,39.37,0,0,0-3.42-3.12,18.65,18.65,0,0,0-1,2.57c-.73,3.35-1.29,6.75-2.11,10.08a99.59,99.59,0,0,0-2.75,29.23c.4,7.3,3.38,13.29,9.52,17.39a66.89,66.89,0,0,0,8.64,4.63c4.43,2.09,9.39,2.83,13.7,5.27a7.75,7.75,0,0,0,2.86.68q3.16.4,6.36.63a24.9,24.9,0,0,0,25.18-15.17,101.16,101.16,0,0,0,6.89-19.94C158.05,352.85,158.89,346.9,158.07,340.45Zm9.63-33.51c.42-1.35.85-2.76,1.3-4.16a45.2,45.2,0,0,0,1.46-22.32,23,23,0,0,0-6.19-12c-6.44-6.73-14.29-10.23-23.39-11.32a64.69,64.69,0,0,0-17.14.65c-7.12,1-12.28,5.09-15.45,11.57-.65,1.33-1.26,2.68-1.78,4.06-2.46,6.51-6.37,12.64-5.32,20.09.06.46-.25.95-.33,1.43a18.38,18.38,0,0,0,2.38,13.18,30.74,30.74,0,0,0,12.86,11.73,120.22,120.22,0,0,0,12.38,4.67,13.25,13.25,0,0,0,3.8.86c3.76.18,7.53.34,11.29.23,4.53-.14,8.9-1.35,12.27-4.42,3.22-2.94,6.7-5.84,8-10.32.19-.62.65-1.17.78-1.8C165,307.41,166.24,307.16,167.7,306.94ZM169.45,322a34.08,34.08,0,0,0-3,2.22,21.85,21.85,0,0,1-6.16,4,78.4,78.4,0,0,1-16.92,4.92c-6.39,1.2-12.47.25-18.47-1.26a50.38,50.38,0,0,1-19.81-10.43,32.53,32.53,0,0,1-7.43-7.83,50.82,50.82,0,0,1-5-10.1c-.34-1-.84-2-1.47-3.49-.81,1.24-1.65,2-1.79,2.85-.78,4.7-1.26,9.4.5,14,2,5.26,5.86,9,10.12,12.38a67.45,67.45,0,0,0,15.74,8.89,39.44,39.44,0,0,0,12.36,3,85.16,85.16,0,0,0,19.13-.64,37.56,37.56,0,0,0,15-5.78c3.66-2.34,5.7-5.81,7.75-9.34A2.42,2.42,0,0,0,169.45,322Zm-45.76,75.24a28.1,28.1,0,0,0,4.07,17.2,9,9,0,0,0,1.85,2.25c4.73,3.67,13.56,2.75,17.53-1.8a4.23,4.23,0,0,0,1.2-3.11c-.19-3.92-.12-7.85-.42-11.76a30.13,30.13,0,0,0-2.43-9.93C136,396.23,136,396.23,123.69,397.24Zm38.61-57.4a4.57,4.57,0,0,0-.68,1.37c-.26,2.92-.56,5.85-.62,8.78a6.46,6.46,0,0,0,.89,3.25,29.31,29.31,0,0,0,7,8.15c3.32,2.65,7.37,3.55,11.26,4.59a5.79,5.79,0,0,0,6.5-2.2,24.75,24.75,0,0,0,3.84-6.64c-2.92-6.12-7.85-10.11-13.31-13.42C172.65,341,167.73,339.32,162.3,339.84ZM88.53,383.6a13.77,13.77,0,0,0-2,6.91c-.22,4.72-.34,9.46-.41,14.19a7.21,7.21,0,0,0,5.21,7.44c1.07.38,2.15.78,3.25,1.07a5.58,5.58,0,0,0,6.14-2,71.53,71.53,0,0,0,4.51-5.8c2.34-3.57,4.16-7.37,4.4-11.63-.42-.35-.63-.64-.91-.74-2.15-.78-4.27-1.65-6.47-2.24C97.29,389.49,93.14,386.58,88.53,383.6Zm59.26,44.72c-1.25.55-1.82.84-2.41,1.07-4.3,1.68-8.49,1.89-12.64-.61-2.71-1.64-3.26-1.44-5.33,1.05a27.64,27.64,0,0,0-6,11.13c-.5,2-1.16,4-1.81,6.22a16.6,16.6,0,0,0,8,5.16c2.48.75,4.81.58,6.74-1.55,1.19-1.32,2.73-2.34,3.93-3.65C143.08,442,145.84,435.75,147.79,428.32ZM73.18,443.71c-2.8-1.14-5.45-2-7.9-3.25a8.59,8.59,0,0,1-5.11-8.71,21,21,0,0,0-.16-2.4c-5.74,2.89-7.11,9.32-6.21,13.38.32,1.42.71,2.84.9,4.28.72,5.46,4.36,9,8.23,12.26a5.48,5.48,0,0,0,6.82.65c1.82-1.09,3.78-2,5.54-3.15a4.25,4.25,0,0,0,1.63-5.94C75.73,448.34,74.36,445.93,73.18,443.71ZM92.41,426c-4.64-1.44-8.67-3.19-12.08-6.13a4.06,4.06,0,0,0-4.59-.5,32.32,32.32,0,0,0-10.68,7.72,10.14,10.14,0,0,0-1.85,2.88,4.29,4.29,0,0,0,.29,4.65c2.88,3.57,6.79,5,11.23,5.08a5.69,5.69,0,0,0,2.77-.83,99.21,99.21,0,0,0,8.76-5.43C88.73,431.6,91.18,429.6,92.41,426Zm44.45,27.89a1.61,1.61,0,0,0-.49,0,3.54,3.54,0,0,0-.89.39c-4.25,2.8-8.43,2.12-12.39-.51a69.39,69.39,0,0,1-5.66-4.64c-.46-.38-1-.71-1.45-1.07a4.51,4.51,0,0,0-1.57,5c1.49,4.7,3.53,9.2,7.19,12.63a12,12,0,0,0,6.37,3.42,49.15,49.15,0,0,0,5.81.64,28.32,28.32,0,0,0,11.38-1.9C144.12,462.48,140.43,456.34,136.86,453.86Zm-50-132.34c-7.2-1.33-12.65.39-24.1,7.38-.23.59-.47,1.19-.69,1.81-1.34,3.72-.72,5.8,2.42,8.05,2.26,1.62,4.66,2.31,7.34,1a24.21,24.21,0,0,0,2.7-1.18c3.15-2.05,6.25-4.19,9.37-6.29C84.83,328.79,85.78,325.32,86.82,321.52ZM68,366.84c-3.65,2.71-7.44,2.93-11.44,2a10.57,10.57,0,0,0-2.48.07c-.9,7.05.44,13.24,4.76,18.65a7,7,0,0,0,7.35,2.85,20,20,0,0,0,3.74-1.15c.63-.27,1.07-1,1.75-1.62-1.33-1-2.39-1.7-3.38-2.51a6.34,6.34,0,0,1-2.19-7.45c.64-1.89,1.83-2.85,3.56-2.84s2.65,1.05,2.93,2.71c.16.89.55,1.52,1.88,1.24C75.25,373.42,72.47,370,68,366.84ZM241,333.22c-3.62-2.58-5.06-2.47-7.27.64-.85,1.19-1.52,2.51-2.35,3.72a7.82,7.82,0,0,1-5.19,3.35c-2.32.44-3.54-.59-3.23-2.83.2-1.42,1.08-2.77.3-4.5-.59.26-1.32.35-1.65.76a54,54,0,0,0-4.67,6.25,8.51,8.51,0,0,0,1.55,10.68,22.46,22.46,0,0,0,2.66,2,11.48,11.48,0,0,1,6-2.45,7.23,7.23,0,0,0,4.91-2.92c2.6-3.35,5.1-6.77,7.64-10.17A5.36,5.36,0,0,0,241,333.22ZM52.07,344a9.45,9.45,0,0,0-1.47,7c.65,3.2,1.46,6.37,2.38,9.51a10.13,10.13,0,0,0,1.82,3.45,6.82,6.82,0,0,0,7.51,2.28c2.26-.59,3.62-2.51,3.93-5.56.39-3.82-.87-7.43-1.59-11.09-.43-2.16-2.51-3.7-4.24-3.34-2.7.56-4.8-.34-6.84-1.87A4.8,4.8,0,0,0,52.07,344ZM195,369.79c3.23-.29,5.29-.57,7.36-.63a11.67,11.67,0,0,0,5.91-2.08c3.78-2.37,6.78-5.59,9.72-8.87a2.17,2.17,0,0,0-.15-3.46,13.88,13.88,0,0,1-4.12-5.35,14.24,14.24,0,0,0-1.28-2.09c-4.86,2.53-8.12,6.4-11.51,10.1a5.4,5.4,0,0,0-1.12,2.15A32.07,32.07,0,0,1,195,369.79ZM171.4,306.46a69.19,69.19,0,0,0,7.53-.49,5,5,0,0,0,4.44-4.6c.41-3.4.82-6.79,1.17-10.19a13.75,13.75,0,0,0,0-2.94c-.33-2.7-1.86-4.14-4.51-4.22a8.36,8.36,0,0,0-5.38,1.29c-.36,3.66-.54,7.09-1,10.47S172.23,302.4,171.4,306.46Zm-74-12.41-1-.25a8.47,8.47,0,0,0-1.24,7.27A30,30,0,0,0,100,311.73c3.94,5.66,9.41,9.53,15.22,12.85a44.43,44.43,0,0,0,25,6c5.5-.31,10.6-1.91,15.76-3.57,6.07-2,10.4-6.05,14.2-10.86a8.18,8.18,0,0,0,2.19-5.35c0-.38-.45-.81-.8-1.08a1,1,0,0,0-.91,0c-1.73,1.92-4.51,2.8-5.65,5.21-1.46,3.07-4,5.11-6.21,7.53a16.9,16.9,0,0,1-7.9,4.74c-2.53.79-5.17.71-7.73,1.1a41,41,0,0,1-20.27-2.1c-6.58-2.32-12.58-5.52-17.57-10.46-4.56-4.53-7.8-9.67-7.73-16.4C97.57,297.58,97.43,295.82,97.37,294.05Zm-5.71-8.75c.89,1.74,1.86,3,3.75,3.1,1.58.11,2.48-.3,3-1.83,2.08-5.66,4.11-11.33,6.21-17.16a9.7,9.7,0,0,0-2.36-.75,7.15,7.15,0,0,0-7.08,4.3A29.63,29.63,0,0,0,91.66,285.3Zm35.82,187.06a10,10,0,0,0-1.69-1.11A18.78,18.78,0,0,1,113,457.74a22.67,22.67,0,0,0-1.89-3.79c-2.81,3-2.88,3-1.92,5.66a22,22,0,0,0,2,3.89c.93,1.53,2,2.95,3,4.45,2.81,4.24,6.43,7.34,11.82,8.18Zm-43-61.18c-1.85,1.22-2.6,2.46-2.4,4.05a4.28,4.28,0,0,0,1,2.65c3.75,3,7.73,5.48,13,4.34.71-1.81,1.81-3.43,1.21-5.65C92.28,416.57,87.82,415.38,84.49,411.18Zm46,9.81a6.58,6.58,0,0,0,.19,1.54c2.39,4.87,9.91,7.31,16.06,2.43,2.22-1.77,3.22-3.91,2.23-7-2.91,1.23-5.15,3.56-8.41,3.82A25.39,25.39,0,0,1,130.45,421Zm-80.7,20.53c-2.18,3.74-1.94,7.27-.87,10.7,1.76,5.65,5.44,9.87,10.44,13.2l2.42-1.8c-.92-1.95-2.42-3-3.71-4.15A17.71,17.71,0,0,1,52,448.63a52.92,52.92,0,0,0-1.12-5.26A9.12,9.12,0,0,0,49.75,441.52ZM186,369a22,22,0,0,0,2,1c2.13.73,3.87.21,4.91-1.86,1.23-2.45,2.43-4.91,3.5-7.44a4,4,0,0,0-.07-2.36,1.74,1.74,0,0,0-2.27-1.28c-1.07,1.95-2,4-3.25,5.85C189.47,364.82,187.83,366.62,186,369Zm-42.1,103.16c-4.19.19-8.35.36-12.52.57-.29,0-.57.27-1.09.53-.37,1.1-.8,2.38-1.32,3.91a45.53,45.53,0,0,0,11.39-1.68C142,475,143.69,474.31,143.86,472.12ZM57.32,333.31a11.08,11.08,0,0,0-2.9,4.09c-.78,2.08-.34,3.38,1.48,4.57,2,1.31,2.58,1.24,4.55-.62.2-.18.2-.58.29-.9-.67-1.09-1.44-2.15-2-3.3S57.86,334.8,57.32,333.31Zm6.29,133.81c5.57.23,8.75-1.54,10.8-6.17C70.64,463.1,66.55,463.73,63.61,467.12Zm134.3-210a1.42,1.42,0,0,0,.47-.13c.66-.48,1.37-1,1-1.94a1.21,1.21,0,0,0-1.14-.4c-.91.42-.84,1.24-.54,2.06A2,2,0,0,0,197.91,257.14Z" transform="translate(-44.98 -251.33)"/><path class="cls-6" d="M158.07,340.45c.82,6.45,0,12.4-1.29,18.32a101.16,101.16,0,0,1-6.89,19.94,24.9,24.9,0,0,1-25.18,15.17q-3.19-.22-6.36-.63a7.75,7.75,0,0,1-2.86-.68c-4.31-2.44-9.27-3.18-13.7-5.27a66.89,66.89,0,0,1-8.64-4.63c-6.14-4.1-9.12-10.09-9.52-17.39a99.59,99.59,0,0,1,2.75-29.23c.82-3.33,1.38-6.73,2.11-10.08a18.65,18.65,0,0,1,1-2.57,39.37,39.37,0,0,1,3.42,3.12c6,6.92,13.57,11.4,22.06,14.2,13.6,4.48,27.36,4.2,41.07.2C156.54,340.79,157,340.69,158.07,340.45ZM109.5,368.67c.56.65.73,1,1,1.12,5.72,2.74,11.82,3.48,18.06,3.41a3.77,3.77,0,0,0,3.68-2.75c1.26-3.69,2.41-7.42,3.52-11.16a5.71,5.71,0,0,0-.21-2,24.36,24.36,0,0,0-2.68-1.31,21.44,21.44,0,0,0-2.84-.71,19.76,19.76,0,0,1-3.32-.72,44.22,44.22,0,0,0-13.33-2.78,11.32,11.32,0,0,0-2.7.46C110.28,357.91,109.89,363.26,109.5,368.67Z" transform="translate(-44.98 -251.33)"/><path class="cls-6" d="M167.7,306.94a96.7,96.7,0,0,1-11.86,14.23c-3.37,3.07-7.74,4.28-12.27,4.42-3.76.11-7.53,0-11.29-.23a13.25,13.25,0,0,1-3.8-.86,120.22,120.22,0,0,1-12.38-4.67,30.74,30.74,0,0,1-12.86-11.73,18.38,18.38,0,0,1-2.38-13.18c.08-.48.39-1,.33-1.43-1-7.45,2.86-13.58,5.32-20.09.52-1.38,1.13-2.73,1.78-4.06,3.17-6.48,8.33-10.54,15.45-11.57a64.69,64.69,0,0,1,17.14-.65c9.1,1.09,17,4.59,23.39,11.32a23,23,0,0,1,6.19,12A45.2,45.2,0,0,1,169,302.78C168.55,304.18,168.12,305.59,167.7,306.94Zm-15.37-35.82a18.93,18.93,0,0,0-2.33-1.69c-3.63-2.14-7.13-4.7-11.69-4.44-.95.05-1.91,0-2.85.12-2.1.29-4.19.77-6.29,1a13.39,13.39,0,0,0-9,4.52A37.87,37.87,0,0,0,110,297a12.9,12.9,0,0,0,2.46,7.8c3.05,4.18,6.59,7.53,11.76,9.14,4.83,1.5,9.48,3.63,14.59,4.08a19.7,19.7,0,0,0,14.28-4c3.29-2.51,5.11-5.94,7-9.34,2.38-4.36,2.66-9.37,3.53-14.17a25.49,25.49,0,0,0,.2-3.92,11.6,11.6,0,0,0-2.57-7.75A31.58,31.58,0,0,0,152.33,271.12Z" transform="translate(-44.98 -251.33)"/><path class="cls-7" d="M169.45,322a2.42,2.42,0,0,1,.53,3.36c-2,3.53-4.09,7-7.75,9.34a37.56,37.56,0,0,1-15,5.78,85.16,85.16,0,0,1-19.13.64,39.44,39.44,0,0,1-12.36-3A67.45,67.45,0,0,1,100,329.27c-4.26-3.38-8.11-7.12-10.12-12.38-1.76-4.63-1.28-9.33-.5-14,.14-.86,1-1.61,1.79-2.85.63,1.48,1.13,2.46,1.47,3.49a50.82,50.82,0,0,0,5,10.1,32.53,32.53,0,0,0,7.43,7.83,50.38,50.38,0,0,0,19.81,10.43c6,1.51,12.08,2.46,18.47,1.26a78.4,78.4,0,0,0,16.92-4.92,21.85,21.85,0,0,0,6.16-4A34.08,34.08,0,0,1,169.45,322Z" transform="translate(-44.98 -251.33)"/><path class="cls-7" d="M123.31,396.72c12.26-1,12.26-1,21.8-7.16a30.25,30.25,0,0,1,2.43,9.93c.31,3.91.24,7.85.42,11.77a4.22,4.22,0,0,1-1.2,3.1c-4,4.55-12.8,5.48-17.53,1.81a9.19,9.19,0,0,1-1.85-2.25A28.12,28.12,0,0,1,123.31,396.72Z" transform="translate(-44.98 -251.33)"/><path class="cls-7" d="M162.3,339.84c5.43-.52,10.35,1.16,14.83,3.88,5.46,3.31,10.39,7.3,13.31,13.42a24.75,24.75,0,0,1-3.84,6.64,5.79,5.79,0,0,1-6.5,2.2c-3.89-1-7.94-1.94-11.26-4.59a29.31,29.31,0,0,1-7-8.15A6.46,6.46,0,0,1,161,350c.06-2.93.36-5.86.62-8.78A4.57,4.57,0,0,1,162.3,339.84Z" transform="translate(-44.98 -251.33)"/><path class="cls-7" d="M88.15,383.08c4.61,3,8.76,5.89,13.76,7.23,2.2.59,4.33,1.47,6.47,2.24a4.7,4.7,0,0,1,.92.75c-.25,4.26-2.07,8.06-4.41,11.62a71.55,71.55,0,0,1-4.5,5.81,5.59,5.59,0,0,1-6.14,2c-1.11-.29-2.19-.69-3.26-1.08a7.19,7.19,0,0,1-5.21-7.44c.07-4.73.19-9.46.41-14.19A13.81,13.81,0,0,1,88.15,383.08Z" transform="translate(-44.98 -251.33)"/><path class="cls-7" d="M147.79,428.32c-1.95,7.43-4.71,13.64-9.46,18.82-1.2,1.31-2.74,2.33-3.93,3.65-1.93,2.13-4.26,2.3-6.74,1.55a16.6,16.6,0,0,1-8-5.16c.65-2.19,1.31-4.19,1.81-6.22a27.64,27.64,0,0,1,6-11.13c2.07-2.49,2.62-2.69,5.33-1.05,4.15,2.5,8.34,2.29,12.64.61C146,429.16,146.54,428.87,147.79,428.32Z" transform="translate(-44.98 -251.33)"/><path class="cls-6" d="M73.18,443.71c1.18,2.22,2.55,4.63,3.74,7.12a4.25,4.25,0,0,1-1.63,5.94c-1.76,1.18-3.72,2.06-5.54,3.15a5.48,5.48,0,0,1-6.82-.65c-3.87-3.29-7.51-6.8-8.23-12.26-.19-1.44-.58-2.86-.9-4.28-.9-4.06.47-10.49,6.21-13.38a21,21,0,0,1,.16,2.4,8.59,8.59,0,0,0,5.11,8.71C67.73,441.71,70.38,442.57,73.18,443.71Z" transform="translate(-44.98 -251.33)"/><path class="cls-7" d="M92.41,426c-1.23,3.63-3.68,5.63-6.15,7.44a99.21,99.21,0,0,1-8.76,5.43,5.69,5.69,0,0,1-2.77.83c-4.44-.08-8.35-1.51-11.23-5.08a4.29,4.29,0,0,1-.29-4.65,10.14,10.14,0,0,1,1.85-2.88,32.32,32.32,0,0,1,10.68-7.72,4.06,4.06,0,0,1,4.59.5C83.74,422.78,87.77,424.53,92.41,426Z" transform="translate(-44.98 -251.33)"/><path class="cls-6" d="M136.86,453.86c3.57,2.48,7.26,8.62,8.3,14a28.32,28.32,0,0,1-11.38,1.9,49.15,49.15,0,0,1-5.81-.64,12,12,0,0,1-6.37-3.42c-3.66-3.43-5.7-7.93-7.19-12.63a4.51,4.51,0,0,1,1.57-5c.49.36,1,.69,1.45,1.07a69.39,69.39,0,0,0,5.66,4.64c4,2.63,8.14,3.31,12.39.51a3.54,3.54,0,0,1,.89-.39A1.61,1.61,0,0,1,136.86,453.86Z" transform="translate(-44.98 -251.33)"/><path class="cls-7" d="M86.82,321.52c-1,3.8-2,7.27-3,10.79-3.12,2.1-6.22,4.24-9.37,6.29a24.21,24.21,0,0,1-2.7,1.18c-2.68,1.29-5.08.6-7.34-1-3.14-2.25-3.76-4.33-2.42-8.05.22-.62.46-1.22.69-1.81C74.17,321.91,79.62,320.19,86.82,321.52Z" transform="translate(-44.98 -251.33)"/><path class="cls-7" d="M68,366.84c4.48,3.13,7.26,6.58,6.48,11.93-1.33.28-1.72-.35-1.88-1.24-.28-1.66-1.16-2.69-2.93-2.71s-2.92.95-3.56,2.84a6.34,6.34,0,0,0,2.19,7.45c1,.81,2,1.53,3.38,2.51-.68.65-1.12,1.35-1.75,1.62a20,20,0,0,1-3.74,1.15,7,7,0,0,1-7.35-2.85c-4.32-5.41-5.66-11.6-4.76-18.65a10.57,10.57,0,0,1,2.48-.07C60.55,369.77,64.34,369.55,68,366.84Z" transform="translate(-44.98 -251.33)"/><path class="cls-7" d="M241,333.22a5.36,5.36,0,0,1-1.33,4.52c-2.54,3.4-5,6.82-7.64,10.17a7.23,7.23,0,0,1-4.91,2.92,11.48,11.48,0,0,0-6,2.45,22.46,22.46,0,0,1-2.66-2A8.51,8.51,0,0,1,217,340.61a54,54,0,0,1,4.67-6.25c.33-.41,1.06-.5,1.65-.76.78,1.73-.1,3.08-.3,4.5-.31,2.24.91,3.27,3.23,2.83a7.82,7.82,0,0,0,5.19-3.35c.83-1.21,1.5-2.53,2.35-3.72C236,330.75,237.42,330.64,241,333.22Z" transform="translate(-44.98 -251.33)"/><path class="cls-6" d="M52.07,344a4.8,4.8,0,0,1,1.5.38c2,1.53,4.14,2.43,6.84,1.87,1.73-.36,3.81,1.18,4.24,3.34.72,3.66,2,7.27,1.59,11.09-.31,3.05-1.67,5-3.93,5.56a6.82,6.82,0,0,1-7.51-2.28A10.13,10.13,0,0,1,53,360.47c-.92-3.14-1.73-6.31-2.38-9.51A9.45,9.45,0,0,1,52.07,344Z" transform="translate(-44.98 -251.33)"/><path class="cls-6" d="M195,369.79a32.07,32.07,0,0,0,4.81-10.23,5.4,5.4,0,0,1,1.12-2.15c3.39-3.7,6.65-7.57,11.51-10.1a14.24,14.24,0,0,1,1.28,2.09,13.88,13.88,0,0,0,4.12,5.35,2.17,2.17,0,0,1,.15,3.46c-2.94,3.28-5.94,6.5-9.72,8.87a11.67,11.67,0,0,1-5.91,2.08C200.24,369.22,198.18,369.5,195,369.79Z" transform="translate(-44.98 -251.33)"/><path class="cls-7" d="M171.4,306.46c.83-4.06,1.65-7.34,2.15-10.68s.69-6.81,1-10.47A8.36,8.36,0,0,1,180,284c2.65.08,4.18,1.52,4.51,4.22a13.75,13.75,0,0,1,0,2.94c-.35,3.4-.76,6.79-1.17,10.19a5,5,0,0,1-4.44,4.6A69.19,69.19,0,0,1,171.4,306.46Z" transform="translate(-44.98 -251.33)"/><path class="cls-8" d="M97.37,294.05c.06,1.77.2,3.53.18,5.29-.07,6.73,3.17,11.87,7.73,16.4,5,4.94,11,8.14,17.57,10.46a41,41,0,0,0,20.27,2.1c2.56-.39,5.2-.31,7.73-1.1a16.9,16.9,0,0,0,7.9-4.74c2.18-2.42,10.13-10.82,11.86-12.74a1,1,0,0,1,.91,0c.35.27.79.7.8,1.08a8.18,8.18,0,0,1-2.19,5.35c-3.8,4.81-8.13,8.9-14.2,10.86-5.16,1.66-10.26,3.26-15.76,3.57a44.43,44.43,0,0,1-25-6c-5.81-3.32-11.28-7.19-15.22-12.85a30,30,0,0,1-4.87-10.66,8.47,8.47,0,0,1,1.24-7.27Z" transform="translate(-44.98 -251.33)"/><path class="cls-7" d="M91.66,285.3A29.63,29.63,0,0,1,95.21,273a7.15,7.15,0,0,1,7.08-4.3,9.7,9.7,0,0,1,2.36.75c-2.1,5.83-4.13,11.5-6.21,17.16-.55,1.53-1.45,1.94-3,1.83C93.52,288.26,92.55,287,91.66,285.3Z" transform="translate(-44.98 -251.33)"/><path class="cls-9" d="M127.48,472.36,126,476.13c-5.39-.84-9-3.94-11.82-8.18-1-1.5-2.09-2.92-3-4.45a22,22,0,0,1-2-3.89c-1-2.63-.89-2.66,1.92-5.66a22.67,22.67,0,0,1,1.89,3.79,18.78,18.78,0,0,0,12.84,13.51A10,10,0,0,1,127.48,472.36Z" transform="translate(-44.98 -251.33)"/><path class="cls-10" d="M84.49,411.18c3.33,4.2,7.79,5.39,12.82,5.39.6,2.22-.5,3.84-1.21,5.65-5.29,1.14-9.27-1.37-13-4.34a4.28,4.28,0,0,1-1-2.65C81.89,413.64,82.64,412.4,84.49,411.18Z" transform="translate(-44.98 -251.33)"/><path class="cls-10" d="M130.45,421a25.39,25.39,0,0,0,10.07.79c3.26-.26,5.5-2.59,8.41-3.82,1,3.09,0,5.23-2.23,7-6.15,4.88-13.67,2.44-16.06-2.43A6.58,6.58,0,0,1,130.45,421Z" transform="translate(-44.98 -251.33)"/><path class="cls-9" d="M49.75,441.52a9.12,9.12,0,0,1,1.11,1.85A52.92,52.92,0,0,1,52,448.63,17.71,17.71,0,0,0,58,459.47c1.29,1.18,2.79,2.2,3.71,4.15l-2.42,1.8c-5-3.33-8.68-7.55-10.44-13.2C47.81,448.79,47.57,445.26,49.75,441.52Z" transform="translate(-44.98 -251.33)"/><path class="cls-10" d="M186,369c1.87-2.34,3.51-4.14,4.85-6.13,1.25-1.84,2.18-3.9,3.25-5.85a1.74,1.74,0,0,1,2.27,1.28,4,4,0,0,1,.07,2.36c-1.07,2.53-2.27,5-3.5,7.44-1,2.07-2.78,2.59-4.91,1.86A22,22,0,0,1,186,369Z" transform="translate(-44.98 -251.33)"/><path class="cls-9" d="M143.86,472.12c-.17,2.19-1.82,2.91-3.54,3.33a45.53,45.53,0,0,1-11.39,1.68c.52-1.53.95-2.81,1.32-3.91.52-.26.8-.52,1.09-.53C135.51,472.48,139.67,472.31,143.86,472.12Z" transform="translate(-44.98 -251.33)"/><path class="cls-10" d="M57.32,333.31c.54,1.49.88,2.71,1.42,3.84s1.33,2.21,2,3.3c-.09.32-.09.72-.29.9-2,1.86-2.56,1.93-4.55.62-1.82-1.19-2.26-2.49-1.48-4.57A11.08,11.08,0,0,1,57.32,333.31Z" transform="translate(-44.98 -251.33)"/><path class="cls-9" d="M63.61,467.12c2.94-3.39,7-4,10.8-6.17C72.36,465.58,69.18,467.35,63.61,467.12Z" transform="translate(-44.98 -251.33)"/><path class="cls-11" d="M197.91,257.14a2,2,0,0,1-.26-.41c-.3-.82-.37-1.64.54-2.06a1.21,1.21,0,0,1,1.14.4c.42.93-.29,1.46-1,1.94A1.42,1.42,0,0,1,197.91,257.14Z" transform="translate(-44.98 -251.33)"/><path class="cls-5" d="M109.5,368.67c.39-5.41.78-10.76,1.18-16.41a11.32,11.32,0,0,1,2.7-.46,44.22,44.22,0,0,1,13.33,2.78,19.76,19.76,0,0,0,3.32.72,21.44,21.44,0,0,1,2.84.71,24.36,24.36,0,0,1,2.68,1.31,5.71,5.71,0,0,1,.21,2c-1.11,3.74-2.26,7.47-3.52,11.16a3.77,3.77,0,0,1-3.68,2.75c-6.24.07-12.34-.67-18.06-3.41C110.23,369.66,110.06,369.32,109.5,368.67Zm23-9.54c-3.94-1.1-7.69-2.11-11.42-3.2a20.3,20.3,0,0,0-7.94-.65q-.17,3.18-.34,6.31c-.12,2.08-.66,4.19.28,6.24,5.29,2.31,10.71,2.62,16.29,2A21.44,21.44,0,0,0,132.54,359.13Z" transform="translate(-44.98 -251.33)"/><path class="cls-10" d="M152.33,271.12a31.58,31.58,0,0,1,8.88,7.75,11.6,11.6,0,0,1,2.57,7.75,25.49,25.49,0,0,1-.2,3.92c-.87,4.8-1.15,9.81-3.53,14.17-1.85,3.4-3.67,6.83-7,9.34a19.7,19.7,0,0,1-14.28,4c-5.11-.45-9.76-2.58-14.59-4.08-5.17-1.61-8.71-5-11.76-9.14A12.9,12.9,0,0,1,110,297a37.87,37.87,0,0,1,10.17-26.41,13.39,13.39,0,0,1,9-4.52c2.1-.21,4.19-.69,6.29-1,.94-.13,1.9-.07,2.85-.12,4.56-.26,8.06,2.3,11.69,4.44A18.93,18.93,0,0,1,152.33,271.12Zm-33.24,5.46a79.61,79.61,0,0,0-4,7.62c-1.65,4.16-1.91,8.63-2.14,13.05a9.54,9.54,0,0,0,1.91,6,20.56,20.56,0,0,0,10.34,7.95c3.08,1.1,6.22,2,9.33,3.06,5.52,1.82,13.41,1.52,19-4.31a19.82,19.82,0,0,0,5.3-8.76,110.52,110.52,0,0,0,2-11.61c.33-2.46.34-5-1.12-7.16-1.65-2.43-3.31-4.92-5.8-6.62s-5.12-3.57-7.8-5.15c-2.4-1.4-4.91-2.7-7.83-2.59a65.67,65.67,0,0,0-8.32.46,12.29,12.29,0,0,0-5.3,2.33A59.33,59.33,0,0,0,119.09,276.58Z" transform="translate(-44.98 -251.33)"/><path class="cls-9" d="M132.54,359.13a21.44,21.44,0,0,1-3.13,10.68c-5.58.64-11,.33-16.29-2-.94-2.05-.4-4.16-.28-6.24s.23-4.19.34-6.31a20.3,20.3,0,0,1,7.94.65C124.85,357,128.6,358,132.54,359.13Zm-7.66,5a2.19,2.19,0,0,0-.57-3,2.25,2.25,0,0,0-2.92.89,1.94,1.94,0,0,0,.52,2.55A2.13,2.13,0,0,0,124.88,364.11Z" transform="translate(-44.98 -251.33)"/><path class="cls-5" d="M119.09,276.58a59.33,59.33,0,0,1,5.69-5.76,12.29,12.29,0,0,1,5.3-2.33,65.67,65.67,0,0,1,8.32-.46c2.92-.11,5.43,1.19,7.83,2.59,2.68,1.58,5.24,3.38,7.8,5.15s4.15,4.19,5.8,6.62c1.46,2.15,1.45,4.7,1.12,7.16a110.52,110.52,0,0,1-2,11.61,19.82,19.82,0,0,1-5.3,8.76c-5.62,5.83-13.51,6.13-19,4.31-3.11-1-6.25-2-9.33-3.06a20.56,20.56,0,0,1-10.34-7.95,9.54,9.54,0,0,1-1.91-6c.23-4.42.49-8.89,2.14-13.05A79.61,79.61,0,0,1,119.09,276.58ZM122,281c-.61,1.18-1.43,2.77-2.28,4.36a4.68,4.68,0,0,0,.57,5.1c1.25,1.82,3.33,2,5.29,1.87,1.29-.1,1.67-1.35,2-2.51.45-1.56,1.14-3.06,1.54-4.64a16.71,16.71,0,0,0,.47-3.86c0-1.72-.81-2.6-2.52-3.21a3,3,0,0,0-3.52,1C123.14,279.62,122.73,280.14,122,281Z" transform="translate(-44.98 -251.33)"/><path class="cls-5" d="M124.88,364.11a2.13,2.13,0,0,1-3,.46,1.94,1.94,0,0,1-.52-2.55,2.25,2.25,0,0,1,2.92-.89A2.19,2.19,0,0,1,124.88,364.11Z" transform="translate(-44.98 -251.33)"/><path class="cls-5" d="M122,281c.73-.88,1.14-1.4,1.56-1.89a3,3,0,0,1,3.52-1c1.71.61,2.51,1.49,2.52,3.21a16.71,16.71,0,0,1-.47,3.86c-.4,1.58-1.09,3.08-1.54,4.64-.34,1.16-.72,2.41-2,2.51-2,.14-4-.05-5.29-1.87a4.68,4.68,0,0,1-.57-5.1C120.57,283.79,121.39,282.2,122,281Zm1.79,8.74c.45-.41,1.13-.74,1.3-1.24a58.93,58.93,0,0,0,1.79-6c.09-.39-.48-.94-.84-1.58-1.83,1.45-2.53,3.31-3.48,4.94C121.72,287.33,122.3,288.64,123.79,289.76Z" transform="translate(-44.98 -251.33)"/><path class="cls-11" d="M123.79,289.76c-1.49-1.12-2.07-2.43-1.23-3.87,1-1.63,1.65-3.49,3.48-4.94.36.64.93,1.19.84,1.58a58.93,58.93,0,0,1-1.79,6C124.92,289,124.24,289.35,123.79,289.76Z" transform="translate(-44.98 -251.33)"/></svg>