<svg id="Layer_1" data-name="Layer 1" xmlns="http://www.w3.org/2000/svg" xmlns:xlink="http://www.w3.org/1999/xlink" viewBox="0 0 996.72 327.64"><defs><style>.cls-1{fill:#603813;}.cls-2{fill:#774111;}.cls-3{fill:url(#linear-gradient);}.cls-4,.cls-7{fill:#fff;}.cls-5{fill:#fdf245;}.cls-6{fill:#fde321;}.cls-7{opacity:0.2;}.cls-8{fill:#7d5743;}.cls-9{fill:#f9a626;}.cls-10{fill:#fafafa;opacity:0.3;}</style><linearGradient id="linear-gradient" x1="856.5" y1="568" x2="856.5" y2="339" gradientUnits="userSpaceOnUse"><stop offset="0" stop-color="#b47f44"/><stop offset="0.45" stop-color="#b27e43"/><stop offset="0.63" stop-color="#ab7840"/><stop offset="0.77" stop-color="#9e703a"/><stop offset="0.89" stop-color="#8d6332"/><stop offset="0.99" stop-color="#765327"/><stop offset="1" stop-color="#735126"/></linearGradient></defs><title>time</title><path class="cls-1" d="M1211,479.66c0,63.15-25.68,114.34-57.38,114.34H496.7c-31.69,0-57.37-51.19-57.37-114.34V405.33C439.33,342.19,465,291,496.7,291h656.92c31.7,0,57.38,51.19,57.38,114.33Z" transform="translate(-214.28 -278.91)"/><path class="cls-2" d="M1184,489.47c0,57.73-27.87,104.53-62.25,104.53H409.12c-34.37,0-62.24-46.8-62.24-104.53V421.53c0-57.73,27.87-104.53,62.24-104.53h712.63c34.38,0,62.25,46.8,62.25,104.53Z" transform="translate(-214.28 -278.91)"/><path class="cls-1" d="M1129,481.59c0,47.73-18.71,86.41-41.79,86.41H608.79C585.71,568,567,529.32,567,481.59V425.42c0-47.73,18.71-86.42,41.79-86.42h478.42c23.08,0,41.79,38.69,41.79,86.42Z" transform="translate(-214.28 -278.91)"/><path class="cls-3" d="M1129,481.58c0,47.72-18.15,86.42-40.51,86.42h-464C602.14,568,584,529.3,584,481.58V425.41c0-47.72,18.14-86.41,40.52-86.41h464c22.36,0,40.51,38.69,40.51,86.41Z" transform="translate(-214.28 -278.91)"/><path class="cls-4" d="M1120,481.59c0,47.73-17.85,86.41-39.86,86.41H623.85c-22,0-39.85-38.68-39.85-86.41V425.41c0-47.72,17.85-86.41,39.85-86.41h456.29c22,0,39.86,38.69,39.86,86.41Z" transform="translate(-214.28 -278.91)"/><path class="cls-5" d="M520.64,301.45c0-.9,0-1.82,0-2.7,0-1.25-.06-2.47-.16-3.72l-31.62-.32-108-1-64.41-.63-42.37-.41-31.62-.31c-.19,2.95-.35,5.92-.35,8.9s0,6.17.22,9.21a138.22,138.22,0,0,0,12.48,50.37,139.7,139.7,0,0,0,73.15,70.48,139,139,0,0,0,46.13,10.44c2,.1,3.95.15,5.95.19h1.38c2.07,0,4.14,0,6.18-.16a139.82,139.82,0,0,0,27.73-4A139.64,139.64,0,0,0,517,334.29a135.07,135.07,0,0,0,3-18.74c.16-1.69.29-3.38.35-5.11.06-.84.13-1.72.16-2.6.06-1.28.09-2.6.09-3.89C520.67,303.12,520.67,302.3,520.64,301.45ZM387.57,410.2c-2.23.16-4.48.19-6.74.19h-.54c-2.1,0-4.16-.1-6.23-.25a107.83,107.83,0,0,1-83.37-49.33H472A107.78,107.78,0,0,1,387.57,410.2Z" transform="translate(-214.28 -278.91)"/><path class="cls-6" d="M489.1,303.65a107.34,107.34,0,0,1-9.85,44A109.93,109.93,0,0,1,472,360.8H290.7a107.16,107.16,0,0,1-17.1-59.25c0-3,.16-6,.45-8.9v0l42.38.42,172.38,1.68C489.05,297.66,489.13,300.64,489.1,303.65Z" transform="translate(-214.28 -278.91)"/><path class="cls-7" d="M520.67,304c0,1.29,0,2.61-.09,3.89,0,.88-.07,1.76-.13,2.6-.09,1.73-.22,3.42-.38,5.11a135.07,135.07,0,0,1-3,18.74,156.46,156.46,0,0,1-37.79,13.32s0,0,0,0a159.64,159.64,0,0,1-37.58,4,168.71,168.71,0,0,1-125.21-58.61l64.41.63,108,1,31.62.32c.1,1.25.13,2.47.16,3.72,0,.88.06,1.8,0,2.7S520.67,303.12,520.67,304Z" transform="translate(-214.28 -278.91)"/><path class="cls-5" d="M520.51,575A134.83,134.83,0,0,0,517,549.55,139.44,139.44,0,0,0,415.3,446.09a142.1,142.1,0,0,0-27.73-4c-2-.09-4.11-.12-6.18-.12H380q-3,0-5.95.19A139.08,139.08,0,0,0,242.24,575c-.13,2.5-.19,5-.16,7.54,0,3,.16,6,.35,8.94l31.62-.35,106.78-1,108-1,31.62-.32c.19-2.95.22-5.89.22-8.9C520.64,578.25,520.61,576.62,520.51,575ZM273.8,575a104.87,104.87,0,0,1,7.62-34.1H481.31a108,108,0,0,1,7.61,34.1Z" transform="translate(-214.28 -278.91)"/><path class="cls-6" d="M481.3,540.91H281.43a107.72,107.72,0,0,1,197.82-4.7C480,537.76,480.64,539.31,481.3,540.91Z" transform="translate(-214.28 -278.91)"/><path class="cls-6" d="M489.1,580.17c0,3-.05,6-.29,8.93l-214.76,2.08c-.29-2.92-.42-5.91-.45-8.94,0-2.42,0-4.83.18-7.21H488.92C489,576.73,489.08,578.43,489.1,580.17Z" transform="translate(-214.28 -278.91)"/><path class="cls-8" d="M548,294.68a15.79,15.79,0,0,1-15.77,15.76H230.05a15.8,15.8,0,0,1-15.77-15.76,15.79,15.79,0,0,1,15.77-15.77H532.23A15.78,15.78,0,0,1,548,294.68Z" transform="translate(-214.28 -278.91)"/><path class="cls-8" d="M548,590.79a15.77,15.77,0,0,1-15.77,15.76H230.05a15.76,15.76,0,1,1,0-31.52H532.23A15.77,15.77,0,0,1,548,590.79Z" transform="translate(-214.28 -278.91)"/><rect class="cls-5" x="132.04" y="149.97" width="68.98" height="34.6"/><path class="cls-9" d="M472,360.8a107.67,107.67,0,0,1-181.33,0Z" transform="translate(-214.28 -278.91)"/><path class="cls-5" d="M494.56,360.81v23a139.24,139.24,0,0,1-59.83,47.51H327.93a139.7,139.7,0,0,1-73.15-70.48h35.91a107.83,107.83,0,0,0,83.37,49.33c2.07.15,4.13.22,6.23.25h.54c2.26,0,4.51,0,6.74-.19A107.78,107.78,0,0,0,472,360.81Z" transform="translate(-214.28 -278.91)"/><rect class="cls-9" x="159.79" y="119.98" width="13.48" height="145.53"/><path class="cls-9" d="M488.92,575H273.78a105.65,105.65,0,0,1,7.65-34.12H481.3A107.45,107.45,0,0,1,488.92,575Z" transform="translate(-214.28 -278.91)"/><path class="cls-10" d="M548,590.79a15.77,15.77,0,0,1-15.77,15.76H380.83V278.91h151.4a15.77,15.77,0,1,1,0,31.53H520.45c-.09,1.73-.22,3.42-.38,5.11a135.07,135.07,0,0,1-3,18.74A140.11,140.11,0,0,1,415.3,437.79v8.3A139.44,139.44,0,0,1,517,549.55,134.83,134.83,0,0,1,520.51,575h11.72A15.77,15.77,0,0,1,548,590.79Z" transform="translate(-214.28 -278.91)"/></svg>